STARTFONT 2.1
FONT -FontForge-Arial-Book-R-Normal--32-310-75-75-P-163-ISO10646-1
SIZE 31 75 75
FONTBOUNDINGBOX 85 41 -21 -10
COMMENT "Generated by fontforge, http://fontforge.sourceforge.net"
COMMENT "(c) 2006 The Monotype Corporation. All Rights Reserved."
STARTPROPERTIES 40
FOUNDRY "FontForge"
FAMILY_NAME "Arial"
WEIGHT_NAME "Book"
SLANT "R"
SETWIDTH_NAME "Normal"
ADD_STYLE_NAME ""
PIXEL_SIZE 32
POINT_SIZE 310
RESOLUTION_X 75
RESOLUTION_Y 75
SPACING "P"
AVERAGE_WIDTH 163
CHARSET_REGISTRY "ISO10646"
CHARSET_ENCODING "1"
FONTNAME_REGISTRY ""
CHARSET_COLLECTIONS "ASCII ISOLatin1Encoding ISO8859-2 ISO8859-5 ISO8859-7 ISO8859-9 ISO8859-8 ISO8859-6 ISO8859-4 ISO10646-1"
FONT_NAME "ArialMT"
FACE_NAME "Arial"
COPYRIGHT "(c) 2006 The Monotype Corporation. All Rights Reserved."
FONT_VERSION "5.01.2x"
FONT_ASCENT 26
FONT_DESCENT 6
UNDERLINE_POSITION -5
UNDERLINE_THICKNESS 3
X_HEIGHT 16
CAP_HEIGHT 22
RAW_ASCENT 799
RAW_DESCENT 200
NORM_SPACE 9
RELATIVE_WEIGHT 40
RELATIVE_SETWIDTH 50
SUPERSCRIPT_X 0
SUPERSCRIPT_Y 15
SUPERSCRIPT_SIZE 20
SUBSCRIPT_X 0
SUBSCRIPT_Y 4
SUBSCRIPT_SIZE 20
FIGURE_WIDTH 18
AVG_LOWERCASE_WIDTH 161
AVG_UPPERCASE_WIDTH 227
ENDPROPERTIES
CHARS 3482
STARTCHAR space
ENCODING 32
SWIDTH 277 0
DWIDTH 9 0
BBX 1 1 0 0
BITMAP
00
ENDCHAR
STARTCHAR exclam
ENCODING 33
SWIDTH 277 0
DWIDTH 11 0
BBX 3 23 4 0
BITMAP
E0
E0
E0
E0
E0
E0
E0
E0
E0
E0
E0
E0
40
40
40
40
40
40
00
00
E0
E0
E0
ENDCHAR
STARTCHAR quotedbl
ENCODING 34
SWIDTH 354 0
DWIDTH 11 0
BBX 9 8 1 15
BITMAP
E380
E380
E380
E380
E380
E380
E380
4100
ENDCHAR
STARTCHAR numbersign
ENCODING 35
SWIDTH 556 0
DWIDTH 18 0
BBX 17 23 0 0
BITMAP
038700
038700
070E00
070E00
070E00
070E00
FFFF80
FFFF80
FFFF80
0E1C00
0E1C00
1E3C00
1C3800
1C3800
FFFF80
FFFF80
FFFF80
387000
387000
387000
387000
70E000
70E000
ENDCHAR
STARTCHAR dollar
ENCODING 36
SWIDTH 556 0
DWIDTH 18 0
BBX 16 27 1 -3
BITMAP
0180
07E0
1FF8
3FFC
799C
718E
718E
7180
7180
3D80
3F80
1FF0
07FC
01FE
019E
018F
0187
E187
E187
F18F
799E
3FFC
1FF8
07F0
0180
0180
0180
ENDCHAR
STARTCHAR percent
ENCODING 37
SWIDTH 889 0
DWIDTH 28 0
BBX 24 23 2 0
BITMAP
1E0070
7F80E0
7380E0
E1C1C0
E1C1C0
E1C380
E1C380
E1C700
E1C700
738E00
7F0E00
1E1C78
001DFE
0039CE
007B87
007387
00E387
00E387
01C387
01C387
0381CE
0381FE
070078
ENDCHAR
STARTCHAR ampersand
ENCODING 38
SWIDTH 666 0
DWIDTH 21 0
BBX 19 23 1 0
BITMAP
03E000
07F800
0FF800
1E3C00
1C1C00
1C1C00
1C1C00
0E3800
07F000
07E000
0FC000
1FC000
3CE000
7071C0
E03B80
E03B80
E01F00
E00E00
F00F00
783F80
3FFDC0
1FF9E0
07E080
ENDCHAR
STARTCHAR quotesingle
ENCODING 39
SWIDTH 190 0
DWIDTH 6 0
BBX 3 8 1 15
BITMAP
E0
E0
E0
E0
E0
E0
E0
40
ENDCHAR
STARTCHAR parenleft
ENCODING 40
SWIDTH 333 0
DWIDTH 11 0
BBX 8 29 2 -6
BITMAP
03
06
0C
1C
18
38
30
70
70
70
E0
E0
E0
E0
E0
E0
E0
E0
E0
70
70
70
38
38
18
1C
0C
06
03
ENDCHAR
STARTCHAR parenright
ENCODING 41
SWIDTH 333 0
DWIDTH 11 0
BBX 8 29 1 -6
BITMAP
C0
60
30
38
18
1C
0C
0E
0E
0E
07
07
07
07
07
07
07
07
07
0E
0E
0E
1C
1C
18
38
30
60
C0
ENDCHAR
STARTCHAR asterisk
ENCODING 42
SWIDTH 389 0
DWIDTH 12 0
BBX 10 10 1 13
BITMAP
0C00
0C00
0C00
EDC0
FFC0
3F00
1E00
3F00
7380
2100
ENDCHAR
STARTCHAR plus
ENCODING 43
SWIDTH 583 0
DWIDTH 19 0
BBX 15 15 2 4
BITMAP
0380
0380
0380
0380
0380
0380
FFFE
FFFE
FFFE
0380
0380
0380
0380
0380
0380
ENDCHAR
STARTCHAR comma
ENCODING 44
SWIDTH 277 0
DWIDTH 9 0
BBX 3 8 3 -5
BITMAP
E0
E0
E0
60
60
60
40
C0
ENDCHAR
STARTCHAR hyphen
ENCODING 45
SWIDTH 333 0
DWIDTH 11 0
BBX 9 3 1 7
BITMAP
FF80
FF80
FF80
ENDCHAR
STARTCHAR period
ENCODING 46
SWIDTH 277 0
DWIDTH 9 0
BBX 3 3 3 0
BITMAP
E0
E0
E0
ENDCHAR
STARTCHAR slash
ENCODING 47
SWIDTH 277 0
DWIDTH 9 0
BBX 9 23 0 0
BITMAP
0180
0180
0300
0300
0300
0600
0600
0600
0C00
0C00
0C00
1C00
1800
1800
1800
3000
3000
3000
6000
6000
6000
E000
C000
ENDCHAR
STARTCHAR zero
ENCODING 48
SWIDTH 556 0
DWIDTH 18 0
BBX 16 23 1 0
BITMAP
07E0
1FF8
3FFC
7C3C
701E
700E
E00F
E007
E007
E007
E007
E007
E007
E007
E007
E007
E007
700E
700E
7C3E
3FFC
1FF8
07E0
ENDCHAR
STARTCHAR one
ENCODING 49
SWIDTH 556 0
DWIDTH 18 0
BBX 9 23 3 0
BITMAP
0180
0380
0780
0F80
3F80
7F80
F380
C380
0380
0380
0380
0380
0380
0380
0380
0380
0380
0380
0380
0380
0380
0380
0380
ENDCHAR
STARTCHAR two
ENCODING 50
SWIDTH 556 0
DWIDTH 18 0
BBX 15 23 1 0
BITMAP
0FE0
3FF8
7FFC
783C
E01E
E00E
000E
000E
000E
001C
001C
0038
0070
00E0
01C0
0780
0F00
1C00
3800
7000
7FFE
FFFE
FFFE
ENDCHAR
STARTCHAR three
ENCODING 51
SWIDTH 556 0
DWIDTH 18 0
BBX 16 23 1 0
BITMAP
07E0
1FF8
3FFC
783C
F01E
E00E
000E
001E
003C
03F8
03F8
03FC
001E
000F
0007
0007
0007
E007
F00E
781E
3FFC
1FF8
0FE0
ENDCHAR
STARTCHAR four
ENCODING 52
SWIDTH 556 0
DWIDTH 18 0
BBX 16 23 1 0
BITMAP
0018
0038
0078
00F8
00F8
01F8
03B8
07B8
0738
0E38
1C38
1C38
3838
7038
E038
FFFF
FFFF
FFFF
0038
0038
0038
0038
0038
ENDCHAR
STARTCHAR five
ENCODING 53
SWIDTH 556 0
DWIDTH 18 0
BBX 16 23 1 0
BITMAP
3FFE
3FFE
3FFE
7000
7000
7000
7000
73E0
6FF8
FFFC
F81E
E00E
0007
0007
0007
0007
0007
E00F
F00E
781E
7FFC
1FF8
0FE0
ENDCHAR
STARTCHAR six
ENCODING 54
SWIDTH 556 0
DWIDTH 18 0
BBX 16 23 1 0
BITMAP
03F0
0FFC
1FFE
3C1E
780F
7007
7000
E000
E3F0
EFF8
FFFC
FC1E
F00F
E007
E007
E007
E007
7007
700E
3C1E
3FFC
1FF8
07E0
ENDCHAR
STARTCHAR seven
ENCODING 55
SWIDTH 556 0
DWIDTH 18 0
BBX 15 23 2 0
BITMAP
FFFE
FFFE
FFFE
000C
0018
0038
0070
00E0
00E0
01C0
01C0
0380
0380
0700
0700
0E00
0E00
0E00
0E00
1C00
1C00
1C00
1C00
ENDCHAR
STARTCHAR eight
ENCODING 56
SWIDTH 556 0
DWIDTH 18 0
BBX 16 23 1 0
BITMAP
07E0
1FF8
3FFC
781C
700E
700E
700E
700E
381C
1FF8
0FF0
3FFC
781E
700E
E007
E007
E007
E007
F00F
781E
3FFC
1FF8
07E0
ENDCHAR
STARTCHAR nine
ENCODING 57
SWIDTH 556 0
DWIDTH 18 0
BBX 16 23 1 0
BITMAP
07E0
1FF0
3FFC
7C1C
700E
F006
E007
E007
E007
E007
F00F
781F
3FFF
1FF7
0FC7
0007
000E
E00E
F01E
783C
7FF8
3FF0
0FC0
ENDCHAR
STARTCHAR colon
ENCODING 58
SWIDTH 277 0
DWIDTH 9 0
BBX 3 17 3 0
BITMAP
E0
E0
E0
00
00
00
00
00
00
00
00
00
00
00
E0
E0
E0
ENDCHAR
STARTCHAR semicolon
ENCODING 59
SWIDTH 277 0
DWIDTH 9 0
BBX 3 22 3 -5
BITMAP
E0
E0
E0
00
00
00
00
00
00
00
00
00
00
00
E0
E0
E0
60
60
60
40
C0
ENDCHAR
STARTCHAR less
ENCODING 60
SWIDTH 583 0
DWIDTH 19 0
BBX 15 15 2 4
BITMAP
0002
001E
007E
03FC
0FE0
7F00
FC00
E000
FC00
7F00
0FE0
03FC
007E
001E
0002
ENDCHAR
STARTCHAR equal
ENCODING 61
SWIDTH 583 0
DWIDTH 19 0
BBX 15 10 2 7
BITMAP
FFFE
FFFE
FFFE
0000
0000
0000
0000
FFFE
FFFE
FFFE
ENDCHAR
STARTCHAR greater
ENCODING 62
SWIDTH 583 0
DWIDTH 19 0
BBX 15 15 2 4
BITMAP
8000
F000
FC00
7F80
0FE0
01FC
007E
000E
007E
01FC
0FE0
7F80
FC00
F000
8000
ENDCHAR
STARTCHAR question
ENCODING 63
SWIDTH 556 0
DWIDTH 18 0
BBX 16 23 1 0
BITMAP
07E0
1FF8
3FFC
7C3E
700F
E007
E007
0007
000F
001E
003C
0078
00F0
00E0
01E0
01C0
01C0
01C0
0000
0000
01C0
01C0
01C0
ENDCHAR
STARTCHAR at
ENCODING 64
SWIDTH 1015 0
DWIDTH 32 0
BBX 30 30 2 -7
BITMAP
001FF000
00FFFC00
01FFFF00
07F01F80
0F8007C0
1F0001E0
1E1F1CF0
3C3FBC70
387FF870
70F1F838
71E0F838
71C07838
E1C07038
E3807038
E3807038
E3807070
E380F070
E380E0E0
E3C1E1E0
F1E3E3C0
71FFFF80
70FEFF00
78787C00
3C00001C
1E000078
1F8000F0
07F007E0
03FFFFC0
00FFFF00
001FF800
ENDCHAR
STARTCHAR A
ENCODING 65
SWIDTH 666 0
DWIDTH 21 0
BBX 21 23 0 0
BITMAP
00F800
00F800
00F800
01DC00
01DC00
01DC00
038E00
038E00
070700
070700
070700
0E0380
0E0380
0FFF80
1FFFC0
1FFFC0
3800E0
3800E0
3800E0
700070
700070
700070
E00038
ENDCHAR
STARTCHAR B
ENCODING 66
SWIDTH 666 0
DWIDTH 21 0
BBX 17 23 3 0
BITMAP
FFF000
FFFC00
FFFE00
E01F00
E00700
E00700
E00700
E00700
E01E00
FFFC00
FFFC00
FFFE00
E00F00
E00780
E00380
E00380
E00380
E00380
E00780
E00F00
FFFF00
FFFE00
FFF800
ENDCHAR
STARTCHAR C
ENCODING 67
SWIDTH 722 0
DWIDTH 23 0
BBX 21 23 1 0
BITMAP
01FC00
07FF00
0FFFC0
1F03C0
3C01E0
7800F0
700070
F00000
E00000
E00000
E00000
E00000
E00000
E00000
E00000
700038
700078
780070
3C00F0
1F03E0
0FFFC0
07FF80
01FE00
ENDCHAR
STARTCHAR D
ENCODING 68
SWIDTH 722 0
DWIDTH 23 0
BBX 19 23 3 0
BITMAP
FFF800
FFFE00
FFFF00
E00F80
E00380
E003C0
E001C0
E001E0
E000E0
E000E0
E000E0
E000E0
E000E0
E000E0
E000E0
E001E0
E001C0
E003C0
E00380
E00F80
FFFF00
FFFE00
FFF000
ENDCHAR
STARTCHAR E
ENCODING 69
SWIDTH 666 0
DWIDTH 21 0
BBX 16 23 3 0
BITMAP
FFFE
FFFE
FFFE
E000
E000
E000
E000
E000
E000
FFFC
FFFC
FFFC
E000
E000
E000
E000
E000
E000
E000
E000
FFFF
FFFF
FFFF
ENDCHAR
STARTCHAR F
ENCODING 70
SWIDTH 610 0
DWIDTH 20 0
BBX 16 23 3 0
BITMAP
FFFF
FFFF
FFFF
E000
E000
E000
E000
E000
E000
E000
FFFC
FFFC
FFFC
E000
E000
E000
E000
E000
E000
E000
E000
E000
E000
ENDCHAR
STARTCHAR G
ENCODING 71
SWIDTH 777 0
DWIDTH 25 0
BBX 22 23 1 0
BITMAP
00FF00
07FFC0
0FFFE0
1F01F0
3C0078
780038
70003C
700000
E00000
E00000
E00000
E00FFC
E00FFC
E00FFC
E0001C
70001C
70001C
78001C
3C003C
1F81FC
0FFFF8
03FFE0
00FF00
ENDCHAR
STARTCHAR H
ENCODING 72
SWIDTH 722 0
DWIDTH 23 0
BBX 17 23 3 0
BITMAP
E00380
E00380
E00380
E00380
E00380
E00380
E00380
E00380
E00380
FFFF80
FFFF80
FFFF80
E00380
E00380
E00380
E00380
E00380
E00380
E00380
E00380
E00380
E00380
E00380
ENDCHAR
STARTCHAR I
ENCODING 73
SWIDTH 277 0
DWIDTH 9 0
BBX 3 23 3 0
BITMAP
E0
E0
E0
E0
E0
E0
E0
E0
E0
E0
E0
E0
E0
E0
E0
E0
E0
E0
E0
E0
E0
E0
E0
ENDCHAR
STARTCHAR J
ENCODING 74
SWIDTH 500 0
DWIDTH 16 0
BBX 12 23 1 0
BITMAP
0070
0070
0070
0070
0070
0070
0070
0070
0070
0070
0070
0070
0070
0070
0070
0070
E070
E070
E070
F0E0
7FE0
3FC0
1F80
ENDCHAR
STARTCHAR K
ENCODING 75
SWIDTH 666 0
DWIDTH 21 0
BBX 19 23 3 0
BITMAP
E003C0
E00780
E00F00
E01E00
E03C00
E07800
E0F000
E1E000
E3C000
E78000
EF8000
FFC000
FDE000
F8F000
F0F000
E07800
E03C00
E01E00
E00E00
E00700
E00780
E003C0
E001E0
ENDCHAR
STARTCHAR L
ENCODING 76
SWIDTH 556 0
DWIDTH 18 0
BBX 14 23 3 0
BITMAP
E000
E000
E000
E000
E000
E000
E000
E000
E000
E000
E000
E000
E000
E000
E000
E000
E000
E000
E000
E000
FFFC
FFFC
FFFC
ENDCHAR
STARTCHAR M
ENCODING 77
SWIDTH 833 0
DWIDTH 27 0
BBX 21 23 3 0
BITMAP
F800F8
F800F8
FC01F8
FC01F8
FC01F8
EE03B8
EE03B8
EE03B8
E60338
E70738
E70738
E70738
E38E38
E38E38
E38E38
E18C38
E1DC38
E1DC38
E1DC38
E0D838
E0F838
E0F838
E07038
ENDCHAR
STARTCHAR N
ENCODING 78
SWIDTH 722 0
DWIDTH 23 0
BBX 17 23 3 0
BITMAP
E00380
F00380
F80380
F80380
FC0380
FC0380
EE0380
E70380
E70380
E38380
E38380
E1C380
E0E380
E0E380
E07380
E07380
E03B80
E01F80
E01F80
E00F80
E00F80
E00780
E00380
ENDCHAR
STARTCHAR O
ENCODING 79
SWIDTH 777 0
DWIDTH 25 0
BBX 23 23 1 0
BITMAP
00FE00
07FFC0
0FFFE0
1F01F0
3C0078
78003C
70001C
70001C
E0000E
E0000E
E0000E
E0000E
E0000E
E0000E
E0000E
70001C
70001C
78003C
3C0078
1F01F0
0FFFE0
07FFC0
00FE00
ENDCHAR
STARTCHAR P
ENCODING 80
SWIDTH 666 0
DWIDTH 21 0
BBX 17 23 3 0
BITMAP
FFF800
FFFE00
FFFF00
E00F00
E00780
E00380
E00380
E00380
E00380
E00780
E00F00
FFFF00
FFFE00
FFF800
E00000
E00000
E00000
E00000
E00000
E00000
E00000
E00000
E00000
ENDCHAR
STARTCHAR Q
ENCODING 81
SWIDTH 777 0
DWIDTH 25 0
BBX 23 24 1 -1
BITMAP
00FE00
07FF80
0FFFC0
1F03E0
3C00F0
780078
700038
700038
E0001C
E0001C
E0001C
E0001C
E0001C
E0001C
E0001C
700038
700838
781E78
3C0FF0
1F03E0
0FFFF0
07FFF8
00FE3E
00001C
ENDCHAR
STARTCHAR R
ENCODING 82
SWIDTH 722 0
DWIDTH 23 0
BBX 18 23 3 0
BITMAP
FFF800
FFFE00
FFFF00
E00F00
E00780
E00380
E00380
E00380
E00780
E00F00
FFFF00
FFFE00
FFF800
E0F000
E07800
E03C00
E01C00
E01E00
E00F00
E00700
E00780
E00380
E003C0
ENDCHAR
STARTCHAR S
ENCODING 83
SWIDTH 666 0
DWIDTH 21 0
BBX 18 23 1 0
BITMAP
07F000
1FFC00
3FFE00
3C0F00
780780
700380
700380
700000
380000
3F8000
1FF800
07FE00
007F00
000F80
0003C0
E001C0
E001C0
F001C0
7003C0
7C0F80
3FFF00
1FFE00
03F800
ENDCHAR
STARTCHAR T
ENCODING 84
SWIDTH 610 0
DWIDTH 19 0
BBX 19 23 0 0
BITMAP
FFFFE0
FFFFE0
FFFFE0
00E000
00E000
00E000
00E000
00E000
00E000
00E000
00E000
00E000
00E000
00E000
00E000
00E000
00E000
00E000
00E000
00E000
00E000
00E000
00E000
ENDCHAR
STARTCHAR U
ENCODING 85
SWIDTH 722 0
DWIDTH 23 0
BBX 17 23 3 0
BITMAP
E00380
E00380
E00380
E00380
E00380
E00380
E00380
E00380
E00380
E00380
E00380
E00380
E00380
E00380
E00380
E00380
E00380
F00780
700700
7C1F00
3FFE00
1FFC00
07F000
ENDCHAR
STARTCHAR V
ENCODING 86
SWIDTH 666 0
DWIDTH 21 0
BBX 21 23 0 0
BITMAP
E00038
F00078
700070
700070
3800E0
3800E0
3800E0
1C01C0
1C01C0
1E03C0
0E0380
0E0380
070700
070700
070700
038E00
038E00
03DE00
01DC00
01DC00
01FC00
00F800
00F800
ENDCHAR
STARTCHAR W
ENCODING 87
SWIDTH 943 0
DWIDTH 32 0
BBX 31 23 0 0
BITMAP
E007C00E
E007C00E
7007C01C
700EE01C
700EE01C
700EE01C
701C703C
381C7038
381C7038
381C7038
38383838
1C383870
1C383870
1C701C70
1C701C70
0E701CF0
0EE00EE0
0EE00EE0
0EE00EE0
0EE00EE0
07C007C0
07C007C0
07C007C0
ENDCHAR
STARTCHAR X
ENCODING 88
SWIDTH 666 0
DWIDTH 21 0
BBX 21 23 0 0
BITMAP
7800F0
3C01E0
1C01C0
0E0380
0F0780
078F00
038E00
01DC00
01DC00
00F800
007000
00F800
00F800
01DC00
03DE00
038E00
070700
0F0780
1E03C0
1C01C0
3800E0
7800F0
F00078
ENDCHAR
STARTCHAR Y
ENCODING 89
SWIDTH 666 0
DWIDTH 21 0
BBX 21 23 0 0
BITMAP
E00078
7000F0
3800E0
3C01E0
1C03C0
0E0380
0F0780
078F00
038E00
03DE00
01DC00
00F800
00F800
007000
007000
007000
007000
007000
007000
007000
007000
007000
007000
ENDCHAR
STARTCHAR Z
ENCODING 90
SWIDTH 610 0
DWIDTH 20 0
BBX 19 23 0 0
BITMAP
7FFFC0
7FFFC0
7FFFC0
0003C0
000780
000F00
001E00
001C00
003800
007000
00F000
01E000
03C000
078000
070000
0E0000
1E0000
3C0000
780000
F00000
FFFFE0
FFFFE0
FFFFE0
ENDCHAR
STARTCHAR bracketleft
ENCODING 91
SWIDTH 277 0
DWIDTH 9 0
BBX 6 29 2 -6
BITMAP
FC
FC
FC
E0
E0
E0
E0
E0
E0
E0
E0
E0
E0
E0
E0
E0
E0
E0
E0
E0
E0
E0
E0
E0
E0
E0
FC
FC
FC
ENDCHAR
STARTCHAR backslash
ENCODING 92
SWIDTH 277 0
DWIDTH 9 0
BBX 9 23 1 0
BITMAP
C000
C000
6000
6000
6000
3000
3000
3000
1800
1800
1800
1C00
0C00
0C00
0C00
0600
0600
0600
0300
0300
0300
0380
0180
ENDCHAR
STARTCHAR bracketright
ENCODING 93
SWIDTH 277 0
DWIDTH 9 0
BBX 6 29 1 -6
BITMAP
FC
FC
FC
1C
1C
1C
1C
1C
1C
1C
1C
1C
1C
1C
1C
1C
1C
1C
1C
1C
1C
1C
1C
1C
1C
1C
FC
FC
FC
ENDCHAR
STARTCHAR asciicircum
ENCODING 94
SWIDTH 469 0
DWIDTH 14 0
BBX 12 12 1 11
BITMAP
0600
0F00
0F00
0F00
1F80
1980
39C0
39C0
70E0
70E0
70E0
E070
ENDCHAR
STARTCHAR underscore
ENCODING 95
SWIDTH 556 0
DWIDTH 18 0
BBX 19 3 -1 -6
BITMAP
FFFFE0
FFFFE0
FFFFE0
ENDCHAR
STARTCHAR grave
ENCODING 96
SWIDTH 333 0
DWIDTH 11 0
BBX 6 4 1 19
BITMAP
F0
78
38
1C
ENDCHAR
STARTCHAR a
ENCODING 97
SWIDTH 556 0
DWIDTH 17 0
BBX 15 17 1 0
BITMAP
0FE0
3FF8
7FF8
F03C
E01C
001C
007C
0FFC
3FFC
7F9C
F01C
E01C
E03C
F0FC
7FFC
7FDC
1F8E
ENDCHAR
STARTCHAR b
ENCODING 98
SWIDTH 556 0
DWIDTH 17 0
BBX 14 23 2 0
BITMAP
E000
E000
E000
E000
E000
E000
E7C0
EFE0
FFF0
F878
F038
F01C
E01C
E01C
E01C
E01C
E01C
E03C
F038
F878
FFF0
EFE0
E7C0
ENDCHAR
STARTCHAR c
ENCODING 99
SWIDTH 500 0
DWIDTH 16 0
BBX 14 17 1 0
BITMAP
0780
1FE0
3FF0
7878
7038
E01C
E000
E000
E000
E000
E000
E01C
703C
7878
3FF8
1FF0
0FC0
ENDCHAR
STARTCHAR d
ENCODING 100
SWIDTH 556 0
DWIDTH 17 0
BBX 14 23 1 0
BITMAP
001C
001C
001C
001C
001C
001C
0F9C
1FDC
3FFC
787C
703C
E03C
E01C
E01C
E01C
E01C
E01C
F01C
703C
787C
3FFC
1FDC
0F9C
ENDCHAR
STARTCHAR e
ENCODING 101
SWIDTH 556 0
DWIDTH 17 0
BBX 15 17 1 0
BITMAP
07C0
1FF0
3FF8
783C
701C
E00E
E00E
FFFE
FFFE
E000
E000
F000
700E
7C3C
3FFC
1FF8
07E0
ENDCHAR
STARTCHAR f
ENCODING 102
SWIDTH 277 0
DWIDTH 10 0
BBX 9 23 1 0
BITMAP
0F80
1F80
3F80
3800
3800
3800
FF00
FF00
FF00
3800
3800
3800
3800
3800
3800
3800
3800
3800
3800
3800
3800
3800
3800
ENDCHAR
STARTCHAR g
ENCODING 103
SWIDTH 556 0
DWIDTH 17 0
BBX 14 23 1 -6
BITMAP
0F9C
1FFC
3FFC
787C
703C
E03C
E01C
E01C
E01C
E01C
E01C
E03C
703C
787C
3FFC
1FFC
0F9C
001C
E03C
F078
7FF8
7FF0
1FC0
ENDCHAR
STARTCHAR h
ENCODING 104
SWIDTH 556 0
DWIDTH 18 0
BBX 14 23 2 0
BITMAP
E000
E000
E000
E000
E000
E000
E3E0
EFF8
FFF8
F87C
F03C
E01C
E01C
E01C
E01C
E01C
E01C
E01C
E01C
E01C
E01C
E01C
E01C
ENDCHAR
STARTCHAR i
ENCODING 105
SWIDTH 222 0
DWIDTH 7 0
BBX 3 23 2 0
BITMAP
E0
E0
E0
00
00
00
E0
E0
E0
E0
E0
E0
E0
E0
E0
E0
E0
E0
E0
E0
E0
E0
E0
ENDCHAR
STARTCHAR j
ENCODING 106
SWIDTH 222 0
DWIDTH 7 0
BBX 6 29 -1 -6
BITMAP
1C
1C
1C
00
00
00
1C
1C
1C
1C
1C
1C
1C
1C
1C
1C
1C
1C
1C
1C
1C
1C
1C
1C
1C
1C
FC
F8
F0
ENDCHAR
STARTCHAR k
ENCODING 107
SWIDTH 500 0
DWIDTH 16 0
BBX 14 23 2 0
BITMAP
E000
E000
E000
E000
E000
E000
E03C
E078
E0F0
E1E0
E3C0
E780
EF00
FF00
FF80
F380
E3C0
E1E0
E0E0
E0F0
E070
E038
E03C
ENDCHAR
STARTCHAR l
ENCODING 108
SWIDTH 222 0
DWIDTH 7 0
BBX 3 23 2 0
BITMAP
E0
E0
E0
E0
E0
E0
E0
E0
E0
E0
E0
E0
E0
E0
E0
E0
E0
E0
E0
E0
E0
E0
E0
ENDCHAR
STARTCHAR m
ENCODING 109
SWIDTH 833 0
DWIDTH 27 0
BBX 23 17 2 0
BITMAP
E3C0F0
EFF3FC
FFF7FC
F87E1E
F03C0E
E0380E
E0380E
E0380E
E0380E
E0380E
E0380E
E0380E
E0380E
E0380E
E0380E
E0380E
E0380E
ENDCHAR
STARTCHAR n
ENCODING 110
SWIDTH 556 0
DWIDTH 18 0
BBX 14 17 2 0
BITMAP
E7E0
EFF8
FFF8
F83C
F01C
E01C
E01C
E01C
E01C
E01C
E01C
E01C
E01C
E01C
E01C
E01C
E01C
ENDCHAR
STARTCHAR o
ENCODING 111
SWIDTH 556 0
DWIDTH 17 0
BBX 15 17 1 0
BITMAP
07C0
1FF0
3FF8
783C
701C
F01E
E00E
E00E
E00E
E00E
E00E
F01E
701C
783C
3FF8
1FF0
07C0
ENDCHAR
STARTCHAR p
ENCODING 112
SWIDTH 556 0
DWIDTH 17 0
BBX 14 23 2 -6
BITMAP
E7C0
EFE0
FFF0
F878
F038
F03C
E01C
E01C
E01C
E01C
E01C
E03C
F038
F878
FFF0
EFE0
E7C0
E000
E000
E000
E000
E000
E000
ENDCHAR
STARTCHAR q
ENCODING 113
SWIDTH 556 0
DWIDTH 17 0
BBX 14 23 1 -6
BITMAP
0F9C
3FDC
3FFC
787C
703C
E03C
E01C
E01C
E01C
E01C
E01C
F01C
703C
787C
3FFC
1FDC
0F9C
001C
001C
001C
001C
001C
001C
ENDCHAR
STARTCHAR r
ENCODING 114
SWIDTH 333 0
DWIDTH 11 0
BBX 9 17 2 0
BITMAP
E780
EF80
FF00
F800
F000
E000
E000
E000
E000
E000
E000
E000
E000
E000
E000
E000
E000
ENDCHAR
STARTCHAR s
ENCODING 115
SWIDTH 500 0
DWIDTH 16 0
BBX 14 17 1 0
BITMAP
1F80
3FE0
7FF0
F078
E038
F000
FE00
7FC0
3FF0
07F8
007C
E01C
F01C
783C
7FF8
3FF0
0FC0
ENDCHAR
STARTCHAR t
ENCODING 116
SWIDTH 277 0
DWIDTH 9 0
BBX 8 23 0 0
BITMAP
08
18
38
38
38
38
FF
FF
FF
38
38
38
38
38
38
38
38
38
38
38
3F
3F
1F
ENDCHAR
STARTCHAR u
ENCODING 117
SWIDTH 556 0
DWIDTH 18 0
BBX 14 17 2 0
BITMAP
E01C
E01C
E01C
E01C
E01C
E01C
E01C
E01C
E01C
E01C
E01C
E01C
F03C
F87C
7FDC
7FDC
1F1C
ENDCHAR
STARTCHAR v
ENCODING 118
SWIDTH 500 0
DWIDTH 15 0
BBX 15 17 0 0
BITMAP
E00E
701C
701C
701C
3838
3838
3838
1C70
1C70
1C70
0EE0
0EE0
06C0
06C0
07C0
0380
0380
ENDCHAR
STARTCHAR w
ENCODING 119
SWIDTH 722 0
DWIDTH 23 0
BBX 23 17 0 0
BITMAP
E0380E
E0380E
E07C0E
707C1C
706C1C
706C1C
38EE38
38C638
38C638
18C670
1DC770
1D8370
0D8360
0F83E0
0F83E0
0701C0
0701C0
ENDCHAR
STARTCHAR x
ENCODING 120
SWIDTH 500 0
DWIDTH 14 0
BBX 14 17 0 0
BITMAP
E01C
7038
3870
3870
1CE0
0FC0
0FC0
0780
0780
0780
0FC0
0FC0
1CE0
3870
3870
7038
E01C
ENDCHAR
STARTCHAR y
ENCODING 121
SWIDTH 500 0
DWIDTH 15 0
BBX 15 23 0 -6
BITMAP
E00E
701E
701C
701C
3838
3838
3838
1C70
1C70
0C70
0EE0
0EE0
06E0
07C0
07C0
03C0
0380
0380
0700
0700
3F00
3E00
3C00
ENDCHAR
STARTCHAR z
ENCODING 122
SWIDTH 500 0
DWIDTH 15 0
BBX 14 17 0 0
BITMAP
7FFC
7FFC
7FFC
003C
0078
00F0
01E0
03C0
0780
0F00
1E00
3C00
7800
F000
FFFC
FFFC
FFFC
ENDCHAR
STARTCHAR braceleft
ENCODING 123
SWIDTH 333 0
DWIDTH 11 0
BBX 9 29 1 -6
BITMAP
0780
0F80
1F80
1E00
1C00
1C00
1C00
1C00
1C00
1C00
1C00
3C00
3800
F000
C000
F000
3800
3C00
1C00
1C00
1C00
1C00
1C00
1C00
1C00
1C00
1F80
0F80
0780
ENDCHAR
STARTCHAR bar
ENCODING 124
SWIDTH 259 0
DWIDTH 8 0
BBX 2 30 3 -7
BITMAP
C0
C0
C0
C0
C0
C0
C0
C0
C0
C0
C0
C0
C0
C0
C0
C0
C0
C0
C0
C0
C0
C0
C0
C0
C0
C0
C0
C0
C0
C0
ENDCHAR
STARTCHAR braceright
ENCODING 125
SWIDTH 333 0
DWIDTH 11 0
BBX 9 29 1 -6
BITMAP
F000
F800
FC00
3C00
1C00
1C00
1C00
1C00
1C00
1C00
1C00
1C00
0E00
0780
0380
0780
0E00
1E00
1C00
1C00
1C00
1C00
1C00
1C00
1C00
3C00
FC00
F800
F000
ENDCHAR
STARTCHAR asciitilde
ENCODING 126
SWIDTH 583 0
DWIDTH 19 0
BBX 16 6 1 8
BITMAP
3E00
7F81
FFC3
C3FF
80FE
007C
ENDCHAR
STARTCHAR space.dup1
ENCODING 160
SWIDTH 277 0
DWIDTH 9 0
BBX 1 1 0 0
BITMAP
00
ENDCHAR
STARTCHAR exclamdown
ENCODING 161
SWIDTH 333 0
DWIDTH 11 0
BBX 3 23 4 -6
BITMAP
E0
E0
E0
00
00
40
40
40
40
40
40
E0
E0
E0
E0
E0
E0
E0
E0
E0
E0
E0
E0
ENDCHAR
STARTCHAR cent
ENCODING 162
SWIDTH 556 0
DWIDTH 18 0
BBX 15 29 1 -6
BITMAP
0018
0030
0030
0030
0030
0060
07E0
1FF0
3FF8
78FC
70DC
F1CE
E180
E180
E180
E300
E300
F30E
761E
7E3C
3FF8
1FF0
0FE0
0C00
0C00
1800
1800
1800
3800
ENDCHAR
STARTCHAR sterling
ENCODING 163
SWIDTH 556 0
DWIDTH 18 0
BBX 17 23 0 0
BITMAP
03F000
0FFC00
1FFE00
1E1E00
3C0F00
380700
380000
380000
380000
1C0000
FFE000
FFE000
FFE000
0E0000
0E0000
0E0000
0C0000
1C0000
380000
7FC100
FFFF80
7FFF80
603F00
ENDCHAR
STARTCHAR currency
ENCODING 164
SWIDTH 556 0
DWIDTH 18 0
BBX 15 15 1 3
BITMAP
4004
E7CE
7FFC
3FF8
3C78
783C
701C
701C
701C
783C
3C78
3FF8
7FFC
E7CE
4004
ENDCHAR
STARTCHAR yen
ENCODING 165
SWIDTH 556 0
DWIDTH 18 0
BBX 17 23 0 0
BITMAP
E00380
700700
700700
380E00
380E00
1C1C00
1C1C00
0E3800
0E7800
077000
07F000
7FFF00
7FFF00
7FFF00
01C000
01C000
7FFF00
7FFF00
7FFF00
01C000
01C000
01C000
01C000
ENDCHAR
STARTCHAR brokenbar
ENCODING 166
SWIDTH 259 0
DWIDTH 8 0
BBX 2 30 3 -7
BITMAP
C0
C0
C0
C0
C0
C0
C0
C0
C0
C0
C0
C0
C0
00
00
00
00
00
C0
C0
C0
C0
C0
C0
C0
C0
C0
C0
C0
C0
ENDCHAR
STARTCHAR section
ENCODING 167
SWIDTH 556 0
DWIDTH 18 0
BBX 15 30 1 -7
BITMAP
0FC0
3FF0
3FF8
783C
701C
7000
3800
1E00
3F80
77C0
E1F0
E0F8
E03C
E01E
700E
780E
3E0E
0F1C
07F8
01E0
00F0
0078
003C
701C
701C
381C
3C3C
1FF8
1FF0
07E0
ENDCHAR
STARTCHAR dieresis
ENCODING 168
SWIDTH 333 0
DWIDTH 11 0
BBX 9 3 1 20
BITMAP
E380
E380
E380
ENDCHAR
STARTCHAR copyright
ENCODING 169
SWIDTH 736 0
DWIDTH 24 0
BBX 24 23 0 0
BITMAP
007E00
03FFC0
0F81F0
1E0078
38001C
303E0C
70FF8E
61C386
E180C7
C30003
C30003
C30003
C30003
C30003
E180C7
61C386
60FF0E
303E0C
38001C
1E0078
0F81F0
03FFC0
00FF00
ENDCHAR
STARTCHAR ordfeminine
ENCODING 170
SWIDTH 370 0
DWIDTH 12 0
BBX 10 12 1 11
BITMAP
3E00
7F00
E380
0380
0380
3F80
7B80
E380
E380
E780
FF80
79C0
ENDCHAR
STARTCHAR guillemotleft
ENCODING 171
SWIDTH 556 0
DWIDTH 18 0
BBX 14 14 2 1
BITMAP
071C
0E38
1C70
3CF0
38E0
71C0
E380
E380
71C0
38E0
3CF0
1C70
0E38
071C
ENDCHAR
STARTCHAR logicalnot
ENCODING 172
SWIDTH 583 0
DWIDTH 19 0
BBX 15 9 2 7
BITMAP
FFFE
FFFE
FFFE
000E
000E
000E
000E
000E
000E
ENDCHAR
STARTCHAR hyphen.dup2
ENCODING 173
SWIDTH 333 0
DWIDTH 11 0
BBX 9 3 1 7
BITMAP
FF80
FF80
FF80
ENDCHAR
STARTCHAR registered
ENCODING 174
SWIDTH 736 0
DWIDTH 24 0
BBX 24 23 0 0
BITMAP
007E00
03FFC0
0F81F0
1E0078
38001C
31FE0C
71FF0E
618386
E18187
C18183
C18383
C1FF03
C1FE03
C18C03
E18607
618706
61838E
3181CC
38001C
1E0078
0F81F0
03FFC0
00FF00
ENDCHAR
STARTCHAR overscore
ENCODING 175
SWIDTH 552 0
DWIDTH 18 0
BBX 19 3 -1 24
BITMAP
FFFFE0
FFFFE0
FFFFE0
ENDCHAR
STARTCHAR degree
ENCODING 176
SWIDTH 399 0
DWIDTH 13 0
BBX 9 9 2 14
BITMAP
3E00
7F00
E380
C180
C180
C180
E380
7F00
3E00
ENDCHAR
STARTCHAR plusminus
ENCODING 177
SWIDTH 548 0
DWIDTH 18 0
BBX 15 19 1 0
BITMAP
0380
0380
0380
0380
0380
0380
FFFE
FFFE
FFFE
0380
0380
0380
0380
0380
0380
0000
FFFE
FFFE
FFFE
ENDCHAR
STARTCHAR twosuperior
ENCODING 178
SWIDTH 333 0
DWIDTH 11 0
BBX 10 12 0 11
BITMAP
3F00
7F80
E3C0
01C0
01C0
0380
0700
1E00
3800
7000
7FC0
FFC0
ENDCHAR
STARTCHAR threesuperior
ENCODING 179
SWIDTH 333 0
DWIDTH 11 0
BBX 10 12 0 11
BITMAP
3F00
7FC0
E1C0
01C0
0F00
0F80
01C0
01C0
01C0
E3C0
7F80
3F00
ENDCHAR
STARTCHAR acute
ENCODING 180
SWIDTH 333 0
DWIDTH 11 0
BBX 6 4 4 19
BITMAP
3C
78
70
E0
ENDCHAR
STARTCHAR mu1
ENCODING 181
SWIDTH 576 0
DWIDTH 18 0
BBX 14 23 2 -6
BITMAP
E01C
E01C
E01C
E01C
E01C
E01C
E01C
E01C
E01C
E01C
E01C
E01C
F03C
F87C
FFFC
EFDC
E79C
E000
E000
E000
E000
E000
E000
ENDCHAR
STARTCHAR paragraph
ENCODING 182
SWIDTH 537 0
DWIDTH 17 0
BBX 17 29 0 -6
BITMAP
0FFF80
3FFF80
7FFF80
7F8E00
FF8E00
FF8E00
FF8E00
FF8E00
FF8E00
7F8E00
7F8E00
3F8E00
0F8E00
038E00
038E00
038E00
038E00
038E00
038E00
038E00
038E00
038E00
038E00
038E00
038E00
038E00
038E00
038E00
038E00
ENDCHAR
STARTCHAR middot
ENCODING 183
SWIDTH 333 0
DWIDTH 11 0
BBX 3 3 4 10
BITMAP
E0
E0
E0
ENDCHAR
STARTCHAR cedilla
ENCODING 184
SWIDTH 333 0
DWIDTH 11 0
BBX 6 7 2 -7
BITMAP
30
30
78
0C
0C
FC
F0
ENDCHAR
STARTCHAR onesuperior
ENCODING 185
SWIDTH 333 0
DWIDTH 11 0
BBX 7 12 2 11
BITMAP
0E
1E
7E
FE
EE
8E
0E
0E
0E
0E
0E
0E
ENDCHAR
STARTCHAR ordmasculine
ENCODING 186
SWIDTH 365 0
DWIDTH 12 0
BBX 10 12 1 11
BITMAP
1E00
7F00
7380
E1C0
E1C0
E1C0
E1C0
E1C0
E1C0
7380
7F80
1E00
ENDCHAR
STARTCHAR guillemotright
ENCODING 187
SWIDTH 556 0
DWIDTH 18 0
BBX 14 14 2 1
BITMAP
E380
71C0
38E0
3CF0
1C70
0E38
071C
071C
0E38
1C70
3CF0
38E0
71C0
E380
ENDCHAR
STARTCHAR onequarter
ENCODING 188
SWIDTH 833 0
DWIDTH 27 0
BBX 26 23 1 0
BITMAP
0E001E00
1E001C00
7E003800
FE007000
EE00E000
8E00E000
0E01C000
0E038000
0E070000
0E070000
0E0E0000
0E1C0700
00380F00
00380F00
00701F00
00E03700
01C03700
01C06700
0380C700
0700FFC0
0E00FFC0
0E000700
1C000700
ENDCHAR
STARTCHAR onehalf
ENCODING 189
SWIDTH 833 0
DWIDTH 27 0
BBX 25 23 1 0
BITMAP
0E000E00
1E001C00
7E003800
FE007000
EE007000
8E00E000
0E01C000
0E038000
0E038000
0E070000
0E0E0000
0E1C3E00
001C7F00
0038E380
0070C380
00E00380
00E00700
01C00E00
03801C00
07003800
0F007000
0E00FF80
1C00FF80
ENDCHAR
STARTCHAR threequarters
ENCODING 190
SWIDTH 833 0
DWIDTH 27 0
BBX 26 23 1 0
BITMAP
3F000E00
7FC01C00
E1C03C00
01C03800
0F007000
0F80E000
01C1E000
01C1C000
E1C38000
F3C70000
7F8E0000
3F0E0700
001C0F00
00380F00
00701F00
00703F00
00E03700
01C07700
0380E700
0380FFC0
0700FFC0
0E000700
1C000700
ENDCHAR
STARTCHAR questiondown
ENCODING 191
SWIDTH 610 0
DWIDTH 20 0
BBX 16 23 2 -6
BITMAP
0380
0380
0380
0000
0000
0380
0380
0380
0780
0700
0F00
1E00
3C00
7000
F000
E000
E007
E00F
F00E
783E
7FFC
1FF8
0FE0
ENDCHAR
STARTCHAR Agrave
ENCODING 192
SWIDTH 666 0
DWIDTH 21 0
BBX 21 29 0 0
BITMAP
01E000
00F000
007000
003800
000000
000000
00F800
00F800
00F800
01DC00
01DC00
01DC00
038E00
038E00
070700
070700
070700
0E0380
0E0380
0FFF80
1FFFC0
1FFFC0
3800E0
3800E0
3800E0
700070
700070
700070
E00038
ENDCHAR
STARTCHAR Aacute
ENCODING 193
SWIDTH 666 0
DWIDTH 21 0
BBX 21 29 0 0
BITMAP
001E00
003C00
003800
007000
000000
000000
00F800
00F800
00F800
01DC00
01DC00
01DC00
038E00
038E00
070700
070700
070700
0E0380
0E0380
0FFF80
1FFFC0
1FFFC0
3800E0
3800E0
3800E0
700070
700070
700070
E00038
ENDCHAR
STARTCHAR Acircumflex
ENCODING 194
SWIDTH 666 0
DWIDTH 21 0
BBX 21 29 0 0
BITMAP
007800
00FC00
01CE00
038700
000000
000000
00F800
00F800
00F800
01DC00
01DC00
01DC00
038E00
038E00
070700
070700
070700
0E0380
0E0380
0FFF80
1FFFC0
1FFFC0
3800E0
3800E0
3800E0
700070
700070
700070
E00038
ENDCHAR
STARTCHAR Atilde
ENCODING 195
SWIDTH 666 0
DWIDTH 21 0
BBX 21 29 0 0
BITMAP
01E600
01FE00
03FE00
033C00
000000
000000
00F800
00F800
00F800
01DC00
01DC00
01DC00
038E00
038E00
070700
070700
070700
0E0380
0E0380
0FFF80
1FFFC0
1FFFC0
3800E0
3800E0
3800E0
700070
700070
700070
E00038
ENDCHAR
STARTCHAR Adieresis
ENCODING 196
SWIDTH 666 0
DWIDTH 21 0
BBX 21 28 0 0
BITMAP
038E00
038E00
038E00
000000
000000
00F800
00F800
00F800
01DC00
01DC00
01DC00
038E00
038E00
070700
070700
070700
0E0380
0E0380
0FFF80
1FFFC0
1FFFC0
3800E0
3800E0
3800E0
700070
700070
700070
E00038
ENDCHAR
STARTCHAR Aring
ENCODING 197
SWIDTH 666 0
DWIDTH 21 0
BBX 21 27 0 0
BITMAP
007000
008800
008800
008800
00F800
00F800
00F800
01DC00
01DC00
01DC00
038E00
038E00
070700
070700
070700
0E0380
0E0380
0FFF80
1FFFC0
1FFFC0
3800E0
3800E0
3800E0
700070
700070
700070
E00038
ENDCHAR
STARTCHAR AE
ENCODING 198
SWIDTH 1000 0
DWIDTH 32 0
BBX 30 23 0 0
BITMAP
003FFFF8
003FFFF8
007FFFF8
0071C000
0071C000
00E1C000
00E1C000
01C1C000
01C1C000
0381FFF0
0381FFF0
0701FFF0
0701C000
0E01C000
0FFFC000
1FFFC000
1FFFC000
3801C000
3801C000
7001C000
7001FFFC
E001FFFC
E001FFFC
ENDCHAR
STARTCHAR Ccedilla
ENCODING 199
SWIDTH 722 0
DWIDTH 23 0
BBX 21 30 1 -7
BITMAP
01FC00
07FF00
0FFFC0
1F03C0
3C01E0
7800F0
700070
F00000
E00000
E00000
E00000
E00000
E00000
E00000
E00000
700038
700078
780070
3C00F0
1F03E0
0FFFC0
07FF80
01FE00
006000
006000
00F000
001800
001800
01F800
01E000
ENDCHAR
STARTCHAR Egrave
ENCODING 200
SWIDTH 666 0
DWIDTH 21 0
BBX 16 29 3 0
BITMAP
0F00
0780
0380
01C0
0000
0000
FFFE
FFFE
FFFE
E000
E000
E000
E000
E000
E000
FFFC
FFFC
FFFC
E000
E000
E000
E000
E000
E000
E000
E000
FFFF
FFFF
FFFF
ENDCHAR
STARTCHAR Eacute
ENCODING 201
SWIDTH 666 0
DWIDTH 21 0
BBX 16 29 3 0
BITMAP
01E0
03C0
0380
0700
0000
0000
FFFE
FFFE
FFFE
E000
E000
E000
E000
E000
E000
FFFC
FFFC
FFFC
E000
E000
E000
E000
E000
E000
E000
E000
FFFF
FFFF
FFFF
ENDCHAR
STARTCHAR Ecircumflex
ENCODING 202
SWIDTH 666 0
DWIDTH 21 0
BBX 16 29 3 0
BITMAP
03C0
07E0
0E70
1C38
0000
0000
FFFE
FFFE
FFFE
E000
E000
E000
E000
E000
E000
FFFC
FFFC
FFFC
E000
E000
E000
E000
E000
E000
E000
E000
FFFF
FFFF
FFFF
ENDCHAR
STARTCHAR Edieresis
ENCODING 203
SWIDTH 666 0
DWIDTH 21 0
BBX 16 28 3 0
BITMAP
1C70
1C70
1C70
0000
0000
FFFE
FFFE
FFFE
E000
E000
E000
E000
E000
E000
FFFC
FFFC
FFFC
E000
E000
E000
E000
E000
E000
E000
E000
FFFF
FFFF
FFFF
ENDCHAR
STARTCHAR Igrave
ENCODING 204
SWIDTH 277 0
DWIDTH 9 0
BBX 6 29 1 0
BITMAP
F0
78
38
1C
00
00
38
38
38
38
38
38
38
38
38
38
38
38
38
38
38
38
38
38
38
38
38
38
38
ENDCHAR
STARTCHAR Iacute
ENCODING 205
SWIDTH 277 0
DWIDTH 9 0
BBX 6 29 2 0
BITMAP
3C
78
70
E0
00
00
70
70
70
70
70
70
70
70
70
70
70
70
70
70
70
70
70
70
70
70
70
70
70
ENDCHAR
STARTCHAR Icircumflex
ENCODING 206
SWIDTH 277 0
DWIDTH 9 0
BBX 10 29 0 0
BITMAP
1E00
3F00
7380
E1C0
0000
0000
1C00
1C00
1C00
1C00
1C00
1C00
1C00
1C00
1C00
1C00
1C00
1C00
1C00
1C00
1C00
1C00
1C00
1C00
1C00
1C00
1C00
1C00
1C00
ENDCHAR
STARTCHAR Idieresis
ENCODING 207
SWIDTH 277 0
DWIDTH 9 0
BBX 9 28 0 0
BITMAP
E380
E380
E380
0000
0000
1C00
1C00
1C00
1C00
1C00
1C00
1C00
1C00
1C00
1C00
1C00
1C00
1C00
1C00
1C00
1C00
1C00
1C00
1C00
1C00
1C00
1C00
1C00
ENDCHAR
STARTCHAR Eth
ENCODING 208
SWIDTH 722 0
DWIDTH 23 0
BBX 21 23 0 0
BITMAP
1FFE00
1FFF80
1FFFC0
1C03E0
1C00F0
1C0070
1C0070
1C0038
1C0038
1C0038
FFF038
FFF038
FFF038
1C0038
1C0038
1C0078
1C0070
1C0070
1C00E0
1C03E0
1FFFC0
1FFF80
1FFE00
ENDCHAR
STARTCHAR Ntilde
ENCODING 209
SWIDTH 722 0
DWIDTH 23 0
BBX 17 29 3 0
BITMAP
079800
07F800
0FF800
0CF000
000000
000000
E00380
F00380
F80380
F80380
FC0380
FC0380
EE0380
E70380
E70380
E38380
E38380
E1C380
E0E380
E0E380
E07380
E07380
E03B80
E01F80
E01F80
E00F80
E00F80
E00780
E00380
ENDCHAR
STARTCHAR Ograve
ENCODING 210
SWIDTH 777 0
DWIDTH 25 0
BBX 23 29 1 0
BITMAP
00F000
007800
003800
001C00
000000
000000
00FE00
07FFC0
0FFFE0
1F01F0
3C0078
78003C
70001C
70001C
E0000E
E0000E
E0000E
E0000E
E0000E
E0000E
E0000E
70001C
70001C
78003C
3C0078
1F01F0
0FFFE0
07FFC0
00FE00
ENDCHAR
STARTCHAR Oacute
ENCODING 211
SWIDTH 777 0
DWIDTH 25 0
BBX 23 29 1 0
BITMAP
001E00
003C00
003800
007000
000000
000000
00FE00
07FFC0
0FFFE0
1F01F0
3C0078
78003C
70001C
70001C
E0000E
E0000E
E0000E
E0000E
E0000E
E0000E
E0000E
70001C
70001C
78003C
3C0078
1F01F0
0FFFE0
07FFC0
00FE00
ENDCHAR
STARTCHAR Ocircumflex
ENCODING 212
SWIDTH 777 0
DWIDTH 25 0
BBX 23 29 1 0
BITMAP
003E00
007E00
00E700
01C380
000000
000000
00FE00
07FFC0
0FFFE0
1F01F0
3C0078
78003C
70001C
70001C
E0000E
E0000E
E0000E
E0000E
E0000E
E0000E
E0000E
70001C
70001C
78003C
3C0078
1F01F0
0FFFE0
07FFC0
00FE00
ENDCHAR
STARTCHAR Otilde
ENCODING 213
SWIDTH 777 0
DWIDTH 25 0
BBX 23 29 1 0
BITMAP
00F300
00FF00
01FF00
019E00
000000
000000
00FE00
07FFC0
0FFFE0
1F01F0
3C0078
78003C
70001C
70001C
E0000E
E0000E
E0000E
E0000E
E0000E
E0000E
E0000E
70001C
70001C
78003C
3C0078
1F01F0
0FFFE0
07FFC0
00FE00
ENDCHAR
STARTCHAR Odieresis
ENCODING 214
SWIDTH 777 0
DWIDTH 25 0
BBX 23 28 1 0
BITMAP
01C700
01C700
01C700
000000
000000
00FE00
07FFC0
0FFFE0
1F01F0
3C0078
78003C
70001C
70001C
E0000E
E0000E
E0000E
E0000E
E0000E
E0000E
E0000E
70001C
70001C
78003C
3C0078
1F01F0
0FFFE0
07FFC0
00FE00
ENDCHAR
STARTCHAR multiply
ENCODING 215
SWIDTH 583 0
DWIDTH 19 0
BBX 12 13 3 4
BITMAP
4020
E070
F0F0
79E0
3FC0
1F80
0F00
1F80
3FC0
79E0
F0F0
E070
4020
ENDCHAR
STARTCHAR Oslash
ENCODING 216
SWIDTH 777 0
DWIDTH 25 0
BBX 23 24 1 -1
BITMAP
00FE06
07FF8E
0FFFFC
1F01F8
3C0078
7800F8
7001DC
70039C
E0070E
E00E0E
E01C0E
E0380E
E0780E
E0700E
E0E00E
71C01C
73801C
3F003C
3E0078
1F01F0
3FFFE0
77FFC0
E0FE00
400000
ENDCHAR
STARTCHAR Ugrave
ENCODING 217
SWIDTH 722 0
DWIDTH 23 0
BBX 17 29 3 0
BITMAP
078000
03C000
01C000
00E000
000000
000000
E00380
E00380
E00380
E00380
E00380
E00380
E00380
E00380
E00380
E00380
E00380
E00380
E00380
E00380
E00380
E00380
E00380
F00780
700700
7C1F00
3FFE00
1FFC00
07F000
ENDCHAR
STARTCHAR Uacute
ENCODING 218
SWIDTH 722 0
DWIDTH 23 0
BBX 17 29 3 0
BITMAP
00F000
01E000
01C000
038000
000000
000000
E00380
E00380
E00380
E00380
E00380
E00380
E00380
E00380
E00380
E00380
E00380
E00380
E00380
E00380
E00380
E00380
E00380
F00780
700700
7C1F00
3FFE00
1FFC00
07F000
ENDCHAR
STARTCHAR Ucircumflex
ENCODING 219
SWIDTH 722 0
DWIDTH 23 0
BBX 17 29 3 0
BITMAP
01E000
03F000
073800
0E1C00
000000
000000
E00380
E00380
E00380
E00380
E00380
E00380
E00380
E00380
E00380
E00380
E00380
E00380
E00380
E00380
E00380
E00380
E00380
F00780
700700
7C1F00
3FFE00
1FFC00
07F000
ENDCHAR
STARTCHAR Udieresis
ENCODING 220
SWIDTH 722 0
DWIDTH 23 0
BBX 17 28 3 0
BITMAP
0E3800
0E3800
0E3800
000000
000000
E00380
E00380
E00380
E00380
E00380
E00380
E00380
E00380
E00380
E00380
E00380
E00380
E00380
E00380
E00380
E00380
E00380
F00780
700700
7C1F00
3FFE00
1FFC00
07F000
ENDCHAR
STARTCHAR Yacute
ENCODING 221
SWIDTH 666 0
DWIDTH 21 0
BBX 21 29 0 0
BITMAP
001E00
003C00
003800
007000
000000
000000
E00078
7000F0
3800E0
3C01E0
1C03C0
0E0380
0F0780
078F00
038E00
03DE00
01DC00
00F800
00F800
007000
007000
007000
007000
007000
007000
007000
007000
007000
007000
ENDCHAR
STARTCHAR Thorn
ENCODING 222
SWIDTH 666 0
DWIDTH 21 0
BBX 17 23 3 0
BITMAP
E00000
E00000
E00000
E00000
FFF800
FFFE00
FFFF00
E00F00
E00780
E00380
E00380
E00380
E00380
E00380
E00700
E00F00
FFFE00
FFFC00
FFF800
E00000
E00000
E00000
E00000
ENDCHAR
STARTCHAR germandbls
ENCODING 223
SWIDTH 610 0
DWIDTH 20 0
BBX 16 23 2 0
BITMAP
0FC0
3FE0
7FF0
7878
F038
E038
E078
E070
E0E0
E1E0
E1C0
E1C0
E1F0
E0F8
E03E
E00E
E007
E007
E607
EF0F
E7FE
E3FC
E1F8
ENDCHAR
STARTCHAR agrave
ENCODING 224
SWIDTH 556 0
DWIDTH 17 0
BBX 15 23 1 0
BITMAP
0F00
0780
0380
01C0
0000
0000
0FE0
3FF8
7FF8
F03C
E01C
001C
007C
0FFC
3FFC
7F9C
F01C
E01C
E03C
F0FC
7FFC
7FDC
1F8E
ENDCHAR
STARTCHAR aacute
ENCODING 225
SWIDTH 556 0
DWIDTH 17 0
BBX 15 23 1 0
BITMAP
00F0
01E0
01C0
0380
0000
0000
0FE0
3FF8
7FF8
F03C
E01C
001C
007C
0FFC
3FFC
7F9C
F01C
E01C
E03C
F0FC
7FFC
7FDC
1F8E
ENDCHAR
STARTCHAR acircumflex
ENCODING 226
SWIDTH 556 0
DWIDTH 17 0
BBX 15 23 1 0
BITMAP
0F80
1FC0
3DE0
78F0
0000
0000
0FE0
3FF8
7FF8
F03C
E01C
001C
007C
0FFC
3FFC
7F9C
F01C
E01C
E03C
F0FC
7FFC
7FDC
1F8E
ENDCHAR
STARTCHAR atilde
ENCODING 227
SWIDTH 556 0
DWIDTH 17 0
BBX 15 23 1 0
BITMAP
0F30
0FF0
1FF0
19E0
0000
0000
0FE0
3FF8
7FF8
F03C
E01C
001C
007C
0FFC
3FFC
7F9C
F01C
E01C
E03C
F0FC
7FFC
7FDC
1F8E
ENDCHAR
STARTCHAR adieresis
ENCODING 228
SWIDTH 556 0
DWIDTH 17 0
BBX 15 22 1 0
BITMAP
1C70
1C70
1C70
0000
0000
0FE0
3FF8
7FF8
F03C
E01C
001C
007C
0FFC
3FFC
7F9C
F01C
E01C
E03C
F0FC
7FFC
7FDC
1F8E
ENDCHAR
STARTCHAR aring
ENCODING 229
SWIDTH 556 0
DWIDTH 17 0
BBX 15 24 1 0
BITMAP
0380
0440
0440
0440
0380
0000
0000
0FE0
3FF8
7FF8
F03C
E01C
001C
007C
0FFC
3FFC
7F9C
F01C
E01C
E03C
F0FC
7FFC
7FDC
1F8E
ENDCHAR
STARTCHAR ae
ENCODING 230
SWIDTH 889 0
DWIDTH 28 0
BBX 26 17 1 0
BITMAP
0FE0F800
3FFBFE00
7FFFFF00
F03F0780
E01E0380
007C01C0
0FFFFFC0
3FFFFFC0
7F9FFFC0
F81C0000
E01C0000
E01C0000
E03E01C0
F07F0780
7FF7FF80
3FE3FF00
1F80FC00
ENDCHAR
STARTCHAR ccedilla
ENCODING 231
SWIDTH 500 0
DWIDTH 16 0
BBX 14 24 1 -7
BITMAP
0780
1FE0
3FF0
7878
7038
E01C
E000
E000
E000
E000
E000
E01C
703C
7878
3FF8
1FF0
0FC0
0300
0300
0780
00C0
00C0
0FC0
0F00
ENDCHAR
STARTCHAR egrave
ENCODING 232
SWIDTH 556 0
DWIDTH 17 0
BBX 15 23 1 0
BITMAP
0F00
0780
0380
01C0
0000
0000
07C0
1FF0
3FF8
783C
701C
E00E
E00E
FFFE
FFFE
E000
E000
F000
700E
7C3C
3FFC
1FF8
07E0
ENDCHAR
STARTCHAR eacute
ENCODING 233
SWIDTH 556 0
DWIDTH 17 0
BBX 15 23 1 0
BITMAP
00F0
01E0
01C0
0380
0000
0000
07C0
1FF0
3FF8
783C
701C
E00E
E00E
FFFE
FFFE
E000
E000
F000
700E
7C3C
3FFC
1FF8
07E0
ENDCHAR
STARTCHAR ecircumflex
ENCODING 234
SWIDTH 556 0
DWIDTH 17 0
BBX 15 23 1 0
BITMAP
07C0
0FE0
1EF0
3C78
0000
0000
07C0
1FF0
3FF8
783C
701C
E00E
E00E
FFFE
FFFE
E000
E000
F000
700E
7C3C
3FFC
1FF8
07E0
ENDCHAR
STARTCHAR edieresis
ENCODING 235
SWIDTH 556 0
DWIDTH 17 0
BBX 15 22 1 0
BITMAP
1C70
1C70
1C70
0000
0000
07C0
1FF0
3FF8
783C
701C
E00E
E00E
FFFE
FFFE
E000
E000
F000
700E
7C3C
3FFC
1FF8
07E0
ENDCHAR
STARTCHAR igrave
ENCODING 236
SWIDTH 277 0
DWIDTH 9 0
BBX 6 23 1 0
BITMAP
F0
78
38
1C
00
00
38
38
38
38
38
38
38
38
38
38
38
38
38
38
38
38
38
ENDCHAR
STARTCHAR iacute
ENCODING 237
SWIDTH 277 0
DWIDTH 9 0
BBX 6 23 2 0
BITMAP
3C
78
70
E0
00
00
70
70
70
70
70
70
70
70
70
70
70
70
70
70
70
70
70
ENDCHAR
STARTCHAR icircumflex
ENCODING 238
SWIDTH 277 0
DWIDTH 9 0
BBX 10 23 -1 0
BITMAP
1F00
3F80
7BC0
E1C0
0000
0000
0E00
0E00
0E00
0E00
0E00
0E00
0E00
0E00
0E00
0E00
0E00
0E00
0E00
0E00
0E00
0E00
0E00
ENDCHAR
STARTCHAR idieresis
ENCODING 239
SWIDTH 277 0
DWIDTH 9 0
BBX 9 22 0 0
BITMAP
E380
E380
E380
0000
0000
1C00
1C00
1C00
1C00
1C00
1C00
1C00
1C00
1C00
1C00
1C00
1C00
1C00
1C00
1C00
1C00
1C00
ENDCHAR
STARTCHAR eth
ENCODING 240
SWIDTH 556 0
DWIDTH 18 0
BBX 16 23 1 0
BITMAP
0F08
03BC
01F0
07E0
1E70
0838
07FC
1FFC
3FFE
7C3E
700E
F00F
E007
E007
E007
E007
E007
F00F
700E
7C3E
3FFC
1FF8
07E0
ENDCHAR
STARTCHAR ntilde
ENCODING 241
SWIDTH 556 0
DWIDTH 18 0
BBX 14 23 2 0
BITMAP
0F30
0FF0
1FF0
19E0
0000
0000
E7E0
EFF8
FFF8
F83C
F01C
E01C
E01C
E01C
E01C
E01C
E01C
E01C
E01C
E01C
E01C
E01C
E01C
ENDCHAR
STARTCHAR ograve
ENCODING 242
SWIDTH 556 0
DWIDTH 17 0
BBX 15 23 1 0
BITMAP
0F00
0780
0380
01C0
0000
0000
07C0
1FF0
3FF8
783C
701C
F01E
E00E
E00E
E00E
E00E
E00E
F01E
701C
783C
3FF8
1FF0
07C0
ENDCHAR
STARTCHAR oacute
ENCODING 243
SWIDTH 556 0
DWIDTH 17 0
BBX 15 23 1 0
BITMAP
00F0
01E0
01C0
0380
0000
0000
07C0
1FF0
3FF8
783C
701C
F01E
E00E
E00E
E00E
E00E
E00E
F01E
701C
783C
3FF8
1FF0
07C0
ENDCHAR
STARTCHAR ocircumflex
ENCODING 244
SWIDTH 556 0
DWIDTH 17 0
BBX 15 23 1 0
BITMAP
07C0
0FE0
1EF0
3C78
0000
0000
07C0
1FF0
3FF8
783C
701C
F01E
E00E
E00E
E00E
E00E
E00E
F01E
701C
783C
3FF8
1FF0
07C0
ENDCHAR
STARTCHAR otilde
ENCODING 245
SWIDTH 556 0
DWIDTH 17 0
BBX 15 23 1 0
BITMAP
0F30
0FF0
1FF0
19E0
0000
0000
07C0
1FF0
3FF8
783C
701C
F01E
E00E
E00E
E00E
E00E
E00E
F01E
701C
783C
3FF8
1FF0
07C0
ENDCHAR
STARTCHAR odieresis
ENCODING 246
SWIDTH 556 0
DWIDTH 17 0
BBX 15 22 1 0
BITMAP
1C70
1C70
1C70
0000
0000
07C0
1FF0
3FF8
783C
701C
F01E
E00E
E00E
E00E
E00E
E00E
F01E
701C
783C
3FF8
1FF0
07C0
ENDCHAR
STARTCHAR divide
ENCODING 247
SWIDTH 548 0
DWIDTH 18 0
BBX 15 13 1 5
BITMAP
0380
0380
0380
0000
0000
FFFE
FFFE
FFFE
0000
0000
0380
0380
0380
ENDCHAR
STARTCHAR oslash
ENCODING 248
SWIDTH 610 0
DWIDTH 20 0
BBX 16 19 2 -1
BITMAP
0006
07C7
1FFE
3FFC
7C3E
707E
F07F
E0E7
E1C7
E387
E707
E707
EE0F
FC0E
783E
7FFC
7FF8
E7E0
4000
ENDCHAR
STARTCHAR ugrave
ENCODING 249
SWIDTH 556 0
DWIDTH 18 0
BBX 14 23 2 0
BITMAP
1E00
0F00
0700
0380
0000
0000
E01C
E01C
E01C
E01C
E01C
E01C
E01C
E01C
E01C
E01C
E01C
E01C
F03C
F87C
7FDC
7FDC
1F1C
ENDCHAR
STARTCHAR uacute
ENCODING 250
SWIDTH 556 0
DWIDTH 18 0
BBX 14 23 2 0
BITMAP
01E0
03C0
0380
0700
0000
0000
E01C
E01C
E01C
E01C
E01C
E01C
E01C
E01C
E01C
E01C
E01C
E01C
F03C
F87C
7FDC
7FDC
1F1C
ENDCHAR
STARTCHAR ucircumflex
ENCODING 251
SWIDTH 556 0
DWIDTH 18 0
BBX 14 23 2 0
BITMAP
0780
0FC0
1CE0
3870
0000
0000
E01C
E01C
E01C
E01C
E01C
E01C
E01C
E01C
E01C
E01C
E01C
E01C
F03C
F87C
7FDC
7FDC
1F1C
ENDCHAR
STARTCHAR udieresis
ENCODING 252
SWIDTH 556 0
DWIDTH 18 0
BBX 14 22 2 0
BITMAP
38E0
38E0
38E0
0000
0000
E01C
E01C
E01C
E01C
E01C
E01C
E01C
E01C
E01C
E01C
E01C
E01C
F03C
F87C
7FDC
7FDC
1F1C
ENDCHAR
STARTCHAR yacute
ENCODING 253
SWIDTH 500 0
DWIDTH 15 0
BBX 15 29 0 -6
BITMAP
00F0
01E0
01C0
0380
0000
0000
E00E
701E
701C
701C
3838
3838
3838
1C70
1C70
0C70
0EE0
0EE0
06E0
07C0
07C0
03C0
0380
0380
0700
0700
3F00
3E00
3C00
ENDCHAR
STARTCHAR thorn
ENCODING 254
SWIDTH 556 0
DWIDTH 18 0
BBX 15 29 2 -6
BITMAP
E000
E000
E000
E000
E000
E000
E7C0
EFF0
FFF8
F87C
F01C
E01E
E00E
E00E
E00E
E00E
E00E
E01E
F01C
F87C
FFF8
EFF0
E7C0
E000
E000
E000
E000
E000
E000
ENDCHAR
STARTCHAR ydieresis
ENCODING 255
SWIDTH 500 0
DWIDTH 15 0
BBX 15 28 0 -6
BITMAP
1C70
1C70
1C70
0000
0000
E00E
701E
701C
701C
3838
3838
3838
1C70
1C70
0C70
0EE0
0EE0
06E0
07C0
07C0
03C0
0380
0380
0700
0700
3F00
3E00
3C00
ENDCHAR
STARTCHAR Amacron
ENCODING 256
SWIDTH 666 0
DWIDTH 21 0
BBX 21 28 0 0
BITMAP
03FF00
03FF00
03FF00
000000
000000
00F800
00F800
00F800
01DC00
01DC00
01DC00
038E00
038E00
070700
070700
070700
0E0380
0E0380
0FFF80
1FFFC0
1FFFC0
3800E0
3800E0
3800E0
700070
700070
700070
E00038
ENDCHAR
STARTCHAR amacron
ENCODING 257
SWIDTH 556 0
DWIDTH 17 0
BBX 15 22 1 0
BITMAP
3FF0
3FF0
3FF0
0000
0000
0FE0
3FF8
7FF8
F03C
E01C
001C
007C
0FFC
3FFC
7F9C
F01C
E01C
E03C
F0FC
7FFC
7FDC
1F8E
ENDCHAR
STARTCHAR Abreve
ENCODING 258
SWIDTH 666 0
DWIDTH 21 0
BBX 21 29 0 0
BITMAP
030600
038E00
01FC00
00F800
000000
000000
00F800
00F800
00F800
01DC00
01DC00
01DC00
038E00
038E00
070700
070700
070700
0E0380
0E0380
0FFF80
1FFFC0
1FFFC0
3800E0
3800E0
3800E0
700070
700070
700070
E00038
ENDCHAR
STARTCHAR abreve
ENCODING 259
SWIDTH 556 0
DWIDTH 17 0
BBX 15 23 1 0
BITMAP
1830
1C70
0FE0
07C0
0000
0000
0FE0
3FF8
7FF8
F03C
E01C
001C
007C
0FFC
3FFC
7F9C
F01C
E01C
E03C
F0FC
7FFC
7FDC
1F8E
ENDCHAR
STARTCHAR Aogonek
ENCODING 260
SWIDTH 666 0
DWIDTH 21 0
BBX 22 29 0 -6
BITMAP
00F800
00F800
00F800
01DC00
01DC00
01DC00
038E00
038E00
070700
070700
070700
0E0380
0E0380
0FFF80
1FFFC0
1FFFC0
3800E0
3800E0
3800E0
700070
700070
700070
E00038
000010
000020
000060
000060
00007C
00003C
ENDCHAR
STARTCHAR aogonek
ENCODING 261
SWIDTH 556 0
DWIDTH 17 0
BBX 15 23 1 -6
BITMAP
0FE0
3FF8
7FF8
F03C
E01C
001C
007C
0FFC
3FFC
7F9C
F01C
E01C
E03C
F0FC
7FFC
7FDC
1F8E
000C
0018
0010
0038
001E
000E
ENDCHAR
STARTCHAR Cacute
ENCODING 262
SWIDTH 722 0
DWIDTH 23 0
BBX 21 29 1 0
BITMAP
003C00
007800
007000
00E000
000000
000000
01FC00
07FF00
0FFFC0
1F03C0
3C01E0
7800F0
700070
F00000
E00000
E00000
E00000
E00000
E00000
E00000
E00000
700038
700078
780070
3C00F0
1F03E0
0FFFC0
07FF80
01FE00
ENDCHAR
STARTCHAR cacute
ENCODING 263
SWIDTH 500 0
DWIDTH 16 0
BBX 14 23 1 0
BITMAP
01E0
03C0
0380
0700
0000
0000
0780
1FE0
3FF0
7878
7038
E01C
E000
E000
E000
E000
E000
E01C
703C
7878
3FF8
1FF0
0FC0
ENDCHAR
STARTCHAR Ccircumflex
ENCODING 264
SWIDTH 722 0
DWIDTH 23 0
BBX 21 29 1 0
BITMAP
00F800
01FC00
01DE00
038700
000000
000000
01FC00
07FF00
0FFFC0
1F03C0
3C01E0
7800F0
700070
F00000
E00000
E00000
E00000
E00000
E00000
E00000
E00000
700038
700078
780070
3C00F0
1F03E0
0FFFC0
07FF80
01FE00
ENDCHAR
STARTCHAR ccircumflex
ENCODING 265
SWIDTH 500 0
DWIDTH 16 0
BBX 14 23 1 0
BITMAP
07C0
07E0
0E70
1C38
0000
0000
0780
1FE0
3FF0
7878
7038
E01C
E000
E000
E000
E000
E000
E01C
703C
7878
3FF8
1FF0
0FC0
ENDCHAR
STARTCHAR Cdotaccent
ENCODING 266
SWIDTH 722 0
DWIDTH 23 0
BBX 21 28 1 0
BITMAP
007000
007000
007000
000000
000000
01FC00
07FF00
0FFFC0
1F03C0
3C01E0
7800F0
700070
F00000
E00000
E00000
E00000
E00000
E00000
E00000
E00000
700038
700078
780070
3C00F0
1F03E0
0FFFC0
07FF80
01FE00
ENDCHAR
STARTCHAR cdotaccent
ENCODING 267
SWIDTH 500 0
DWIDTH 16 0
BBX 14 22 1 0
BITMAP
0380
0380
0380
0000
0000
0780
1FE0
3FF0
7878
7038
E01C
E000
E000
E000
E000
E000
E01C
703C
7878
3FF8
1FF0
0FC0
ENDCHAR
STARTCHAR Ccaron
ENCODING 268
SWIDTH 722 0
DWIDTH 23 0
BBX 21 29 1 0
BITMAP
038700
01DE00
01FC00
00F800
000000
000000
01FC00
07FF00
0FFFC0
1F03C0
3C01E0
7800F0
700070
F00000
E00000
E00000
E00000
E00000
E00000
E00000
E00000
700038
700078
780070
3C00F0
1F03E0
0FFFC0
07FF80
01FE00
ENDCHAR
STARTCHAR ccaron
ENCODING 269
SWIDTH 500 0
DWIDTH 16 0
BBX 14 23 1 0
BITMAP
3870
1EE0
0FC0
07C0
0000
0000
0780
1FE0
3FF0
7878
7038
E01C
E000
E000
E000
E000
E000
E01C
703C
7878
3FF8
1FF0
0FC0
ENDCHAR
STARTCHAR Dcaron
ENCODING 270
SWIDTH 722 0
DWIDTH 23 0
BBX 19 29 3 0
BITMAP
1C3800
0E7000
07E000
03C000
000000
000000
FFF800
FFFE00
FFFF00
E00F80
E00380
E003C0
E001C0
E001E0
E000E0
E000E0
E000E0
E000E0
E000E0
E000E0
E000E0
E001E0
E001C0
E003C0
E00380
E00F80
FFFF00
FFFE00
FFF000
ENDCHAR
STARTCHAR dcaron
ENCODING 271
SWIDTH 614 0
DWIDTH 20 0
BBX 18 23 1 0
BITMAP
001DC0
001DC0
001DC0
001C40
001C40
001C80
0F9D80
1FDC00
3FFC00
787C00
703C00
E03C00
E01C00
E01C00
E01C00
E01C00
E01C00
F01C00
703C00
787C00
3FFC00
1FDC00
0F9C00
ENDCHAR
STARTCHAR Dcroat
ENCODING 272
SWIDTH 722 0
DWIDTH 23 0
BBX 21 23 0 0
BITMAP
1FFE00
1FFF80
1FFFC0
1C03E0
1C00F0
1C0070
1C0070
1C0038
1C0038
1C0038
FFF038
FFF038
FFF038
1C0038
1C0038
1C0078
1C0070
1C0070
1C00E0
1C03E0
1FFFC0
1FFF80
1FFE00
ENDCHAR
STARTCHAR dcroat
ENCODING 273
SWIDTH 556 0
DWIDTH 18 0
BBX 16 23 1 0
BITMAP
001C
001C
03FF
03FF
001C
001C
0F9C
1FDC
3FFC
787C
703C
E03C
E01C
E01C
E01C
E01C
E01C
F01C
703C
787C
3FFC
1FDC
0F9C
ENDCHAR
STARTCHAR Emacron
ENCODING 274
SWIDTH 666 0
DWIDTH 21 0
BBX 16 28 3 0
BITMAP
1FF8
1FF8
1FF8
0000
0000
FFFE
FFFE
FFFE
E000
E000
E000
E000
E000
E000
FFFC
FFFC
FFFC
E000
E000
E000
E000
E000
E000
E000
E000
FFFF
FFFF
FFFF
ENDCHAR
STARTCHAR emacron
ENCODING 275
SWIDTH 556 0
DWIDTH 17 0
BBX 15 22 1 0
BITMAP
3FF8
3FF8
3FF8
0000
0000
07C0
1FF0
3FF8
783C
701C
E00E
E00E
FFFE
FFFE
E000
E000
F000
700E
7C3C
3FFC
1FF8
07E0
ENDCHAR
STARTCHAR Ebreve
ENCODING 276
SWIDTH 666 0
DWIDTH 21 0
BBX 16 29 3 0
BITMAP
0C18
0E38
07F0
03E0
0000
0000
FFFE
FFFE
FFFE
E000
E000
E000
E000
E000
E000
FFFC
FFFC
FFFC
E000
E000
E000
E000
E000
E000
E000
E000
FFFF
FFFF
FFFF
ENDCHAR
STARTCHAR ebreve
ENCODING 277
SWIDTH 556 0
DWIDTH 17 0
BBX 15 23 1 0
BITMAP
1830
1C70
0FE0
07C0
0000
0000
07C0
1FF0
3FF8
783C
701C
E00E
E00E
FFFE
FFFE
E000
E000
F000
700E
7C3C
3FFC
1FF8
07E0
ENDCHAR
STARTCHAR Edotaccent
ENCODING 278
SWIDTH 666 0
DWIDTH 21 0
BBX 16 28 3 0
BITMAP
0380
0380
0380
0000
0000
FFFE
FFFE
FFFE
E000
E000
E000
E000
E000
E000
FFFC
FFFC
FFFC
E000
E000
E000
E000
E000
E000
E000
E000
FFFF
FFFF
FFFF
ENDCHAR
STARTCHAR edotaccent
ENCODING 279
SWIDTH 556 0
DWIDTH 17 0
BBX 15 22 1 0
BITMAP
0380
0380
0380
0000
0000
07C0
1FF0
3FF8
783C
701C
E00E
E00E
FFFE
FFFE
E000
E000
F000
700E
7C3C
3FFC
1FF8
07E0
ENDCHAR
STARTCHAR Eogonek
ENCODING 280
SWIDTH 666 0
DWIDTH 21 0
BBX 16 29 3 -6
BITMAP
FFFE
FFFE
FFFE
E000
E000
E000
E000
E000
E000
FFFC
FFFC
FFFC
E000
E000
E000
E000
E000
E000
E000
E000
FFFF
FFFF
FFFF
0004
0008
0018
0018
001F
000F
ENDCHAR
STARTCHAR eogonek
ENCODING 281
SWIDTH 556 0
DWIDTH 17 0
BBX 15 23 1 -6
BITMAP
07C0
1FF0
3FF8
783C
701C
E00E
E00E
FFFE
FFFE
E000
E000
F000
700E
7C3C
3FFC
1FF8
07E0
0040
0080
0180
0180
01F0
00F0
ENDCHAR
STARTCHAR Ecaron
ENCODING 282
SWIDTH 666 0
DWIDTH 21 0
BBX 16 29 3 0
BITMAP
1C38
0E70
07E0
03C0
0000
0000
FFFE
FFFE
FFFE
E000
E000
E000
E000
E000
E000
FFFC
FFFC
FFFC
E000
E000
E000
E000
E000
E000
E000
E000
FFFF
FFFF
FFFF
ENDCHAR
STARTCHAR ecaron
ENCODING 283
SWIDTH 556 0
DWIDTH 17 0
BBX 15 23 1 0
BITMAP
1C38
0E70
07E0
03C0
0000
0000
07C0
1FF0
3FF8
783C
701C
E00E
E00E
FFFE
FFFE
E000
E000
F000
700E
7C3C
3FFC
1FF8
07E0
ENDCHAR
STARTCHAR Gcircumflex
ENCODING 284
SWIDTH 777 0
DWIDTH 25 0
BBX 22 29 1 0
BITMAP
003C00
007E00
00E700
01C380
000000
000000
00FF00
07FFC0
0FFFE0
1F01F0
3C0078
780038
70003C
700000
E00000
E00000
E00000
E00FFC
E00FFC
E00FFC
E0001C
70001C
70001C
78001C
3C003C
1F81FC
0FFFF8
03FFE0
00FF00
ENDCHAR
STARTCHAR gcircumflex
ENCODING 285
SWIDTH 556 0
DWIDTH 17 0
BBX 14 29 1 -6
BITMAP
07C0
0FC0
1EE0
3870
0000
0000
0F9C
1FFC
3FFC
787C
703C
E03C
E01C
E01C
E01C
E01C
E01C
E03C
703C
787C
3FFC
1FFC
0F9C
001C
E03C
F078
7FF8
7FF0
1FC0
ENDCHAR
STARTCHAR Gbreve
ENCODING 286
SWIDTH 777 0
DWIDTH 25 0
BBX 22 29 1 0
BITMAP
018300
01C700
00FE00
007C00
000000
000000
00FF00
07FFC0
0FFFE0
1F01F0
3C0078
780038
70003C
700000
E00000
E00000
E00000
E00FFC
E00FFC
E00FFC
E0001C
70001C
70001C
78001C
3C003C
1F81FC
0FFFF8
03FFE0
00FF00
ENDCHAR
STARTCHAR gbreve
ENCODING 287
SWIDTH 556 0
DWIDTH 17 0
BBX 14 29 1 -6
BITMAP
1830
1C70
0FE0
07C0
0000
0000
0F9C
1FFC
3FFC
787C
703C
E03C
E01C
E01C
E01C
E01C
E01C
E03C
703C
787C
3FFC
1FFC
0F9C
001C
E03C
F078
7FF8
7FF0
1FC0
ENDCHAR
STARTCHAR Gdotaccent
ENCODING 288
SWIDTH 777 0
DWIDTH 25 0
BBX 22 28 1 0
BITMAP
003800
003800
003800
000000
000000
00FF00
07FFC0
0FFFE0
1F01F0
3C0078
780038
70003C
700000
E00000
E00000
E00000
E00FFC
E00FFC
E00FFC
E0001C
70001C
70001C
78001C
3C003C
1F81FC
0FFFF8
03FFE0
00FF00
ENDCHAR
STARTCHAR gdotaccent
ENCODING 289
SWIDTH 556 0
DWIDTH 17 0
BBX 14 28 1 -6
BITMAP
0380
0380
0380
0000
0000
0F9C
1FFC
3FFC
787C
703C
E03C
E01C
E01C
E01C
E01C
E01C
E03C
703C
787C
3FFC
1FFC
0F9C
001C
E03C
F078
7FF8
7FF0
1FC0
ENDCHAR
STARTCHAR Gcommaaccent
ENCODING 290
SWIDTH 777 0
DWIDTH 25 0
BBX 22 30 1 -7
BITMAP
00FF00
07FFC0
0FFFE0
1F01F0
3C0078
780038
70003C
700000
E00000
E00000
E00000
E00FFC
E00FFC
E00FFC
E0001C
70001C
70001C
78001C
3C003C
1F81FC
0FFFF8
03FFE0
00FF00
000000
007800
007E00
000E00
000E00
00FE00
00F800
ENDCHAR
STARTCHAR gcommaaccent
ENCODING 291
SWIDTH 556 0
DWIDTH 18 0
BBX 14 30 1 -6
BITMAP
0180
0300
0600
0700
0700
0700
0000
0F9C
1FFC
3FFC
787C
703C
E03C
E01C
E01C
E01C
E01C
E01C
E03C
703C
787C
3FFC
1FFC
0F9C
001C
E03C
F078
7FF8
7FF0
1FC0
ENDCHAR
STARTCHAR Hcircumflex
ENCODING 292
SWIDTH 722 0
DWIDTH 23 0
BBX 17 29 3 0
BITMAP
03E000
07F000
077800
0E1C00
000000
000000
E00380
E00380
E00380
E00380
E00380
E00380
E00380
E00380
E00380
FFFF80
FFFF80
FFFF80
E00380
E00380
E00380
E00380
E00380
E00380
E00380
E00380
E00380
E00380
E00380
ENDCHAR
STARTCHAR hcircumflex
ENCODING 293
SWIDTH 556 0
DWIDTH 18 0
BBX 14 29 2 0
BITMAP
03C0
07E0
0E70
1C38
0000
0000
E000
E000
E000
E000
E000
E000
E3E0
EFF8
FFF8
F87C
F03C
E01C
E01C
E01C
E01C
E01C
E01C
E01C
E01C
E01C
E01C
E01C
E01C
ENDCHAR
STARTCHAR Hbar
ENCODING 294
SWIDTH 722 0
DWIDTH 23 0
BBX 21 23 1 0
BITMAP
3800E0
3800E0
FFFFF8
FFFFF8
FFFFF8
3800E0
3800E0
3800E0
3800E0
3FFFE0
3FFFE0
3FFFE0
3800E0
3800E0
3800E0
3800E0
3800E0
3800E0
3800E0
3800E0
3800E0
3800E0
3800E0
ENDCHAR
STARTCHAR hbar
ENCODING 295
SWIDTH 556 0
DWIDTH 18 0
BBX 16 23 0 0
BITMAP
3800
3800
FFE0
FFE0
3800
3800
39F8
3BFE
3FFE
3E1F
3C0F
3807
3807
3807
3807
3807
3807
3807
3807
3807
3807
3807
3807
ENDCHAR
STARTCHAR Itilde
ENCODING 296
SWIDTH 277 0
DWIDTH 9 0
BBX 9 29 0 0
BITMAP
7180
FF80
FF00
CF00
0000
0000
1C00
1C00
1C00
1C00
1C00
1C00
1C00
1C00
1C00
1C00
1C00
1C00
1C00
1C00
1C00
1C00
1C00
1C00
1C00
1C00
1C00
1C00
1C00
ENDCHAR
STARTCHAR itilde
ENCODING 297
SWIDTH 277 0
DWIDTH 9 0
BBX 9 23 0 0
BITMAP
3980
7F80
FF80
CF00
0000
0000
1C00
1C00
1C00
1C00
1C00
1C00
1C00
1C00
1C00
1C00
1C00
1C00
1C00
1C00
1C00
1C00
1C00
ENDCHAR
STARTCHAR Imacron
ENCODING 298
SWIDTH 277 0
DWIDTH 9 0
BBX 10 28 0 0
BITMAP
FFC0
FFC0
FFC0
0000
0000
1C00
1C00
1C00
1C00
1C00
1C00
1C00
1C00
1C00
1C00
1C00
1C00
1C00
1C00
1C00
1C00
1C00
1C00
1C00
1C00
1C00
1C00
1C00
ENDCHAR
STARTCHAR imacron
ENCODING 299
SWIDTH 277 0
DWIDTH 9 0
BBX 10 22 0 0
BITMAP
FFC0
FFC0
FFC0
0000
0000
1C00
1C00
1C00
1C00
1C00
1C00
1C00
1C00
1C00
1C00
1C00
1C00
1C00
1C00
1C00
1C00
1C00
ENDCHAR
STARTCHAR Ibreve
ENCODING 300
SWIDTH 277 0
DWIDTH 9 0
BBX 9 29 0 0
BITMAP
C180
6380
7F00
3E00
0000
0000
1C00
1C00
1C00
1C00
1C00
1C00
1C00
1C00
1C00
1C00
1C00
1C00
1C00
1C00
1C00
1C00
1C00
1C00
1C00
1C00
1C00
1C00
1C00
ENDCHAR
STARTCHAR ibreve
ENCODING 301
SWIDTH 277 0
DWIDTH 9 0
BBX 9 23 0 0
BITMAP
C180
6380
7F00
3E00
0000
0000
1C00
1C00
1C00
1C00
1C00
1C00
1C00
1C00
1C00
1C00
1C00
1C00
1C00
1C00
1C00
1C00
1C00
ENDCHAR
STARTCHAR Iogonek
ENCODING 302
SWIDTH 277 0
DWIDTH 9 0
BBX 5 29 2 -6
BITMAP
70
70
70
70
70
70
70
70
70
70
70
70
70
70
70
70
70
70
70
70
70
70
70
20
40
C0
C0
F8
78
ENDCHAR
STARTCHAR iogonek
ENCODING 303
SWIDTH 222 0
DWIDTH 7 0
BBX 5 29 0 -6
BITMAP
38
38
38
00
00
00
38
38
38
38
38
38
38
38
38
38
38
38
38
38
38
38
38
20
60
C0
E0
F8
78
ENDCHAR
STARTCHAR Idotaccent
ENCODING 304
SWIDTH 277 0
DWIDTH 9 0
BBX 3 28 3 0
BITMAP
E0
E0
E0
00
00
E0
E0
E0
E0
E0
E0
E0
E0
E0
E0
E0
E0
E0
E0
E0
E0
E0
E0
E0
E0
E0
E0
E0
ENDCHAR
STARTCHAR dotlessi
ENCODING 305
SWIDTH 277 0
DWIDTH 9 0
BBX 3 17 3 0
BITMAP
E0
E0
E0
E0
E0
E0
E0
E0
E0
E0
E0
E0
E0
E0
E0
E0
E0
ENDCHAR
STARTCHAR IJ
ENCODING 306
SWIDTH 734 0
DWIDTH 24 0
BBX 17 23 3 0
BITMAP
E00380
E00380
E00380
E00380
E00380
E00380
E00380
E00380
E00380
E00380
E00380
E00380
E00380
E00380
E00380
E00380
E70380
E70380
E70380
E78700
E3FF00
E1FE00
E0FC00
ENDCHAR
STARTCHAR ij
ENCODING 307
SWIDTH 443 0
DWIDTH 14 0
BBX 10 29 2 -6
BITMAP
E1C0
E1C0
E1C0
0000
0000
0000
E1C0
E1C0
E1C0
E1C0
E1C0
E1C0
E1C0
E1C0
E1C0
E1C0
E1C0
E1C0
E1C0
E1C0
E1C0
E1C0
E1C0
01C0
01C0
01C0
0FC0
0F80
0F00
ENDCHAR
STARTCHAR Jcircumflex
ENCODING 308
SWIDTH 500 0
DWIDTH 16 0
BBX 16 29 1 0
BITMAP
0078
00FC
01CE
0387
0000
0000
0070
0070
0070
0070
0070
0070
0070
0070
0070
0070
0070
0070
0070
0070
0070
0070
E070
E070
E070
F0E0
7FE0
3FC0
1F80
ENDCHAR
STARTCHAR jcircumflex
ENCODING 309
SWIDTH 222 0
DWIDTH 7 0
BBX 10 29 -1 -6
BITMAP
1E00
3F00
7380
E1C0
0000
0000
1C00
1C00
1C00
1C00
1C00
1C00
1C00
1C00
1C00
1C00
1C00
1C00
1C00
1C00
1C00
1C00
1C00
1C00
1C00
3C00
FC00
F800
F000
ENDCHAR
STARTCHAR Kcommaaccent
ENCODING 310
SWIDTH 666 0
DWIDTH 21 0
BBX 19 30 3 -7
BITMAP
E003C0
E00780
E00F00
E01E00
E03C00
E07800
E0F000
E1E000
E3C000
E78000
EF8000
FFC000
FDE000
F8F000
F0F000
E07800
E03C00
E01E00
E00E00
E00700
E00780
E003C0
E001E0
000000
01E000
01F800
003800
003800
03F800
03E000
ENDCHAR
STARTCHAR kcommaaccent
ENCODING 311
SWIDTH 500 0
DWIDTH 16 0
BBX 14 30 2 -7
BITMAP
E000
E000
E000
E000
E000
E000
E03C
E078
E0F0
E1E0
E3C0
E780
EF00
FF00
FF80
F380
E3C0
E1E0
E0E0
E0F0
E070
E038
E03C
0000
0780
07C0
01C0
01C0
0FC0
0F80
ENDCHAR
STARTCHAR kgreenlandic
ENCODING 312
SWIDTH 500 0
DWIDTH 16 0
BBX 13 17 2 0
BITMAP
E070
E0E0
E1E0
E1C0
E380
E700
EE00
FF00
F700
F380
E380
E1C0
E0E0
E0E0
E070
E038
E038
ENDCHAR
STARTCHAR Lacute
ENCODING 313
SWIDTH 556 0
DWIDTH 18 0
BBX 14 29 3 0
BITMAP
0780
0F00
0E00
1C00
0000
0000
E000
E000
E000
E000
E000
E000
E000
E000
E000
E000
E000
E000
E000
E000
E000
E000
E000
E000
E000
E000
FFFC
FFFC
FFFC
ENDCHAR
STARTCHAR lacute
ENCODING 314
SWIDTH 222 0
DWIDTH 7 0
BBX 6 29 1 0
BITMAP
3C
78
70
E0
00
00
70
70
70
70
70
70
70
70
70
70
70
70
70
70
70
70
70
70
70
70
70
70
70
ENDCHAR
STARTCHAR Lcommaaccent
ENCODING 315
SWIDTH 556 0
DWIDTH 18 0
BBX 14 30 3 -7
BITMAP
E000
E000
E000
E000
E000
E000
E000
E000
E000
E000
E000
E000
E000
E000
E000
E000
E000
E000
E000
E000
FFFC
FFFC
FFFC
0000
0F80
0FC0
01C0
01C0
1FC0
1F80
ENDCHAR
STARTCHAR lcommaaccent
ENCODING 316
SWIDTH 222 0
DWIDTH 7 0
BBX 7 30 0 -7
BITMAP
38
38
38
38
38
38
38
38
38
38
38
38
38
38
38
38
38
38
38
38
38
38
38
00
78
7E
0E
0E
FE
FC
ENDCHAR
STARTCHAR Lcaron
ENCODING 317
SWIDTH 556 0
DWIDTH 18 0
BBX 14 23 3 0
BITMAP
E070
E070
E070
E030
E030
E030
E060
E040
E000
E000
E000
E000
E000
E000
E000
E000
E000
E000
E000
E000
FFFC
FFFC
FFFC
ENDCHAR
STARTCHAR lcaron
ENCODING 318
SWIDTH 291 0
DWIDTH 9 0
BBX 7 23 2 0
BITMAP
EE
EE
EE
E6
E6
E6
EC
E0
E0
E0
E0
E0
E0
E0
E0
E0
E0
E0
E0
E0
E0
E0
E0
ENDCHAR
STARTCHAR Ldot
ENCODING 319
SWIDTH 556 0
DWIDTH 18 0
BBX 14 23 3 0
BITMAP
E000
E000
E000
E000
E000
E000
E000
E000
E000
E000
E070
E070
E070
E000
E000
E000
E000
E000
E000
E000
FFFC
FFFC
FFFC
ENDCHAR
STARTCHAR ldot
ENCODING 320
SWIDTH 333 0
DWIDTH 11 0
BBX 8 23 2 0
BITMAP
E0
E0
E0
E0
E0
E0
E0
E0
E0
E0
E7
E7
E7
E0
E0
E0
E0
E0
E0
E0
E0
E0
E0
ENDCHAR
STARTCHAR Lslash
ENCODING 321
SWIDTH 556 0
DWIDTH 18 0
BBX 17 23 0 0
BITMAP
1C0000
1C0000
1C0000
1C0000
1C0000
1C2000
1C6000
1DE000
1FC000
1F8000
1E0000
3C0000
7C0000
FC0000
DC0000
9C0000
1C0000
1C0000
1C0000
1C0000
1FFF80
1FFF80
1FFF80
ENDCHAR
STARTCHAR lslash
ENCODING 322
SWIDTH 222 0
DWIDTH 7 0
BBX 7 23 0 0
BITMAP
38
38
38
38
38
38
38
3A
3E
3E
3C
78
F8
F8
B8
38
38
38
38
38
38
38
38
ENDCHAR
STARTCHAR Nacute
ENCODING 323
SWIDTH 722 0
DWIDTH 23 0
BBX 17 29 3 0
BITMAP
007800
00F000
00E000
01C000
000000
000000
E00380
F00380
F80380
F80380
FC0380
FC0380
EE0380
E70380
E70380
E38380
E38380
E1C380
E0E380
E0E380
E07380
E07380
E03B80
E01F80
E01F80
E00F80
E00F80
E00780
E00380
ENDCHAR
STARTCHAR nacute
ENCODING 324
SWIDTH 556 0
DWIDTH 18 0
BBX 14 23 2 0
BITMAP
00F0
01E0
01C0
0380
0000
0000
E7E0
EFF8
FFF8
F83C
F01C
E01C
E01C
E01C
E01C
E01C
E01C
E01C
E01C
E01C
E01C
E01C
E01C
ENDCHAR
STARTCHAR Ncommaaccent
ENCODING 325
SWIDTH 722 0
DWIDTH 23 0
BBX 17 30 3 -7
BITMAP
E00380
F00380
F80380
F80380
FC0380
FC0380
EE0380
E70380
E70380
E38380
E38380
E1C380
E0E380
E0E380
E07380
E07380
E03B80
E01F80
E01F80
E00F80
E00F80
E00780
E00380
000000
01E000
01F000
007800
007800
03F000
03E000
ENDCHAR
STARTCHAR ncommaaccent
ENCODING 326
SWIDTH 556 0
DWIDTH 18 0
BBX 14 24 2 -7
BITMAP
E7E0
EFF8
FFF8
F83C
F01C
E01C
E01C
E01C
E01C
E01C
E01C
E01C
E01C
E01C
E01C
E01C
E01C
0000
0780
07C0
00E0
00E0
0FC0
0F80
ENDCHAR
STARTCHAR Ncaron
ENCODING 327
SWIDTH 722 0
DWIDTH 23 0
BBX 17 29 3 0
BITMAP
0E1C00
077800
03F000
03E000
000000
000000
E00380
F00380
F80380
F80380
FC0380
FC0380
EE0380
E70380
E70380
E38380
E38380
E1C380
E0E380
E0E380
E07380
E07380
E03B80
E01F80
E01F80
E00F80
E00F80
E00780
E00380
ENDCHAR
STARTCHAR ncaron
ENCODING 328
SWIDTH 556 0
DWIDTH 18 0
BBX 14 23 2 0
BITMAP
3C78
1EF0
0FE0
07C0
0000
0000
E7E0
EFF8
FFF8
F83C
F01C
E01C
E01C
E01C
E01C
E01C
E01C
E01C
E01C
E01C
E01C
E01C
E01C
ENDCHAR
STARTCHAR napostrophe
ENCODING 329
SWIDTH 604 0
DWIDTH 19 0
BBX 18 23 0 0
BITMAP
E00000
E00000
E00000
600000
600000
600000
4E7E00
CEFF80
0FFF80
0F83C0
0F01C0
0E01C0
0E01C0
0E01C0
0E01C0
0E01C0
0E01C0
0E01C0
0E01C0
0E01C0
0E01C0
0E01C0
0E01C0
ENDCHAR
STARTCHAR Eng
ENCODING 330
SWIDTH 723 0
DWIDTH 23 0
BBX 18 23 3 0
BITMAP
E3F800
EFFE00
FFFF00
FC0F00
F80780
F00380
F003C0
E001C0
E001C0
E001C0
E001C0
E001C0
E001C0
E001C0
E001C0
E001C0
E00380
E00380
E00780
E00F00
E1FF00
E1FE00
E0F800
ENDCHAR
STARTCHAR eng
ENCODING 331
SWIDTH 556 0
DWIDTH 18 0
BBX 14 23 2 -6
BITMAP
E7E0
EFF8
FFF8
F83C
F03C
E01C
E01C
E01C
E01C
E01C
E01C
E01C
E01C
E01C
E01C
E01C
E01C
001C
001C
001C
00FC
00F8
00F0
ENDCHAR
STARTCHAR Omacron
ENCODING 332
SWIDTH 777 0
DWIDTH 25 0
BBX 23 28 1 0
BITMAP
03FF00
03FF00
03FF00
000000
000000
00FE00
07FFC0
0FFFE0
1F01F0
3C0078
78003C
70001C
70001C
E0000E
E0000E
E0000E
E0000E
E0000E
E0000E
E0000E
70001C
70001C
78003C
3C0078
1F01F0
0FFFE0
07FFC0
00FE00
ENDCHAR
STARTCHAR omacron
ENCODING 333
SWIDTH 556 0
DWIDTH 17 0
BBX 15 22 1 0
BITMAP
1FF8
1FF8
1FF8
0000
0000
07C0
1FF0
3FF8
783C
701C
F01E
E00E
E00E
E00E
E00E
E00E
F01E
701C
783C
3FF8
1FF0
07C0
ENDCHAR
STARTCHAR Obreve
ENCODING 334
SWIDTH 777 0
DWIDTH 25 0
BBX 23 29 1 0
BITMAP
030600
038E00
01FC00
00F800
000000
000000
00FE00
07FFC0
0FFFE0
1F01F0
3C0078
78003C
70001C
70001C
E0000E
E0000E
E0000E
E0000E
E0000E
E0000E
E0000E
70001C
70001C
78003C
3C0078
1F01F0
0FFFE0
07FFC0
00FE00
ENDCHAR
STARTCHAR obreve
ENCODING 335
SWIDTH 556 0
DWIDTH 17 0
BBX 15 23 1 0
BITMAP
0C38
0C30
07F0
03C0
0000
0000
07C0
1FF0
3FF8
783C
701C
F01E
E00E
E00E
E00E
E00E
E00E
F01E
701C
783C
3FF8
1FF0
07C0
ENDCHAR
STARTCHAR Ohungarumlaut
ENCODING 336
SWIDTH 777 0
DWIDTH 25 0
BBX 23 29 1 0
BITMAP
0039C0
007380
006300
00C600
000000
000000
00FE00
07FFC0
0FFFE0
1F01F0
3C0078
78003C
70001C
70001C
E0000E
E0000E
E0000E
E0000E
E0000E
E0000E
E0000E
70001C
70001C
78003C
3C0078
1F01F0
0FFFE0
07FFC0
00FE00
ENDCHAR
STARTCHAR ohungarumlaut
ENCODING 337
SWIDTH 556 0
DWIDTH 17 0
BBX 15 23 1 0
BITMAP
0738
0E70
0C60
18C0
0000
0000
07C0
1FF0
3FF8
783C
701C
F01E
E00E
E00E
E00E
E00E
E00E
F01E
701C
783C
3FF8
1FF0
07C0
ENDCHAR
STARTCHAR OE
ENCODING 338
SWIDTH 1000 0
DWIDTH 32 0
BBX 29 23 2 0
BITMAP
03F1FFF0
0FF9FFF0
1FFDFFF0
3E1FC000
7807C000
7003C000
7003C000
E001C000
E001C000
E001FFE0
E001FFE0
E001FFE0
E001C000
E001C000
E001C000
E003C000
7003C000
7003C000
7807C000
3E1FC000
1FFDFFF8
0FF9FFF8
03F1FFF8
ENDCHAR
STARTCHAR oe
ENCODING 339
SWIDTH 943 0
DWIDTH 30 0
BBX 28 17 1 0
BITMAP
07E03E00
1FF8FF80
3FFDFFC0
7C3FC1E0
700F80E0
F00F0070
E007FFF0
E007FFF0
E007FFF0
E0070000
E0070000
F00F8000
700F80F0
7C3DE1E0
3FFDFFE0
1FF0FFC0
07E03F00
ENDCHAR
STARTCHAR Racute
ENCODING 340
SWIDTH 722 0
DWIDTH 23 0
BBX 18 29 3 0
BITMAP
01E000
03C000
038000
070000
000000
000000
FFF800
FFFE00
FFFF00
E00F00
E00780
E00380
E00380
E00380
E00780
E00F00
FFFF00
FFFE00
FFF800
E0F000
E07800
E03C00
E01C00
E01E00
E00F00
E00700
E00780
E00380
E003C0
ENDCHAR
STARTCHAR racute
ENCODING 341
SWIDTH 333 0
DWIDTH 11 0
BBX 9 23 2 0
BITMAP
0F00
1E00
1C00
3800
0000
0000
E780
EF80
FF00
F800
F000
E000
E000
E000
E000
E000
E000
E000
E000
E000
E000
E000
E000
ENDCHAR
STARTCHAR Rcommaaccent
ENCODING 342
SWIDTH 722 0
DWIDTH 23 0
BBX 18 30 3 -7
BITMAP
FFF800
FFFE00
FFFF00
E00F00
E00780
E00380
E00380
E00380
E00780
E00F00
FFFF00
FFFE00
FFF800
E0F000
E07800
E03C00
E01C00
E01E00
E00F00
E00700
E00780
E00380
E003C0
000000
01E000
01F000
007800
007800
03F000
03E000
ENDCHAR
STARTCHAR rcommaaccent
ENCODING 343
SWIDTH 333 0
DWIDTH 11 0
BBX 9 24 2 -7
BITMAP
E780
EF80
FF00
F800
F000
E000
E000
E000
E000
E000
E000
E000
E000
E000
E000
E000
E000
0000
7800
7C00
1E00
1E00
FC00
F800
ENDCHAR
STARTCHAR Rcaron
ENCODING 344
SWIDTH 722 0
DWIDTH 23 0
BBX 18 29 3 0
BITMAP
387000
1CE000
0FC000
078000
000000
000000
FFF800
FFFE00
FFFF00
E00F00
E00780
E00380
E00380
E00380
E00780
E00F00
FFFF00
FFFE00
FFF800
E0F000
E07800
E03C00
E01C00
E01E00
E00F00
E00700
E00780
E00380
E003C0
ENDCHAR
STARTCHAR rcaron
ENCODING 345
SWIDTH 333 0
DWIDTH 11 0
BBX 10 23 2 0
BITMAP
E1C0
7380
3F00
1E00
0000
0000
E780
EF80
FF00
F800
F000
E000
E000
E000
E000
E000
E000
E000
E000
E000
E000
E000
E000
ENDCHAR
STARTCHAR Sacute
ENCODING 346
SWIDTH 666 0
DWIDTH 21 0
BBX 18 29 1 0
BITMAP
007800
00F000
00E000
01C000
000000
000000
07F000
1FFC00
3FFE00
3C0F00
780780
700380
700380
700000
380000
3F8000
1FF800
07FE00
007F00
000F80
0003C0
E001C0
E001C0
F001C0
7003C0
7C0F80
3FFF00
1FFE00
03F800
ENDCHAR
STARTCHAR sacute
ENCODING 347
SWIDTH 500 0
DWIDTH 16 0
BBX 14 23 1 0
BITMAP
03C0
0780
0700
0E00
0000
0000
1F80
3FE0
7FF0
F078
E038
F000
FE00
7FC0
3FF0
07F8
007C
E01C
F01C
783C
7FF8
3FF0
0FC0
ENDCHAR
STARTCHAR Scircumflex
ENCODING 348
SWIDTH 666 0
DWIDTH 21 0
BBX 18 29 1 0
BITMAP
01F000
03F800
07B800
0E1C00
000000
000000
07F000
1FFC00
3FFE00
3C0F00
780780
700380
700380
700000
380000
3F8000
1FF800
07FE00
007F00
000F80
0003C0
E001C0
E001C0
F001C0
7003C0
7C0F80
3FFF00
1FFE00
03F800
ENDCHAR
STARTCHAR scircumflex
ENCODING 349
SWIDTH 500 0
DWIDTH 16 0
BBX 14 23 1 0
BITMAP
0780
0FC0
1CE0
3870
0000
0000
1F80
3FE0
7FF0
F078
E038
F000
FE00
7FC0
3FF0
07F8
007C
E01C
F01C
783C
7FF8
3FF0
0FC0
ENDCHAR
STARTCHAR Scedilla
ENCODING 350
SWIDTH 666 0
DWIDTH 21 0
BBX 18 30 1 -7
BITMAP
07F000
1FFC00
3FFE00
3C0F00
780780
700380
700380
700000
380000
3F8000
1FF800
07FE00
007F00
000F80
0003C0
E001C0
E001C0
F001C0
7003C0
7C0F80
3FFF00
1FFE00
03F800
00C000
00C000
01E000
003000
003000
03F000
03C000
ENDCHAR
STARTCHAR scedilla
ENCODING 351
SWIDTH 500 0
DWIDTH 16 0
BBX 14 24 1 -7
BITMAP
1F80
3FE0
7FF0
F078
E038
F000
FE00
7FC0
3FF0
07F8
007C
E01C
F01C
783C
7FF8
3FF0
0FC0
0300
0300
0780
00C0
00C0
0FC0
0F00
ENDCHAR
STARTCHAR Scaron
ENCODING 352
SWIDTH 666 0
DWIDTH 21 0
BBX 18 29 1 0
BITMAP
0E1C00
073800
03F000
01E000
000000
000000
07F000
1FFC00
3FFE00
3C0F00
780780
700380
700380
700000
380000
3F8000
1FF800
07FE00
007F00
000F80
0003C0
E001C0
E001C0
F001C0
7003C0
7C0F80
3FFF00
1FFE00
03F800
ENDCHAR
STARTCHAR scaron
ENCODING 353
SWIDTH 500 0
DWIDTH 16 0
BBX 14 23 1 0
BITMAP
70E0
39C0
1F80
0F00
0000
0000
1F80
3FE0
7FF0
F078
E038
F000
FE00
7FC0
3FF0
07F8
007C
E01C
F01C
783C
7FF8
3FF0
0FC0
ENDCHAR
STARTCHAR Tcommaaccent
ENCODING 354
SWIDTH 610 0
DWIDTH 19 0
BBX 19 30 0 -7
BITMAP
FFFFE0
FFFFE0
FFFFE0
00E000
00E000
00E000
00E000
00E000
00E000
00E000
00E000
00E000
00E000
00E000
00E000
00E000
00E000
00E000
00E000
00E000
00E000
00E000
00E000
006000
00C000
00F000
003800
003800
01F000
01E000
ENDCHAR
STARTCHAR tcommaaccent
ENCODING 355
SWIDTH 277 0
DWIDTH 9 0
BBX 9 30 0 -7
BITMAP
0800
1800
3800
3800
3800
3800
FF00
FF00
FF00
3800
3800
3800
3800
3800
3800
3800
3800
3800
3800
3800
3F00
3F00
1F00
0600
0400
0F00
0180
0180
1F00
1E00
ENDCHAR
STARTCHAR Tcaron
ENCODING 356
SWIDTH 610 0
DWIDTH 19 0
BBX 19 29 0 0
BITMAP
070E00
039C00
01F800
00F000
000000
000000
FFFFE0
FFFFE0
FFFFE0
00E000
00E000
00E000
00E000
00E000
00E000
00E000
00E000
00E000
00E000
00E000
00E000
00E000
00E000
00E000
00E000
00E000
00E000
00E000
00E000
ENDCHAR
STARTCHAR tcaron
ENCODING 357
SWIDTH 375 0
DWIDTH 12 0
BBX 11 23 0 0
BITMAP
08E0
18E0
38E0
3820
3820
3840
FFC0
FF00
FF00
3800
3800
3800
3800
3800
3800
3800
3800
3800
3800
3800
3F00
3F00
1F00
ENDCHAR
STARTCHAR Tbar
ENCODING 358
SWIDTH 610 0
DWIDTH 20 0
BBX 19 23 0 0
BITMAP
FFFFE0
FFFFE0
FFFFE0
00E000
00E000
00E000
00E000
00E000
00E000
00E000
00E000
1FFF00
1FFF00
1FFF00
00E000
00E000
00E000
00E000
00E000
00E000
00E000
00E000
00E000
ENDCHAR
STARTCHAR tbar
ENCODING 359
SWIDTH 277 0
DWIDTH 9 0
BBX 8 22 0 0
BITMAP
18
38
38
38
38
FF
FF
FF
38
38
38
38
FF
FF
FF
38
38
38
38
3F
3F
1F
ENDCHAR
STARTCHAR Utilde
ENCODING 360
SWIDTH 722 0
DWIDTH 23 0
BBX 17 29 3 0
BITMAP
039C00
07F800
07F800
067000
000000
000000
E00380
E00380
E00380
E00380
E00380
E00380
E00380
E00380
E00380
E00380
E00380
E00380
E00380
E00380
E00380
E00380
E00380
F00780
700700
7C1F00
3FFE00
1FFC00
07F000
ENDCHAR
STARTCHAR utilde
ENCODING 361
SWIDTH 556 0
DWIDTH 18 0
BBX 14 23 2 0
BITMAP
0E30
1FF0
1FE0
19C0
0000
0000
E01C
E01C
E01C
E01C
E01C
E01C
E01C
E01C
E01C
E01C
E01C
E01C
F03C
F87C
7FDC
7FDC
1F1C
ENDCHAR
STARTCHAR Umacron
ENCODING 362
SWIDTH 722 0
DWIDTH 23 0
BBX 17 28 3 0
BITMAP
0FFC00
0FFC00
0FFC00
000000
000000
E00380
E00380
E00380
E00380
E00380
E00380
E00380
E00380
E00380
E00380
E00380
E00380
E00380
E00380
E00380
E00380
E00380
F00780
700700
7C1F00
3FFE00
1FFC00
07F000
ENDCHAR
STARTCHAR umacron
ENCODING 363
SWIDTH 556 0
DWIDTH 18 0
BBX 14 22 2 0
BITMAP
1FF8
1FF8
1FF8
0000
0000
E01C
E01C
E01C
E01C
E01C
E01C
E01C
E01C
E01C
E01C
E01C
E01C
F03C
F87C
7FDC
7FDC
1F1C
ENDCHAR
STARTCHAR Ubreve
ENCODING 364
SWIDTH 722 0
DWIDTH 23 0
BBX 17 29 3 0
BITMAP
0C1800
063800
07F000
03E000
000000
000000
E00380
E00380
E00380
E00380
E00380
E00380
E00380
E00380
E00380
E00380
E00380
E00380
E00380
E00380
E00380
E00380
E00380
F00780
700700
7C1F00
3FFE00
1FFC00
07F000
ENDCHAR
STARTCHAR ubreve
ENCODING 365
SWIDTH 556 0
DWIDTH 18 0
BBX 14 23 2 0
BITMAP
3060
38E0
1FC0
0F80
0000
0000
E01C
E01C
E01C
E01C
E01C
E01C
E01C
E01C
E01C
E01C
E01C
E01C
F03C
F87C
7FDC
7FDC
1F1C
ENDCHAR
STARTCHAR Uring
ENCODING 366
SWIDTH 722 0
DWIDTH 23 0
BBX 17 29 3 0
BITMAP
01C000
022000
022000
022000
01C000
000000
E00380
E00380
E00380
E00380
E00380
E00380
E00380
E00380
E00380
E00380
E00380
E00380
E00380
E00380
E00380
E00380
E00380
F00780
700700
7C1F00
3FFE00
1FFC00
07F000
ENDCHAR
STARTCHAR uring
ENCODING 367
SWIDTH 556 0
DWIDTH 18 0
BBX 14 24 2 0
BITMAP
0700
0480
0880
0480
0700
0000
0000
E01C
E01C
E01C
E01C
E01C
E01C
E01C
E01C
E01C
E01C
E01C
E01C
F03C
F87C
7FDC
7FDC
1F1C
ENDCHAR
STARTCHAR Uhungarumlaut
ENCODING 368
SWIDTH 722 0
DWIDTH 23 0
BBX 17 29 3 0
BITMAP
01CE00
039C00
031800
063000
000000
000000
E00380
E00380
E00380
E00380
E00380
E00380
E00380
E00380
E00380
E00380
E00380
E00380
E00380
E00380
E00380
E00380
E00380
F00780
700700
7C1F00
3FFE00
1FFC00
07F000
ENDCHAR
STARTCHAR uhungarumlaut
ENCODING 369
SWIDTH 556 0
DWIDTH 18 0
BBX 14 23 2 0
BITMAP
0738
0E70
0C60
18C0
0000
0000
E01C
E01C
E01C
E01C
E01C
E01C
E01C
E01C
E01C
E01C
E01C
E01C
F03C
F87C
7FDC
7FDC
1F1C
ENDCHAR
STARTCHAR Uogonek
ENCODING 370
SWIDTH 722 0
DWIDTH 23 0
BBX 17 29 3 -6
BITMAP
E00380
E00380
E00380
E00380
E00380
E00380
E00380
E00380
E00380
E00380
E00380
E00380
E00380
E00380
E00380
E00380
E00380
F00780
700700
7C1F00
3FFE00
1FFC00
07F000
002000
004000
00C000
00C000
00F800
007800
ENDCHAR
STARTCHAR uogonek
ENCODING 371
SWIDTH 556 0
DWIDTH 18 0
BBX 15 23 2 -6
BITMAP
E01C
E01C
E01C
E01C
E01C
E01C
E01C
E01C
E01C
E01C
E01C
E01C
F03C
F87C
7FDC
7FDC
1F1C
0018
0010
0030
0030
003E
001E
ENDCHAR
STARTCHAR Wcircumflex
ENCODING 372
SWIDTH 943 0
DWIDTH 32 0
BBX 31 29 0 0
BITMAP
0003C000
0007E000
000E7000
001C3800
00000000
00000000
E007C00E
E007C00E
7007C01C
700EE01C
700EE01C
700EE01C
701C703C
381C7038
381C7038
381C7038
38383838
1C383870
1C383870
1C701C70
1C701C70
0E701CF0
0EE00EE0
0EE00EE0
0EE00EE0
0EE00EE0
07C007C0
07C007C0
07C007C0
ENDCHAR
STARTCHAR wcircumflex
ENCODING 373
SWIDTH 722 0
DWIDTH 23 0
BBX 23 23 0 0
BITMAP
007800
00FC00
01CE00
038700
000000
000000
E0380E
E0380E
E07C0E
707C1C
706C1C
706C1C
38EE38
38C638
38C638
18C670
1DC770
1D8370
0D8360
0F83E0
0F83E0
0701C0
0701C0
ENDCHAR
STARTCHAR Ycircumflex
ENCODING 374
SWIDTH 666 0
DWIDTH 21 0
BBX 21 29 0 0
BITMAP
00F800
01FC00
01DE00
038700
000000
000000
E00078
7000F0
3800E0
3C01E0
1C03C0
0E0380
0F0780
078F00
038E00
03DE00
01DC00
00F800
00F800
007000
007000
007000
007000
007000
007000
007000
007000
007000
007000
ENDCHAR
STARTCHAR ycircumflex
ENCODING 375
SWIDTH 500 0
DWIDTH 15 0
BBX 15 29 0 -6
BITMAP
03C0
07E0
0E70
1C38
0000
0000
E00E
701E
701C
701C
3838
3838
3838
1C70
1C70
0C70
0EE0
0EE0
06E0
07C0
07C0
03C0
0380
0380
0700
0700
3F00
3E00
3C00
ENDCHAR
STARTCHAR Ydieresis
ENCODING 376
SWIDTH 666 0
DWIDTH 21 0
BBX 21 28 0 0
BITMAP
038E00
038E00
038E00
000000
000000
E00078
7000F0
3800E0
3C01E0
1C03C0
0E0380
0F0780
078F00
038E00
03DE00
01DC00
00F800
00F800
007000
007000
007000
007000
007000
007000
007000
007000
007000
007000
ENDCHAR
STARTCHAR Zacute
ENCODING 377
SWIDTH 610 0
DWIDTH 20 0
BBX 19 29 0 0
BITMAP
003C00
007800
007000
00E000
000000
000000
7FFFC0
7FFFC0
7FFFC0
0003C0
000780
000F00
001E00
001C00
003800
007000
00F000
01E000
03C000
078000
070000
0E0000
1E0000
3C0000
780000
F00000
FFFFE0
FFFFE0
FFFFE0
ENDCHAR
STARTCHAR zacute
ENCODING 378
SWIDTH 500 0
DWIDTH 15 0
BBX 14 23 0 0
BITMAP
00F0
01E0
01C0
0380
0000
0000
7FFC
7FFC
7FFC
003C
0078
00F0
01E0
03C0
0780
0F00
1E00
3C00
7800
F000
FFFC
FFFC
FFFC
ENDCHAR
STARTCHAR Zdotaccent
ENCODING 379
SWIDTH 610 0
DWIDTH 20 0
BBX 19 28 0 0
BITMAP
007000
007000
007000
000000
000000
7FFFC0
7FFFC0
7FFFC0
0003C0
000780
000F00
001E00
001C00
003800
007000
00F000
01E000
03C000
078000
070000
0E0000
1E0000
3C0000
780000
F00000
FFFFE0
FFFFE0
FFFFE0
ENDCHAR
STARTCHAR zdotaccent
ENCODING 380
SWIDTH 500 0
DWIDTH 15 0
BBX 14 22 0 0
BITMAP
0380
0380
0380
0000
0000
7FFC
7FFC
7FFC
003C
0078
00F0
01E0
03C0
0780
0F00
1E00
3C00
7800
F000
FFFC
FFFC
FFFC
ENDCHAR
STARTCHAR Zcaron
ENCODING 381
SWIDTH 610 0
DWIDTH 20 0
BBX 19 29 0 0
BITMAP
0E1C00
07BC00
03F800
01F000
000000
000000
7FFFC0
7FFFC0
7FFFC0
0003C0
000780
000F00
001E00
001C00
003800
007000
00F000
01E000
03C000
078000
070000
0E0000
1E0000
3C0000
780000
F00000
FFFFE0
FFFFE0
FFFFE0
ENDCHAR
STARTCHAR zcaron
ENCODING 382
SWIDTH 500 0
DWIDTH 15 0
BBX 14 23 0 0
BITMAP
1C38
0EF0
07E0
07C0
0000
0000
7FFC
7FFC
7FFC
003C
0078
00F0
01E0
03C0
0780
0F00
1E00
3C00
7800
F000
FFFC
FFFC
FFFC
ENDCHAR
STARTCHAR longs
ENCODING 383
SWIDTH 222 0
DWIDTH 7 0
BBX 7 23 2 0
BITMAP
3E
7E
FE
F0
E0
E0
E0
E0
E0
E0
E0
E0
E0
E0
E0
E0
E0
E0
E0
E0
E0
E0
E0
ENDCHAR
STARTCHAR uni0180
ENCODING 384
SWIDTH 556 0
DWIDTH 18 0
BBX 17 23 0 0
BITMAP
380000
380000
FFE000
FFE000
380000
380000
38F000
3BFC00
3FFE00
3F0F00
3C0700
3C0780
380380
380380
380380
380380
380380
3C0780
3C0700
3F0F00
3FFE00
3BFC00
39F000
ENDCHAR
STARTCHAR uni0181
ENCODING 385
SWIDTH 758 0
DWIDTH 24 0
BBX 22 23 0 0
BITMAP
3FFF80
7FFFE0
FFFFF0
E700F8
C70038
C70038
C70038
070038
0700F0
07FFE0
07FFE0
07FFF0
070078
07003C
07001C
07001C
07001C
07001C
07003C
070078
07FFF8
07FFF0
07FF80
ENDCHAR
STARTCHAR uni0182
ENCODING 386
SWIDTH 656 0
DWIDTH 20 0
BBX 16 23 3 0
BITMAP
FFFC
FFFC
FFFC
E000
E000
E000
E000
E000
E000
FFF0
FFFC
FFFE
E01E
E00F
E007
E007
E007
E007
E00F
E01E
FFFE
FFFC
FFF0
ENDCHAR
STARTCHAR uni0183
ENCODING 387
SWIDTH 556 0
DWIDTH 18 0
BBX 15 23 2 0
BITMAP
FFF0
FFF0
FFF0
E000
E000
E000
E3C0
EFF0
FFF8
FC3C
F01C
F01E
E00E
E00E
E00E
E00E
E00E
F01E
F01C
FC3C
FFF8
EFF0
E7C0
ENDCHAR
STARTCHAR uni0184
ENCODING 388
SWIDTH 656 0
DWIDTH 21 0
BBX 19 23 1 0
BITMAP
080000
180000
380000
780000
F80000
780000
380000
380000
380000
3FFE00
3FFF80
3FFFC0
3803C0
3801E0
3800E0
3800E0
3800E0
3800E0
3801E0
3803C0
3FFFC0
3FFF80
3FFC00
ENDCHAR
STARTCHAR uni0185
ENCODING 389
SWIDTH 556 0
DWIDTH 18 0
BBX 17 23 0 0
BITMAP
080000
380000
780000
F80000
780000
380000
38F000
3BFC00
3FFE00
3F0F00
3C0700
3C0780
380380
380380
380380
380380
380380
3C0780
3C0700
3F0F00
3FFE00
3BFC00
39F000
ENDCHAR
STARTCHAR uni0186
ENCODING 390
SWIDTH 722 0
DWIDTH 23 0
BBX 20 23 1 0
BITMAP
03F800
0FFE00
1FFF80
3E0FC0
7803C0
7001E0
F000E0
E000E0
000070
000070
000070
000070
000070
000070
000070
0000F0
E000E0
F001E0
7803C0
7C0F80
3FFF00
0FFE00
03F800
ENDCHAR
STARTCHAR uni0187
ENCODING 391
SWIDTH 722 0
DWIDTH 23 0
BBX 23 26 2 0
BITMAP
00001E
00003E
00007E
01FC70
07FF70
1FFFF0
3F03F0
3C01F0
7800F0
700070
F00000
E00000
E00000
E00000
E00000
E00000
E00000
E00000
700070
7000F0
7800E0
3C01E0
3F07C0
1FFF80
07FF00
01FC00
ENDCHAR
STARTCHAR uni0188
ENCODING 392
SWIDTH 500 0
DWIDTH 16 0
BBX 17 20 1 0
BITMAP
000780
000F80
001F80
07DE00
1FFC00
3FFC00
787C00
703C00
E01C00
E00000
E00000
E00000
E00000
E00000
E01C00
703C00
787800
3FF800
1FF000
0FC000
ENDCHAR
STARTCHAR uni0189
ENCODING 393
SWIDTH 722 0
DWIDTH 23 0
BBX 21 23 0 0
BITMAP
1FFE00
1FFF80
1FFFC0
1C03E0
1C00F0
1C0070
1C0070
1C0038
1C0038
1C0038
FFF038
FFF038
FFF038
1C0038
1C0038
1C0078
1C0070
1C0070
1C00E0
1C03E0
1FFFC0
1FFF80
1FFE00
ENDCHAR
STARTCHAR uni018A
ENCODING 394
SWIDTH 809 0
DWIDTH 26 0
BBX 24 23 0 0
BITMAP
3FFFC0
7FFFF0
FFFFF8
E7007C
C7001C
C7000E
C7000E
07000F
070007
070007
070007
070007
070007
070007
070007
07000F
07000E
07001E
07001C
07007C
07FFF8
07FFF0
07FF80
ENDCHAR
STARTCHAR uni018B
ENCODING 395
SWIDTH 656 0
DWIDTH 21 0
BBX 17 23 1 0
BITMAP
1FFF80
1FFF80
1FFF80
000380
000380
000380
000380
000380
000380
0FFF80
3FFF80
7FFF80
780380
F00380
E00380
E00380
E00380
E00380
F00380
780380
7FFF80
3FFF80
0FFF80
ENDCHAR
STARTCHAR uni018C
ENCODING 396
SWIDTH 556 0
DWIDTH 18 0
BBX 15 23 1 0
BITMAP
1FFE
1FFE
1FFE
000E
000E
000E
07CE
1FEE
3FFE
787E
701E
F01E
E00E
E00E
E00E
E00E
E00E
F01E
701E
783E
3FFE
1FEE
078E
ENDCHAR
STARTCHAR uni018D
ENCODING 397
SWIDTH 556 0
DWIDTH 18 0
BBX 16 23 1 -6
BITMAP
07E0
1FF8
3FFC
7C3E
700E
F00F
E007
E007
E007
E007
E007
F00F
700E
7C3E
3FFC
1FF8
0FE0
03C0
00E0
0078
3FFC
3FFC
3FFC
ENDCHAR
STARTCHAR uni018E
ENCODING 398
SWIDTH 666 0
DWIDTH 21 0
BBX 16 23 2 0
BITMAP
7FFF
7FFF
7FFF
0007
0007
0007
0007
0007
0007
7FFF
7FFF
7FFF
0007
0007
0007
0007
0007
0007
0007
0007
FFFF
FFFF
FFFF
ENDCHAR
STARTCHAR uni018F
ENCODING 399
SWIDTH 752 0
DWIDTH 24 0
BBX 22 23 1 0
BITMAP
01FC00
07FF80
1FFFC0
3F03E0
3C00F0
780078
300038
000038
00001C
00001C
FFFFFC
FFFFFC
FFFFFC
E0001C
E0001C
F0003C
700038
780078
3C00F0
3F03F0
1FFFE0
07FF80
01FE00
ENDCHAR
STARTCHAR uni0190
ENCODING 400
SWIDTH 604 0
DWIDTH 19 0
BBX 17 23 1 0
BITMAP
07F000
1FFC00
3FFE00
7C1F00
780700
700780
700380
780200
3C0000
1FC000
1FC000
3FC000
7C0000
F00000
E00000
E00200
E00380
E00700
F00F00
7C1E00
3FFE00
1FFC00
07F000
ENDCHAR
STARTCHAR uni0191
ENCODING 401
SWIDTH 610 0
DWIDTH 20 0
BBX 20 29 -1 -6
BITMAP
0FFFF0
0FFFF0
0FFFF0
0E0000
0E0000
0E0000
0E0000
0E0000
0E0000
0E0000
0FFFC0
0FFFC0
0FFFC0
0E0000
0E0000
0E0000
0E0000
0E0000
0E0000
0E0000
0E0000
0E0000
0E0000
0E0000
0E0000
1E0000
FE0000
FC0000
F80000
ENDCHAR
STARTCHAR florin
ENCODING 402
SWIDTH 556 0
DWIDTH 18 0
BBX 16 29 1 -6
BITMAP
003F
007F
007F
00F0
00E0
00E0
0FFC
0FFC
0FFC
01C0
01C0
01C0
01C0
0380
0380
0380
0380
0380
0700
0700
0700
0700
0700
0E00
0E00
0E00
FE00
FC00
F800
ENDCHAR
STARTCHAR uni0193
ENCODING 403
SWIDTH 777 0
DWIDTH 25 0
BBX 24 26 2 0
BITMAP
00000F
00001F
00003F
00FE38
07FFB8
0FFFF8
1F03F8
3C00F8
780078
700078
700020
E00000
E00000
E00000
E01FF8
E01FF8
E01FF8
E00038
700038
700038
780038
3C0078
1F03F8
0FFFF0
07FFC0
00FE00
ENDCHAR
STARTCHAR uni0194
ENCODING 404
SWIDTH 624 0
DWIDTH 20 0
BBX 20 29 0 -6
BITMAP
E00070
7000E0
7000E0
3801C0
3801C0
1C0380
1C0380
0E0700
0E0700
070E00
070E00
070E00
039C00
039C00
01F800
01F800
00F000
00F000
00F000
00F000
01F800
01F800
01F800
039C00
039C00
039C00
03FC00
01F800
00F000
ENDCHAR
STARTCHAR uni0195
ENCODING 405
SWIDTH 880 0
DWIDTH 28 0
BBX 24 23 2 0
BITMAP
E00000
E00000
E00000
E00000
E00000
E00000
E7E007
EFF807
FFF807
F87C07
F03C07
E01C07
E01C07
E01C07
E01C07
E01C07
E01C07
E01C07
E01C07
E01F1E
E00FFE
E007FC
E001F0
ENDCHAR
STARTCHAR uni0196
ENCODING 406
SWIDTH 222 0
DWIDTH 7 0
BBX 3 23 2 0
BITMAP
E0
E0
E0
E0
E0
E0
E0
E0
E0
E0
E0
E0
E0
E0
E0
E0
E0
E0
E0
E0
E0
E0
E0
ENDCHAR
STARTCHAR uni0197
ENCODING 407
SWIDTH 277 0
DWIDTH 9 0
BBX 9 23 0 0
BITMAP
1C00
1C00
1C00
1C00
1C00
1C00
1C00
1C00
1C00
1C00
FF80
FF80
FF80
1C00
1C00
1C00
1C00
1C00
1C00
1C00
1C00
1C00
1C00
ENDCHAR
STARTCHAR uni0198
ENCODING 408
SWIDTH 666 0
DWIDTH 21 0
BBX 18 23 3 0
BITMAP
3E0780
7E0F00
FE1E00
F03C00
E07800
E0F000
E1E000
E3C000
E78000
EF8000
FFC000
FDE000
F8E000
F0F000
E07000
E03800
E03C00
E01C00
E01E00
E00F00
E00700
E00780
E003C0
ENDCHAR
STARTCHAR uni0199
ENCODING 409
SWIDTH 500 0
DWIDTH 16 0
BBX 14 23 2 0
BITMAP
3E00
7E00
FE00
F000
E000
E000
E078
E0F0
E1E0
E3C0
E780
EF00
FF00
FF00
FF80
F380
E1C0
E1E0
E0E0
E0F0
E078
E038
E03C
ENDCHAR
STARTCHAR uni019A
ENCODING 410
SWIDTH 222 0
DWIDTH 7 0
BBX 7 23 0 0
BITMAP
38
38
38
38
38
38
38
38
38
38
FE
FE
FE
38
38
38
38
38
38
38
38
38
38
ENDCHAR
STARTCHAR uni019B
ENCODING 411
SWIDTH 500 0
DWIDTH 16 0
BBX 16 23 0 0
BITMAP
0E20
07E0
07C0
1F00
7B80
2380
03C0
03C0
03C0
07E0
07E0
07F0
0E70
0E70
1C38
1C38
1C38
381C
381C
700E
700E
700E
E007
ENDCHAR
STARTCHAR uni019C
ENCODING 412
SWIDTH 890 0
DWIDTH 29 0
BBX 23 23 3 0
BITMAP
E0380E
E0380E
E0380E
E0380E
E0380E
E0380E
E0380E
E0380E
E0380E
E0380E
E0380E
E0380E
E0380E
E0380E
E0380E
E0380E
E0380E
E0381E
E0781E
F0FC3E
7FDFFE
7F9FEE
1F07CE
ENDCHAR
STARTCHAR uni019D
ENCODING 413
SWIDTH 722 0
DWIDTH 23 0
BBX 21 29 -1 -6
BITMAP
0E0038
0F0038
0F8038
0F8038
0FC038
0FC038
0EE038
0E7038
0E7038
0E3838
0E3838
0E1C38
0E0E38
0E0E38
0E0738
0E0738
0E03B8
0E01F8
0E01F8
0E00F8
0E00F8
0E0078
0E0038
0E0000
0E0000
1E0000
FE0000
FC0000
F80000
ENDCHAR
STARTCHAR uni019E
ENCODING 414
SWIDTH 556 0
DWIDTH 18 0
BBX 14 23 2 -6
BITMAP
E3E0
EFF8
FFF8
F83C
F01C
E01C
E01C
E01C
E01C
E01C
E01C
E01C
E01C
E01C
E01C
E01C
E01C
001C
001C
001C
001C
001C
001C
ENDCHAR
STARTCHAR uni019F
ENCODING 415
SWIDTH 777 0
DWIDTH 25 0
BBX 23 23 1 0
BITMAP
00FE00
07FFC0
0FFFE0
1F01F0
3C0078
78003C
70001C
70001C
E0000E
E0000E
FFFFFE
FFFFFE
FFFFFE
E0000E
E0000E
70001C
70001C
78003C
3C0078
1F01F0
0FFFE0
07FFC0
00FE00
ENDCHAR
STARTCHAR Ohorn
ENCODING 416
SWIDTH 857 0
DWIDTH 27 0
BBX 25 23 1 0
BITMAP
01FE0380
07FF8380
0FFFC380
1F03E180
3C00F180
78007B00
70003B00
70003C00
E0001C00
E0001C00
E0001C00
E0001C00
E0001C00
E0001C00
E0001C00
70003800
70003800
78007800
3C00F000
1F03E000
0FFFC000
07FF8000
00FE0000
ENDCHAR
STARTCHAR ohorn
ENCODING 417
SWIDTH 655 0
DWIDTH 21 0
BBX 19 17 1 0
BITMAP
07E0E0
1FF8E0
3FFCE0
7C3E60
700E60
F00F40
E007C0
E00780
E00700
E00700
E00700
F00F00
700E00
7C3E00
3FFC00
1FF800
07E000
ENDCHAR
STARTCHAR uni01A2
ENCODING 418
SWIDTH 868 0
DWIDTH 28 0
BBX 23 29 2 -6
BITMAP
01FC06
07FF3E
0FFFFE
1F07FE
3C038E
78038E
70038E
70038E
E0038E
E0038E
E0038E
E0038E
E0038E
E0038E
E0038E
F0038E
70038E
78038E
3C038E
1F078E
0FFF8E
07FF0E
01FC0E
00000E
00000E
00000E
00000E
00000E
00000E
ENDCHAR
STARTCHAR uni01A3
ENCODING 419
SWIDTH 667 0
DWIDTH 21 0
BBX 18 23 1 -6
BITMAP
07C0C0
1FFFC0
3FFFC0
7871C0
7071C0
F071C0
E071C0
E071C0
E071C0
E071C0
E071C0
F071C0
7071C0
7871C0
3FF1C0
1FF1C0
07C1C0
0001C0
0001C0
0001C0
0001C0
0001C0
0001C0
ENDCHAR
STARTCHAR uni01A4
ENCODING 420
SWIDTH 754 0
DWIDTH 24 0
BBX 23 23 0 0
BITMAP
3FFFE0
7FFFF8
FFFFFC
E7003C
C7001E
C7000E
C7000E
07000E
07000E
07001E
07003C
07FFF8
07FFF0
07FFC0
070000
070000
070000
070000
070000
070000
070000
070000
070000
ENDCHAR
STARTCHAR uni01A5
ENCODING 421
SWIDTH 556 0
DWIDTH 18 0
BBX 15 29 2 -6
BITMAP
3E00
7E00
FE00
F000
E000
E000
E3E0
EFF0
EFF8
F83C
F01C
F01E
E00E
E00E
E00E
E00E
E00E
F01E
F01C
F83C
FFF8
EFF0
E7C0
E000
E000
E000
E000
E000
E000
ENDCHAR
STARTCHAR uni01A6
ENCODING 422
SWIDTH 666 0
DWIDTH 21 0
BBX 19 29 2 -6
BITMAP
E00000
E00000
E00000
FFFC00
FFFF00
FFFF80
E00780
E003C0
E001C0
E001C0
E001C0
E003C0
E00780
FFFF80
FFFE00
FFF800
E0E000
E0E000
E07000
E03800
E03800
E01C00
E00E00
000E00
000700
000380
000380
0001C0
0000E0
ENDCHAR
STARTCHAR uni01A7
ENCODING 423
SWIDTH 666 0
DWIDTH 21 0
BBX 18 23 2 0
BITMAP
03F800
0FFE00
1FFF00
3C0F00
780380
700380
700380
000780
001F00
01FF00
0FFE00
3FF800
7F8000
780000
F00000
E001C0
E001C0
E003C0
F00780
781F80
3FFF00
1FFE00
07F000
ENDCHAR
STARTCHAR uni01A8
ENCODING 424
SWIDTH 500 0
DWIDTH 16 0
BBX 14 17 1 0
BITMAP
0FC0
1FF0
3FF0
7878
7038
0038
01F8
1FF0
7FC0
FE00
F000
E01C
E03C
F078
7FF8
3FF0
0FC0
ENDCHAR
STARTCHAR uni01A9
ENCODING 425
SWIDTH 618 0
DWIDTH 20 0
BBX 16 23 3 0
BITMAP
FFFE
FFFE
FFFE
E000
7000
3800
1C00
0E00
0700
0380
01C0
01C0
0380
0700
0E00
0E00
1C00
3800
7000
E000
FFFF
FFFF
FFFF
ENDCHAR
STARTCHAR uni01AA
ENCODING 426
SWIDTH 380 0
DWIDTH 12 0
BBX 11 29 1 -6
BITMAP
7800
8C00
8E00
8E00
7E00
0E00
0E00
0E00
0E00
0E00
0E00
0E00
0E00
0E00
0E00
0E00
0E00
0E00
0E00
0E00
0E00
0E00
0E00
0E00
0E00
0F00
0FE0
07E0
03E0
ENDCHAR
STARTCHAR uni01AB
ENCODING 427
SWIDTH 277 0
DWIDTH 9 0
BBX 8 29 0 -6
BITMAP
08
18
38
38
38
38
FF
FF
FF
38
38
38
38
38
38
38
38
38
38
38
3F
3F
1F
07
07
07
7F
7E
7C
ENDCHAR
STARTCHAR uni01AC
ENCODING 428
SWIDTH 610 0
DWIDTH 20 0
BBX 19 23 0 0
BITMAP
3FFFE0
7FFFE0
FFFFE0
E0E000
C0E000
C0E000
C0E000
00E000
00E000
00E000
00E000
00E000
00E000
00E000
00E000
00E000
00E000
00E000
00E000
00E000
00E000
00E000
00E000
ENDCHAR
STARTCHAR uni01AD
ENCODING 429
SWIDTH 277 0
DWIDTH 9 0
BBX 10 23 0 0
BITMAP
0FC0
1FC0
3FC0
3800
3800
3800
FF80
FF80
FF80
3800
3800
3800
3800
3800
3800
3800
3800
3800
3800
3800
3F80
1F80
0F80
ENDCHAR
STARTCHAR uni01AE
ENCODING 430
SWIDTH 610 0
DWIDTH 20 0
BBX 18 29 1 -6
BITMAP
FFFFC0
FFFFC0
FFFFC0
01C000
01C000
01C000
01C000
01C000
01C000
01C000
01C000
01C000
01C000
01C000
01C000
01C000
01C000
01C000
01C000
01C000
01C000
01C000
01C000
01C000
01C000
01E000
01FC00
00FC00
007C00
ENDCHAR
STARTCHAR Uhorn
ENCODING 431
SWIDTH 854 0
DWIDTH 27 0
BBX 23 23 3 0
BITMAP
E001CE
E001CE
E001CE
E001C6
E001C6
E001C4
E001DC
E001F0
E001C0
E001C0
E001C0
E001C0
E001C0
E001C0
E001C0
E001C0
E001C0
F00380
700380
7C0F80
3FFF00
1FFE00
07F800
ENDCHAR
STARTCHAR uhorn
ENCODING 432
SWIDTH 669 0
DWIDTH 21 0
BBX 19 17 2 0
BITMAP
E01CE0
E01CE0
E01CE0
E01C60
E01C60
E01CC0
E01DC0
E01F00
E01C00
E01C00
E01C00
E01C00
E03C00
F07C00
7FDC00
7FDC00
1F1C00
ENDCHAR
STARTCHAR uni01B1
ENCODING 433
SWIDTH 747 0
DWIDTH 24 0
BBX 20 23 2 0
BITMAP
FF9FF0
FF9FF0
FF9FF0
0F0F00
1C0380
3801C0
3000C0
7000E0
600060
E00070
E00070
E00070
E00070
E00070
E00070
F000F0
7000E0
7801E0
3C03C0
3E07C0
1FFF80
0FFF00
03FC00
ENDCHAR
STARTCHAR uni01B2
ENCODING 434
SWIDTH 722 0
DWIDTH 23 0
BBX 17 23 3 0
BITMAP
E03E00
E03F00
E03F00
E00780
E00380
E00380
E00380
E00380
E00380
E00380
E00380
E00380
E00380
E00380
E00700
E00700
E00700
F00F00
700E00
7C3E00
3FFC00
1FF800
07E000
ENDCHAR
STARTCHAR uni01B3
ENCODING 435
SWIDTH 772 0
DWIDTH 25 0
BBX 25 23 0 0
BITMAP
3C000780
7E000F00
FF000E00
47001C00
03803C00
01C03800
01E07000
00E0E000
0071E000
0079C000
003B8000
001F0000
001F0000
000E0000
000E0000
000E0000
000E0000
000E0000
000E0000
000E0000
000E0000
000E0000
000E0000
ENDCHAR
STARTCHAR uni01B4
ENCODING 436
SWIDTH 500 0
DWIDTH 16 0
BBX 21 29 1 -6
BITMAP
0001E0
0003F0
0007F8
000710
000E00
000E00
E00E00
701C00
701C00
703800
383800
383800
3C7000
1C7000
1CF000
0EE000
0EE000
0FC000
07C000
07C000
078000
038000
070000
070000
070000
0E0000
FE0000
7C0000
780000
ENDCHAR
STARTCHAR uni01B5
ENCODING 437
SWIDTH 610 0
DWIDTH 20 0
BBX 18 23 1 0
BITMAP
7FFFC0
7FFFC0
7FFFC0
0001C0
000380
000700
000E00
001C00
003800
007000
FFFFC0
FFFFC0
FFFFC0
038000
070000
0E0000
1C0000
380000
700000
E00000
FFFFC0
FFFFC0
FFFFC0
ENDCHAR
STARTCHAR uni01B6
ENCODING 438
SWIDTH 500 0
DWIDTH 16 0
BBX 14 17 1 0
BITMAP
7FF8
7FF8
7FF8
0038
0070
00E0
FFFC
FFFC
FFFC
0E00
1C00
3800
7000
F000
FFFC
FFFC
FFFC
ENDCHAR
STARTCHAR uni01B7
ENCODING 439
SWIDTH 610 0
DWIDTH 20 0
BBX 18 29 1 -6
BITMAP
7FFFC0
7FFFC0
7FFFC0
0003C0
000780
000F00
001E00
003C00
007800
00F000
00F800
00FE00
00FF00
001F80
000780
0003C0
0001C0
0001C0
0001C0
0001C0
0001C0
0001C0
E003C0
F00380
780780
7C1F00
3FFE00
1FFC00
07F000
ENDCHAR
STARTCHAR uni01B8
ENCODING 440
SWIDTH 610 0
DWIDTH 20 0
BBX 18 29 1 -6
BITMAP
FFFF80
FFFF80
FFFF80
F00000
780000
3C0000
1E0000
0F0000
078000
03C000
07C000
1FC000
3FC000
7E0000
780000
F00000
E00000
E00000
E00000
E00000
E00000
E00000
F001C0
7003C0
780780
3E0F80
1FFF00
0FFE00
03F800
ENDCHAR
STARTCHAR uni01B9
ENCODING 441
SWIDTH 544 0
DWIDTH 17 0
BBX 15 23 1 -6
BITMAP
7FFC
7FFC
7FFC
3800
1C00
0E00
0700
0380
0FC0
1FC0
3FC0
7800
F000
E000
E000
E000
E00E
F00E
701C
7C3C
3FF8
1FF0
07E0
ENDCHAR
STARTCHAR uni01BA
ENCODING 442
SWIDTH 544 0
DWIDTH 17 0
BBX 15 23 1 -6
BITMAP
7FFC
7FFC
7FFC
0078
00F0
01C0
0380
07E0
07F0
07F8
0078
0038
0078
01F0
1FF0
7FC0
FE00
F00E
E01E
F03C
7FFC
7FF8
1FE0
ENDCHAR
STARTCHAR uni01BB
ENCODING 443
SWIDTH 556 0
DWIDTH 18 0
BBX 15 23 1 0
BITMAP
07E0
1FF8
3FFC
3C3C
781E
700E
700E
000E
001C
001C
FFFE
FFFE
FFFE
01E0
03C0
0780
0F00
1E00
3C00
7800
7FFE
FFFE
FFFE
ENDCHAR
STARTCHAR uni01BC
ENCODING 444
SWIDTH 556 0
DWIDTH 18 0
BBX 16 23 1 0
BITMAP
FFFE
FFFE
FFFE
1C00
1C00
1C00
1C00
1C00
1FE0
1FF8
1FFC
003E
000F
0007
0007
0007
E007
E00F
700E
783E
3FFC
1FF8
07E0
ENDCHAR
STARTCHAR uni01BD
ENCODING 445
SWIDTH 458 0
DWIDTH 15 0
BBX 13 17 1 0
BITMAP
FFF0
FFF0
FFF0
1C00
1C00
1C00
1FC0
1FF0
1FF0
0078
0038
E038
F038
7878
7FF0
3FE0
0FC0
ENDCHAR
STARTCHAR uni01BE
ENCODING 446
SWIDTH 486 0
DWIDTH 16 0
BBX 14 23 1 0
BITMAP
0800
1800
3800
3800
3800
3800
FF00
FF00
FF00
3800
3800
3800
3C00
1F80
1FF0
07F8
007C
E01C
F01C
783C
7FF8
3FF0
0FC0
ENDCHAR
STARTCHAR uni01BF
ENCODING 447
SWIDTH 556 0
DWIDTH 18 0
BBX 15 23 2 -6
BITMAP
E3E0
EFF8
FFFC
FC3C
F81E
F00E
E00E
E00E
E00E
E00E
E00E
E01C
E03C
E078
E0F0
E3E0
EFC0
FF00
FC00
F000
E000
E000
E000
ENDCHAR
STARTCHAR uni01C0
ENCODING 448
SWIDTH 259 0
DWIDTH 8 0
BBX 2 23 3 0
BITMAP
C0
C0
C0
C0
C0
C0
C0
C0
C0
C0
C0
C0
C0
C0
C0
C0
C0
C0
C0
C0
C0
C0
C0
ENDCHAR
STARTCHAR uni01C1
ENCODING 449
SWIDTH 413 0
DWIDTH 13 0
BBX 6 23 4 0
BITMAP
CC
CC
CC
CC
CC
CC
CC
CC
CC
CC
CC
CC
CC
CC
CC
CC
CC
CC
CC
CC
CC
CC
CC
ENDCHAR
STARTCHAR uni01C2
ENCODING 450
SWIDTH 583 0
DWIDTH 19 0
BBX 14 23 2 0
BITMAP
0300
0300
0300
0300
0300
0300
0300
FFFC
FFFC
0300
0300
0300
0300
0300
0300
FFFC
FFFC
0300
0300
0300
0300
0300
0300
ENDCHAR
STARTCHAR uni01C3
ENCODING 451
SWIDTH 277 0
DWIDTH 11 0
BBX 3 23 4 0
BITMAP
E0
E0
E0
E0
E0
E0
E0
E0
E0
E0
E0
E0
40
40
40
40
40
40
00
00
E0
E0
E0
ENDCHAR
STARTCHAR uni01C4
ENCODING 452
SWIDTH 1333 0
DWIDTH 43 0
BBX 39 29 3 0
BITMAP
00000070E0
0000003BC0
0000003F80
0000001F00
0000000000
0000000000
FFF807FFFC
FFFE07FFFC
FFFF07FFFC
E00F80003C
E003800078
E003C000F0
E001C001E0
E001E001C0
E000E00380
E000E00700
E000E00F00
E000E01E00
E000E03C00
E000E07800
E000E07000
E001E0E000
E001C1E000
E003C3C000
E003878000
E00F8F0000
FFFF0FFFFE
FFFE0FFFFE
FFF00FFFFE
ENDCHAR
STARTCHAR uni01C5
ENCODING 453
SWIDTH 1222 0
DWIDTH 39 0
BBX 34 23 3 0
BITMAP
FFF801C380
FFFE00F700
FFFF007E00
E00F803E00
E003800000
E003C00000
E001C7FFC0
E001E7FFC0
E000E7FFC0
E000E003C0
E000E00780
E000E00F00
E000E01E00
E000E03C00
E000E07800
E001E0F000
E001C1E000
E003C3C000
E003878000
E00F8F0000
FFFF0FFFC0
FFFE0FFFC0
FFF00FFFC0
ENDCHAR
STARTCHAR uni01C6
ENCODING 454
SWIDTH 1048 0
DWIDTH 34 0
BBX 31 23 1 0
BITMAP
001C0E3C
001C0F78
001C07F0
001C03E0
001C0000
001C0000
0F9C3FFE
1FDC3FFE
3FFC3FFE
787C001E
703C003C
E03C0078
E01C00F0
E01C01E0
E01C03C0
E01C0780
E01C0F00
F01C1E00
703C3C00
787C7800
3FFC7FFE
1FDC7FFE
0F9C7FFE
ENDCHAR
STARTCHAR uni01C7
ENCODING 455
SWIDTH 1062 0
DWIDTH 34 0
BBX 28 23 3 0
BITMAP
E0000070
E0000070
E0000070
E0000070
E0000070
E0000070
E0000070
E0000070
E0000070
E0000070
E0000070
E0000070
E0000070
E0000070
E0000070
E0000070
E000E070
E000E070
E000E070
E000F0E0
FFFC7FE0
FFFC3FC0
FFFC1F80
ENDCHAR
STARTCHAR uni01C8
ENCODING 456
SWIDTH 833 0
DWIDTH 27 0
BBX 22 29 3 -6
BITMAP
E0001C
E0001C
E0001C
E00000
E00000
E00000
E0001C
E0001C
E0001C
E0001C
E0001C
E0001C
E0001C
E0001C
E0001C
E0001C
E0001C
E0001C
E0001C
E0001C
FFFC1C
FFFC1C
FFFC1C
00001C
00001C
00001C
0000FC
0000F8
0000F0
ENDCHAR
STARTCHAR uni01C9
ENCODING 457
SWIDTH 451 0
DWIDTH 14 0
BBX 10 29 2 -6
BITMAP
E1C0
E1C0
E1C0
E000
E000
E000
E1C0
E1C0
E1C0
E1C0
E1C0
E1C0
E1C0
E1C0
E1C0
E1C0
E1C0
E1C0
E1C0
E1C0
E1C0
E1C0
E1C0
01C0
01C0
01C0
0FC0
0F80
0F00
ENDCHAR
STARTCHAR uni01CA
ENCODING 458
SWIDTH 1222 0
DWIDTH 39 0
BBX 33 23 3 0
BITMAP
E003800380
F003800380
F803800380
F803800380
FC03800380
FC03800380
EE03800380
E703800380
E703800380
E383800380
E383800380
E1C3800380
E0E3800380
E0E3800380
E073800380
E073800380
E03B870380
E01F870380
E01F870380
E00F878700
E00F83FF00
E00781FE00
E00380FC00
ENDCHAR
STARTCHAR uni01CB
ENCODING 459
SWIDTH 944 0
DWIDTH 30 0
BBX 25 29 3 -6
BITMAP
E0038380
F0038380
F8038380
F8038000
FC038000
FC038000
EE038380
E7038380
E7038380
E3838380
E3838380
E1C38380
E0E38380
E0E38380
E0738380
E0738380
E03B8380
E01F8380
E01F8380
E00F8380
E00F8380
E0078380
E0038380
00000380
00000380
00000380
00001F80
00001F00
00001E00
ENDCHAR
STARTCHAR uni01CC
ENCODING 460
SWIDTH 770 0
DWIDTH 25 0
BBX 21 29 2 -6
BITMAP
000038
000038
000038
000000
000000
000000
E7E038
EFF838
FFF838
F83C38
F01C38
E01C38
E01C38
E01C38
E01C38
E01C38
E01C38
E01C38
E01C38
E01C38
E01C38
E01C38
E01C38
000038
000038
000038
0001F8
0001F0
0001E0
ENDCHAR
STARTCHAR uni01CD
ENCODING 461
SWIDTH 666 0
DWIDTH 21 0
BBX 21 29 0 0
BITMAP
038700
01DE00
00FC00
00F800
000000
000000
00F800
00F800
00F800
01DC00
01DC00
01DC00
038E00
038E00
070700
070700
070700
0E0380
0E0380
0FFF80
1FFFC0
1FFFC0
3800E0
3800E0
3800E0
700070
700070
700070
E00038
ENDCHAR
STARTCHAR uni01CE
ENCODING 462
SWIDTH 556 0
DWIDTH 17 0
BBX 15 23 1 0
BITMAP
1C38
0EF0
07E0
07C0
0000
0000
0FE0
3FF8
7FF8
F03C
E01C
001C
007C
0FFC
3FFC
7F9C
F01C
E01C
E03C
F0FC
7FFC
7FDC
1F8E
ENDCHAR
STARTCHAR uni01CF
ENCODING 463
SWIDTH 277 0
DWIDTH 9 0
BBX 10 29 0 0
BITMAP
E1C0
7380
3F00
3E00
0000
0000
1C00
1C00
1C00
1C00
1C00
1C00
1C00
1C00
1C00
1C00
1C00
1C00
1C00
1C00
1C00
1C00
1C00
1C00
1C00
1C00
1C00
1C00
1C00
ENDCHAR
STARTCHAR uni01D0
ENCODING 464
SWIDTH 222 0
DWIDTH 7 0
BBX 10 23 -1 0
BITMAP
E1C0
7B80
3F00
1F00
0000
0000
1C00
1C00
1C00
1C00
1C00
1C00
1C00
1C00
1C00
1C00
1C00
1C00
1C00
1C00
1C00
1C00
1C00
ENDCHAR
STARTCHAR uni01D1
ENCODING 465
SWIDTH 777 0
DWIDTH 25 0
BBX 23 29 1 0
BITMAP
01C380
00E700
007E00
003C00
000000
000000
00FE00
07FFC0
0FFFE0
1F01F0
3C0078
78003C
70001C
70001C
E0000E
E0000E
E0000E
E0000E
E0000E
E0000E
E0000E
70001C
70001C
78003C
3C0078
1F01F0
0FFFE0
07FFC0
00FE00
ENDCHAR
STARTCHAR uni01D2
ENCODING 466
SWIDTH 556 0
DWIDTH 17 0
BBX 15 23 1 0
BITMAP
3870
1EE0
0FE0
07C0
0000
0000
07C0
1FF0
3FF8
783C
701C
F01E
E00E
E00E
E00E
E00E
E00E
F01E
701C
783C
3FF8
1FF0
07C0
ENDCHAR
STARTCHAR uni01D3
ENCODING 467
SWIDTH 722 0
DWIDTH 23 0
BBX 17 29 3 0
BITMAP
1C3800
0F7000
07F000
03E000
000000
000000
E00380
E00380
E00380
E00380
E00380
E00380
E00380
E00380
E00380
E00380
E00380
E00380
E00380
E00380
E00380
E00380
E00380
F00780
700700
7C1F00
3FFE00
1FFC00
07F000
ENDCHAR
STARTCHAR uni01D4
ENCODING 468
SWIDTH 556 0
DWIDTH 18 0
BBX 14 23 2 0
BITMAP
3C78
1EF0
0FE0
07C0
0000
0000
E01C
E01C
E01C
E01C
E01C
E01C
E01C
E01C
E01C
E01C
E01C
E01C
F03C
F87C
7FDC
7FDC
1F1C
ENDCHAR
STARTCHAR uni01D5
ENCODING 469
SWIDTH 722 0
DWIDTH 23 0
BBX 17 29 3 0
BITMAP
07F800
07F800
000000
061800
061800
000000
E00380
E00380
E00380
E00380
E00380
E00380
E00380
E00380
E00380
E00380
E00380
E00380
E00380
E00380
E00380
E00380
E00380
F00780
700700
7C1F00
3FFE00
1FFC00
07F000
ENDCHAR
STARTCHAR uni01D6
ENCODING 470
SWIDTH 556 0
DWIDTH 18 0
BBX 14 28 2 0
BITMAP
3FF0
3FF0
3FF0
0000
0000
0000
38E0
38E0
38E0
0000
0000
E01C
E01C
E01C
E01C
E01C
E01C
E01C
E01C
E01C
E01C
E01C
E01C
F03C
F87C
7FDC
7FDC
1F1C
ENDCHAR
STARTCHAR uni01D7
ENCODING 471
SWIDTH 722 0
DWIDTH 23 0
BBX 17 29 3 0
BITMAP
007000
00E000
01C000
061800
061800
000000
E00380
E00380
E00380
E00380
E00380
E00380
E00380
E00380
E00380
E00380
E00380
E00380
E00380
E00380
E00380
E00380
E00380
F00780
700700
7C1F00
3FFE00
1FFC00
07F000
ENDCHAR
STARTCHAR uni01D8
ENCODING 472
SWIDTH 556 0
DWIDTH 18 0
BBX 14 29 2 0
BITMAP
01E0
01C0
0380
0300
0000
0000
0000
38E0
38E0
38E0
0000
0000
E01C
E01C
E01C
E01C
E01C
E01C
E01C
E01C
E01C
E01C
E01C
E01C
F03C
F87C
7FDC
7FDC
1F1C
ENDCHAR
STARTCHAR uni01D9
ENCODING 473
SWIDTH 722 0
DWIDTH 23 0
BBX 17 29 3 0
BITMAP
063000
03E000
01C000
061800
061800
000000
E00380
E00380
E00380
E00380
E00380
E00380
E00380
E00380
E00380
E00380
E00380
E00380
E00380
E00380
E00380
E00380
E00380
F00780
700700
7C1F00
3FFE00
1FFC00
07F000
ENDCHAR
STARTCHAR uni01DA
ENCODING 474
SWIDTH 556 0
DWIDTH 18 0
BBX 14 29 2 0
BITMAP
3C78
1EF0
0FE0
07C0
0000
0000
0000
38E0
38E0
38E0
0000
0000
E01C
E01C
E01C
E01C
E01C
E01C
E01C
E01C
E01C
E01C
E01C
E01C
F03C
F87C
7FDC
7FDC
1F1C
ENDCHAR
STARTCHAR uni01DB
ENCODING 475
SWIDTH 722 0
DWIDTH 23 0
BBX 17 29 3 0
BITMAP
078000
01C000
00C000
061800
061800
000000
E00380
E00380
E00380
E00380
E00380
E00380
E00380
E00380
E00380
E00380
E00380
E00380
E00380
E00380
E00380
E00380
E00380
F00780
700700
7C1F00
3FFE00
1FFC00
07F000
ENDCHAR
STARTCHAR uni01DC
ENCODING 476
SWIDTH 556 0
DWIDTH 18 0
BBX 14 29 2 0
BITMAP
0E00
0700
0300
0180
0000
0000
0000
38E0
38E0
38E0
0000
0000
E01C
E01C
E01C
E01C
E01C
E01C
E01C
E01C
E01C
E01C
E01C
E01C
F03C
F87C
7FDC
7FDC
1F1C
ENDCHAR
STARTCHAR uni01DD
ENCODING 477
SWIDTH 556 0
DWIDTH 18 0
BBX 16 17 1 0
BITMAP
0FE0
1FF8
3FFC
783E
F00E
E00F
0007
0007
FFFF
FFFF
E007
E007
700E
783E
3FFC
1FF8
07E0
ENDCHAR
STARTCHAR uni01DE
ENCODING 478
SWIDTH 666 0
DWIDTH 21 0
BBX 21 29 0 0
BITMAP
03FC00
03FC00
000000
030C00
030C00
000000
00F800
00F800
00F800
01DC00
01DC00
01DC00
038E00
038E00
070700
070700
070700
0E0380
0E0380
0FFF80
1FFFC0
1FFFC0
3800E0
3800E0
3800E0
700070
700070
700070
E00038
ENDCHAR
STARTCHAR uni01DF
ENCODING 479
SWIDTH 556 0
DWIDTH 17 0
BBX 15 28 1 0
BITMAP
1FF8
1FF8
1FF8
0000
0000
1C70
1C70
1C70
0000
0000
0000
0FE0
3FF8
7FF8
F03C
E01C
001C
007C
0FFC
3FFC
7F9C
F01C
E01C
E03C
F0FC
7FFC
7FDC
1F8E
ENDCHAR
STARTCHAR uni01E0
ENCODING 480
SWIDTH 666 0
DWIDTH 21 0
BBX 21 29 0 0
BITMAP
03FC00
03FC00
000000
006000
006000
000000
00F800
00F800
00F800
01DC00
01DC00
01DC00
038E00
038E00
070700
070700
070700
0E0380
0E0380
0FFF80
1FFFC0
1FFFC0
3800E0
3800E0
3800E0
700070
700070
700070
E00038
ENDCHAR
STARTCHAR uni01E1
ENCODING 481
SWIDTH 556 0
DWIDTH 17 0
BBX 15 28 1 0
BITMAP
1FF8
1FF8
1FF8
0000
0000
0380
0380
0380
0000
0000
0000
0FE0
3FF8
7FF8
F03C
E01C
001C
007C
0FFC
3FFC
7F9C
F01C
E01C
E03C
F0FC
7FFC
7FDC
1F8E
ENDCHAR
STARTCHAR uni01E2
ENCODING 482
SWIDTH 1000 0
DWIDTH 32 0
BBX 30 28 0 0
BITMAP
0001FF80
0001FF80
0001FF80
00000000
00000000
003FFFF8
003FFFF8
007FFFF8
0071C000
0071C000
00E1C000
00E1C000
01C1C000
01C1C000
0381FFF0
0381FFF0
0701FFF0
0701C000
0E01C000
0FFFC000
1FFFC000
1FFFC000
3801C000
3801C000
7001C000
7001FFFC
E001FFFC
E001FFFC
ENDCHAR
STARTCHAR uni01E3
ENCODING 483
SWIDTH 889 0
DWIDTH 28 0
BBX 26 22 1 0
BITMAP
00FFC000
00FFC000
00FFC000
00000000
00000000
0FE0F800
3FFBFE00
7FFFFF00
F03F0780
E01E0380
007C01C0
0FFFFFC0
3FFFFFC0
7F9FFFC0
F81C0000
E01C0000
E01C0000
E03E01C0
F07F0780
7FF7FF80
3FE3FF00
1F80FC00
ENDCHAR
STARTCHAR uni01E4
ENCODING 484
SWIDTH 777 0
DWIDTH 25 0
BBX 24 23 1 0
BITMAP
00FF00
07FFC0
0FFFE0
1F01F0
3C0078
780038
70003C
700018
E00000
E00000
E00000
E00FFC
E00FFC
E00FFC
E0001C
70001C
700FFF
780FFF
3C003C
1F01FC
0FFFF8
07FFE0
00FF00
ENDCHAR
STARTCHAR uni01E5
ENCODING 485
SWIDTH 556 0
DWIDTH 18 0
BBX 17 23 0 -6
BITMAP
07C700
0FF700
1FFF00
3C1F00
380F00
700F00
700700
700700
700700
700700
700700
780F00
3C1F00
1FFF00
0FF700
07C700
000700
FFFF80
000E00
3C1E00
3FFC00
1FF800
07F000
ENDCHAR
STARTCHAR uni01E6
ENCODING 486
SWIDTH 777 0
DWIDTH 25 0
BBX 22 29 1 0
BITMAP
01C380
01EF00
00FE00
007C00
000000
000000
00FF00
07FFC0
0FFFE0
1F01F0
3C0078
780038
70003C
700000
E00000
E00000
E00000
E00FFC
E00FFC
E00FFC
E0001C
70001C
70001C
78001C
3C003C
1F81FC
0FFFF8
03FFE0
00FF00
ENDCHAR
STARTCHAR uni01E7
ENCODING 487
SWIDTH 556 0
DWIDTH 17 0
BBX 14 29 1 -6
BITMAP
3870
1CE0
0FC0
0F80
0000
0000
0F9C
1FFC
3FFC
787C
703C
E03C
E01C
E01C
E01C
E01C
E01C
E03C
703C
787C
3FFC
1FFC
0F9C
001C
E03C
F078
7FF8
7FF0
1FC0
ENDCHAR
STARTCHAR uni01E8
ENCODING 488
SWIDTH 666 0
DWIDTH 21 0
BBX 19 29 3 0
BITMAP
1E3800
0F7800
07F000
03E000
000000
000000
E003C0
E00780
E00F00
E01E00
E03C00
E07800
E0F000
E1E000
E3C000
E78000
EF8000
FFC000
FDE000
F8F000
F0F000
E07800
E03C00
E01E00
E00E00
E00700
E00780
E003C0
E001E0
ENDCHAR
STARTCHAR uni01E9
ENCODING 489
SWIDTH 500 0
DWIDTH 16 0
BBX 14 29 2 0
BITMAP
E1C0
7BC0
3F80
1F00
0000
0000
E000
E000
E000
E000
E000
E000
E03C
E078
E0F0
E1E0
E3C0
E780
EF00
FF00
FF80
F380
E3C0
E1E0
E0E0
E0F0
E070
E038
E03C
ENDCHAR
STARTCHAR uni01EA
ENCODING 490
SWIDTH 777 0
DWIDTH 25 0
BBX 23 29 1 -6
BITMAP
00FE00
07FFC0
0FFFE0
1F01F0
3C0078
78003C
70001C
70001C
E0000E
E0000E
E0000E
E0000E
E0000E
E0000E
E0000E
70001C
70001C
78003C
3C0078
1F01F0
0FFFE0
07FFC0
00FE00
000C00
001800
001800
001800
001F00
000F00
ENDCHAR
STARTCHAR uni01EB
ENCODING 491
SWIDTH 556 0
DWIDTH 17 0
BBX 15 23 1 -6
BITMAP
07C0
1FF0
3FF8
783C
701C
F01E
E00E
E00E
E00E
E00E
E00E
F01E
701C
783C
3FF8
1FF0
07C0
00C0
0180
0180
0180
01F0
00F0
ENDCHAR
STARTCHAR uni01EC
ENCODING 492
SWIDTH 777 0
DWIDTH 25 0
BBX 23 34 1 -6
BITMAP
01FF80
01FF80
01FF80
000000
000000
00FE00
07FFC0
0FFFE0
1F01F0
3C0078
78003C
70001C
70001C
E0000E
E0000E
E0000E
E0000E
E0000E
E0000E
E0000E
70001C
70001C
78003C
3C0078
1F01F0
0FFFE0
07FFC0
00FE00
000C00
001800
001800
001800
001F00
000F00
ENDCHAR
STARTCHAR uni01ED
ENCODING 493
SWIDTH 556 0
DWIDTH 17 0
BBX 15 28 1 -6
BITMAP
1FF8
1FF8
1FF8
0000
0000
07C0
1FF0
3FF8
783C
701C
F01E
E00E
E00E
E00E
E00E
E00E
F01E
701C
783C
3FF8
1FF0
07C0
00C0
0180
0180
0180
01F0
00F0
ENDCHAR
STARTCHAR uni01EE
ENCODING 494
SWIDTH 610 0
DWIDTH 20 0
BBX 18 35 1 -6
BITMAP
070E00
07BC00
03F800
01F000
000000
000000
7FFFC0
7FFFC0
7FFFC0
0003C0
000780
000F00
001E00
003C00
007800
00F000
00F800
00FE00
00FF00
001F80
000780
0003C0
0001C0
0001C0
0001C0
0001C0
0001C0
0001C0
E003C0
F00380
780780
7C1F00
3FFE00
1FFC00
07F000
ENDCHAR
STARTCHAR uni01EF
ENCODING 495
SWIDTH 544 0
DWIDTH 17 0
BBX 15 29 1 -6
BITMAP
1C38
0F70
07E0
03E0
0000
0000
7FFC
7FFC
7FFC
0038
0070
00E0
01C0
0380
07E0
07F0
07F8
003C
001E
000E
000E
000E
E00E
E01E
F01C
787C
3FF8
1FF0
0FC0
ENDCHAR
STARTCHAR uni01F0
ENCODING 496
SWIDTH 222 0
DWIDTH 7 0
BBX 11 29 -2 -6
BITMAP
70E0
39C0
1F80
0F00
0000
0000
0E00
0E00
0E00
0E00
0E00
0E00
0E00
0E00
0E00
0E00
0E00
0E00
0E00
0E00
0E00
0E00
0E00
0E00
0E00
1E00
FE00
FC00
F800
ENDCHAR
STARTCHAR uni01F1
ENCODING 497
SWIDTH 1333 0
DWIDTH 43 0
BBX 39 23 3 0
BITMAP
FFF807FFFC
FFFE07FFFC
FFFF07FFFC
E00F80003C
E003800078
E003C000F0
E001C001E0
E001E001C0
E000E00380
E000E00700
E000E00F00
E000E01E00
E000E03C00
E000E07800
E000E07000
E001E0E000
E001C1E000
E003C3C000
E003878000
E00F8F0000
FFFF0FFFFE
FFFE0FFFFE
FFF00FFFFE
ENDCHAR
STARTCHAR uni01F2
ENCODING 498
SWIDTH 1222 0
DWIDTH 39 0
BBX 34 23 3 0
BITMAP
FFF8000000
FFFE000000
FFFF000000
E00F800000
E003800000
E003C00000
E001C7FFC0
E001E7FFC0
E000E7FFC0
E000E003C0
E000E00780
E000E00F00
E000E01E00
E000E03C00
E000E07800
E001E0F000
E001C1E000
E003C3C000
E003878000
E00F8F0000
FFFF0FFFC0
FFFE0FFFC0
FFF00FFFC0
ENDCHAR
STARTCHAR uni01F3
ENCODING 499
SWIDTH 1048 0
DWIDTH 34 0
BBX 31 23 1 0
BITMAP
001C0000
001C0000
001C0000
001C0000
001C0000
001C0000
0F9C3FFE
1FDC3FFE
3FFC3FFE
787C001E
703C003C
E03C0078
E01C00F0
E01C01E0
E01C03C0
E01C0780
E01C0F00
F01C1E00
703C3C00
787C7800
3FFC7FFE
1FDC7FFE
0F9C7FFE
ENDCHAR
STARTCHAR uni01F4
ENCODING 500
SWIDTH 777 0
DWIDTH 25 0
BBX 22 29 1 0
BITMAP
000F00
000E00
001C00
001800
000000
000000
00FF00
07FFC0
0FFFE0
1F01F0
3C0078
780038
70003C
700000
E00000
E00000
E00000
E00FFC
E00FFC
E00FFC
E0001C
70001C
70001C
78001C
3C003C
1F81FC
0FFFF8
03FFE0
00FF00
ENDCHAR
STARTCHAR uni01F5
ENCODING 501
SWIDTH 556 0
DWIDTH 17 0
BBX 14 29 1 -6
BITMAP
01C0
0380
0300
0600
0000
0000
0F9C
1FFC
3FFC
787C
703C
E03C
E01C
E01C
E01C
E01C
E01C
E03C
703C
787C
3FFC
1FFC
0F9C
001C
E03C
F078
7FF8
7FF0
1FC0
ENDCHAR
STARTCHAR uni01F6
ENCODING 502
SWIDTH 1034 0
DWIDTH 33 0
BBX 28 23 3 0
BITMAP
E001C000
E001C000
E001C000
E001C000
E001C000
E001C000
E001C070
E001C070
E001C070
FFFFC070
FFFFC070
FFFFC070
E001C070
E001C070
E001C070
E001C070
E001C070
E001C070
E001C0F0
E001E1E0
E000FFE0
E0007FC0
E0003F00
ENDCHAR
STARTCHAR uni01F7
ENCODING 503
SWIDTH 618 0
DWIDTH 20 0
BBX 17 29 2 -6
BITMAP
E3F800
EFFE00
FFFF00
FC0F00
F80780
F00380
E00380
E00380
E00380
E00380
E00380
E00700
E00700
E00F00
E00E00
E01C00
E03C00
E07800
E0F000
E1E000
E3C000
EF8000
FF0000
FC0000
F00000
E00000
E00000
E00000
E00000
ENDCHAR
STARTCHAR uni01F8
ENCODING 504
SWIDTH 722 0
DWIDTH 23 0
BBX 17 29 3 0
BITMAP
0F0000
070000
038000
018000
000000
000000
E00380
F00380
F80380
F80380
FC0380
FC0380
EE0380
E70380
E70380
E38380
E38380
E1C380
E0E380
E0E380
E07380
E07380
E03B80
E01F80
E01F80
E00F80
E00F80
E00780
E00380
ENDCHAR
STARTCHAR uni01F9
ENCODING 505
SWIDTH 556 0
DWIDTH 18 0
BBX 14 23 2 0
BITMAP
0F00
0700
0380
0180
0000
0000
E7E0
EFF8
FFF8
F83C
F01C
E01C
E01C
E01C
E01C
E01C
E01C
E01C
E01C
E01C
E01C
E01C
E01C
ENDCHAR
STARTCHAR Aringacute
ENCODING 506
SWIDTH 666 0
DWIDTH 21 0
BBX 21 31 0 0
BITMAP
001E00
003C00
003800
007000
007000
008800
008800
008800
00F800
00F800
00F800
01DC00
01DC00
01DC00
038E00
038E00
070700
070700
070700
0E0380
0E0380
0FFF80
1FFFC0
1FFFC0
3800E0
3800E0
3800E0
700070
700070
700070
E00038
ENDCHAR
STARTCHAR aringacute
ENCODING 507
SWIDTH 556 0
DWIDTH 17 0
BBX 15 29 1 0
BITMAP
00F0
01E0
01C0
0380
0000
0380
0440
0440
0440
0380
0000
0000
0FE0
3FF8
7FF8
F03C
E01C
001C
007C
0FFC
3FFC
7F9C
F01C
E01C
E03C
F0FC
7FFC
7FDC
1F8E
ENDCHAR
STARTCHAR AEacute
ENCODING 508
SWIDTH 1000 0
DWIDTH 32 0
BBX 30 29 0 0
BITMAP
0001E000
0001C000
00038000
00030000
00000000
00000000
003FFFF8
003FFFF8
007FFFF8
0071C000
0071C000
00E1C000
00E1C000
01C1C000
01C1C000
0381FFF0
0381FFF0
0701FFF0
0701C000
0E01C000
0FFFC000
1FFFC000
1FFFC000
3801C000
3801C000
7001C000
7001FFFC
E001FFFC
E001FFFC
ENDCHAR
STARTCHAR aeacute
ENCODING 509
SWIDTH 889 0
DWIDTH 28 0
BBX 26 23 1 0
BITMAP
0003C000
00078000
00070000
000E0000
00000000
00000000
0FE0F800
3FFBFE00
7FFFFF00
F03F0780
E01E0380
007C01C0
0FFFFFC0
3FFFFFC0
7F9FFFC0
F81C0000
E01C0000
E01C0000
E03E01C0
F07F0780
7FF7FF80
3FE3FF00
1F80FC00
ENDCHAR
STARTCHAR Oslashacute
ENCODING 510
SWIDTH 777 0
DWIDTH 25 0
BBX 23 30 1 -1
BITMAP
000F00
001E00
001C00
003800
000000
000000
00FE06
07FF8E
0FFFFC
1F01F8
3C0078
7800F8
7001DC
70039C
E0070E
E00E0E
E01C0E
E0380E
E0780E
E0700E
E0E00E
71C01C
73801C
3F003C
3E0078
1F01F0
3FFFE0
77FFC0
E0FE00
400000
ENDCHAR
STARTCHAR oslashacute
ENCODING 511
SWIDTH 610 0
DWIDTH 20 0
BBX 16 24 2 -1
BITMAP
00F0
01E0
01C0
0380
0000
0006
07C7
1FFE
3FFC
7C3E
707E
F07F
E0E7
E1C7
E387
E707
E707
EE0F
FC0E
783E
7FFC
7FF8
E7E0
4000
ENDCHAR
STARTCHAR uni0200
ENCODING 512
SWIDTH 666 0
DWIDTH 21 0
BBX 21 29 0 0
BITMAP
039C00
039C00
01CE00
00C600
000000
000000
00F800
00F800
00F800
01DC00
01DC00
01DC00
038E00
038E00
070700
070700
070700
0E0380
0E0380
0FFF80
1FFFC0
1FFFC0
3800E0
3800E0
3800E0
700070
700070
700070
E00038
ENDCHAR
STARTCHAR uni0201
ENCODING 513
SWIDTH 556 0
DWIDTH 17 0
BBX 15 23 1 0
BITMAP
39C0
1CE0
0C60
0E70
0000
0000
0FE0
3FF8
7FF8
F03C
E01C
001C
007C
0FFC
3FFC
7F9C
F01C
E01C
E03C
F0FC
7FFC
7FDC
1F8E
ENDCHAR
STARTCHAR uni0202
ENCODING 514
SWIDTH 666 0
DWIDTH 21 0
BBX 21 29 0 0
BITMAP
00F800
01FC00
018600
038600
000000
000000
00F800
00F800
00F800
01DC00
01DC00
01DC00
038E00
038E00
070700
070700
070700
0E0380
0E0380
0FFF80
1FFFC0
1FFFC0
3800E0
3800E0
3800E0
700070
700070
700070
E00038
ENDCHAR
STARTCHAR uni0203
ENCODING 515
SWIDTH 556 0
DWIDTH 17 0
BBX 15 23 1 0
BITMAP
07C0
0FE0
1C70
1830
0000
0000
0FE0
3FF8
7FF8
F03C
E01C
001C
007C
0FFC
3FFC
7F9C
F01C
E01C
E03C
F0FC
7FFC
7FDC
1F8E
ENDCHAR
STARTCHAR uni0204
ENCODING 516
SWIDTH 666 0
DWIDTH 21 0
BBX 16 29 3 0
BITMAP
39C0
18C0
1C60
0C60
0000
0000
FFFE
FFFE
FFFE
E000
E000
E000
E000
E000
E000
FFFC
FFFC
FFFC
E000
E000
E000
E000
E000
E000
E000
E000
FFFF
FFFF
FFFF
ENDCHAR
STARTCHAR uni0205
ENCODING 517
SWIDTH 556 0
DWIDTH 17 0
BBX 15 23 1 0
BITMAP
39C0
1CE0
0C60
0E70
0000
0000
07C0
1FF0
3FF8
783C
701C
E00E
E00E
FFFE
FFFE
E000
E000
F000
700E
7C3C
3FFC
1FF8
07E0
ENDCHAR
STARTCHAR uni0206
ENCODING 518
SWIDTH 666 0
DWIDTH 21 0
BBX 16 29 3 0
BITMAP
07C0
0FE0
1C70
1830
0000
0000
FFFE
FFFE
FFFE
E000
E000
E000
E000
E000
E000
FFFC
FFFC
FFFC
E000
E000
E000
E000
E000
E000
E000
E000
FFFF
FFFF
FFFF
ENDCHAR
STARTCHAR uni0207
ENCODING 519
SWIDTH 556 0
DWIDTH 17 0
BBX 15 23 1 0
BITMAP
07C0
0FE0
1C70
1830
0000
0000
07C0
1FF0
3FF8
783C
701C
E00E
E00E
FFFE
FFFE
E000
E000
F000
700E
7C3C
3FFC
1FF8
07E0
ENDCHAR
STARTCHAR uni0208
ENCODING 520
SWIDTH 277 0
DWIDTH 9 0
BBX 9 29 -2 0
BITMAP
E700
6300
7180
3180
0000
0000
0700
0700
0700
0700
0700
0700
0700
0700
0700
0700
0700
0700
0700
0700
0700
0700
0700
0700
0700
0700
0700
0700
0700
ENDCHAR
STARTCHAR uni0209
ENCODING 521
SWIDTH 277 0
DWIDTH 9 0
BBX 10 23 -2 0
BITMAP
E700
7380
3180
18C0
0000
0000
0700
0700
0700
0700
0700
0700
0700
0700
0700
0700
0700
0700
0700
0700
0700
0700
0700
ENDCHAR
STARTCHAR uni020A
ENCODING 522
SWIDTH 277 0
DWIDTH 9 0
BBX 9 29 1 0
BITMAP
3E00
7F00
E300
C180
0000
0000
3800
3800
3800
3800
3800
3800
3800
3800
3800
3800
3800
3800
3800
3800
3800
3800
3800
3800
3800
3800
3800
3800
3800
ENDCHAR
STARTCHAR uni020B
ENCODING 523
SWIDTH 277 0
DWIDTH 9 0
BBX 8 23 1 0
BITMAP
3C
FF
C3
C3
00
00
38
38
38
38
38
38
38
38
38
38
38
38
38
38
38
38
38
ENDCHAR
STARTCHAR uni020C
ENCODING 524
SWIDTH 777 0
DWIDTH 25 0
BBX 23 29 1 0
BITMAP
073800
039C00
018C00
01C600
000000
000000
00FE00
07FFC0
0FFFE0
1F01F0
3C0078
78003C
70001C
70001C
E0000E
E0000E
E0000E
E0000E
E0000E
E0000E
E0000E
70001C
70001C
78003C
3C0078
1F01F0
0FFFE0
07FFC0
00FE00
ENDCHAR
STARTCHAR uni020D
ENCODING 525
SWIDTH 556 0
DWIDTH 17 0
BBX 15 23 1 0
BITMAP
39C0
18C0
1CE0
0C60
0000
0000
07C0
1FF0
3FF8
783C
701C
F01E
E00E
E00E
E00E
E00E
E00E
F01E
701C
783C
3FF8
1FF0
07C0
ENDCHAR
STARTCHAR uni020E
ENCODING 526
SWIDTH 777 0
DWIDTH 25 0
BBX 23 29 1 0
BITMAP
003C00
00FF00
00C300
00C300
000000
000000
00FE00
07FFC0
0FFFE0
1F01F0
3C0078
78003C
70001C
70001C
E0000E
E0000E
E0000E
E0000E
E0000E
E0000E
E0000E
70001C
70001C
78003C
3C0078
1F01F0
0FFFE0
07FFC0
00FE00
ENDCHAR
STARTCHAR uni020F
ENCODING 527
SWIDTH 556 0
DWIDTH 17 0
BBX 15 23 1 0
BITMAP
07C0
0FE0
1C70
1830
0000
0000
07C0
1FF0
3FF8
783C
701C
F01E
E00E
E00E
E00E
E00E
E00E
F01E
701C
783C
3FF8
1FF0
07C0
ENDCHAR
STARTCHAR uni0210
ENCODING 528
SWIDTH 722 0
DWIDTH 23 0
BBX 18 29 3 0
BITMAP
39C000
39C000
1CE000
0C6000
000000
000000
FFF800
FFFE00
FFFF00
E00F00
E00780
E00380
E00380
E00380
E00780
E00F00
FFFF00
FFFE00
FFF800
E0F000
E07800
E03C00
E01C00
E01E00
E00F00
E00700
E00780
E00380
E003C0
ENDCHAR
STARTCHAR uni0211
ENCODING 529
SWIDTH 333 0
DWIDTH 11 0
BBX 10 23 1 0
BITMAP
E700
6300
7180
3180
0000
0000
73C0
77C0
7F80
7C00
7800
7000
7000
7000
7000
7000
7000
7000
7000
7000
7000
7000
7000
ENDCHAR
STARTCHAR uni0212
ENCODING 530
SWIDTH 722 0
DWIDTH 23 0
BBX 18 29 3 0
BITMAP
03E000
07F000
0E3800
0C1800
000000
000000
FFF800
FFFE00
FFFF00
E00F00
E00780
E00380
E00380
E00380
E00780
E00F00
FFFF00
FFFE00
FFF800
E0F000
E07800
E03C00
E01C00
E01E00
E00F00
E00700
E00780
E00380
E003C0
ENDCHAR
STARTCHAR uni0213
ENCODING 531
SWIDTH 333 0
DWIDTH 11 0
BBX 9 23 2 0
BITMAP
3E00
7F00
6380
C180
0000
0000
E780
EF80
FF00
F800
F000
E000
E000
E000
E000
E000
E000
E000
E000
E000
E000
E000
E000
ENDCHAR
STARTCHAR uni0214
ENCODING 532
SWIDTH 722 0
DWIDTH 23 0
BBX 17 29 3 0
BITMAP
1CE000
1CE000
0E7000
063000
000000
000000
E00380
E00380
E00380
E00380
E00380
E00380
E00380
E00380
E00380
E00380
E00380
E00380
E00380
E00380
E00380
E00380
E00380
F00780
700700
7C1F00
3FFE00
1FFC00
07F000
ENDCHAR
STARTCHAR uni0215
ENCODING 533
SWIDTH 556 0
DWIDTH 18 0
BBX 14 23 2 0
BITMAP
39C0
39C0
1CE0
0C60
0000
0000
E01C
E01C
E01C
E01C
E01C
E01C
E01C
E01C
E01C
E01C
E01C
E01C
F03C
F87C
7FDC
7FDC
1F1C
ENDCHAR
STARTCHAR uni0216
ENCODING 534
SWIDTH 722 0
DWIDTH 23 0
BBX 17 29 3 0
BITMAP
01E000
07F800
061800
061800
000000
000000
E00380
E00380
E00380
E00380
E00380
E00380
E00380
E00380
E00380
E00380
E00380
E00380
E00380
E00380
E00380
E00380
E00380
F00780
700700
7C1F00
3FFE00
1FFC00
07F000
ENDCHAR
STARTCHAR uni0217
ENCODING 535
SWIDTH 556 0
DWIDTH 18 0
BBX 14 23 2 0
BITMAP
07C0
0FE0
1C60
1830
0000
0000
E01C
E01C
E01C
E01C
E01C
E01C
E01C
E01C
E01C
E01C
E01C
E01C
F03C
F87C
7FDC
7FDC
1F1C
ENDCHAR
STARTCHAR Scommaaccent
ENCODING 536
SWIDTH 666 0
DWIDTH 21 0
BBX 18 31 1 -8
BITMAP
07F000
1FFC00
3FFE00
3C0F00
780780
700380
700380
700000
380000
3F8000
1FF800
07FE00
007F00
000F80
0003C0
E001C0
E001C0
F001C0
7003C0
7C0F80
3FFF00
1FFE00
03F800
000000
000000
00E000
00E000
00E000
006000
006000
004000
ENDCHAR
STARTCHAR scommaaccent
ENCODING 537
SWIDTH 500 0
DWIDTH 16 0
BBX 14 25 1 -8
BITMAP
1F80
3FE0
7FF0
F078
E038
F000
FE00
7FC0
3FF0
07F8
007C
E01C
F01C
783C
7FF8
3FF0
0FC0
0000
0000
0780
0780
0700
0100
0300
0200
ENDCHAR
STARTCHAR uni021A
ENCODING 538
SWIDTH 610 0
DWIDTH 19 0
BBX 19 32 0 -9
BITMAP
FFFFE0
FFFFE0
FFFFE0
00E000
00E000
00E000
00E000
00E000
00E000
00E000
00E000
00E000
00E000
00E000
00E000
00E000
00E000
00E000
00E000
00E000
00E000
00E000
00E000
000000
000000
00E000
00E000
00E000
006000
006000
00C000
008000
ENDCHAR
STARTCHAR uni021B
ENCODING 539
SWIDTH 277 0
DWIDTH 9 0
BBX 8 32 1 -9
BITMAP
08
18
38
38
38
38
FF
FF
FF
38
38
38
38
38
38
38
38
38
38
38
3F
3F
1F
00
00
0E
0E
0E
02
02
04
0C
ENDCHAR
STARTCHAR uni021C
ENCODING 540
SWIDTH 544 0
DWIDTH 17 0
BBX 14 29 1 -6
BITMAP
0FC0
3FF0
7FF8
F878
603C
401C
001C
001C
001C
0038
0038
0070
01F0
07F8
1FBC
7E1C
781C
401C
001C
001C
0038
0078
00F0
01E0
07C0
1F80
7E00
7800
4000
ENDCHAR
STARTCHAR uni021D
ENCODING 541
SWIDTH 436 0
DWIDTH 14 0
BBX 13 23 0 -6
BITMAP
0FC0
3FE0
7FF0
F078
6038
2038
0038
0038
0070
01E0
1FF0
7FF8
7C38
6038
0038
0038
0078
00F0
03E0
1FC0
7F00
7C00
6000
ENDCHAR
STARTCHAR uni021E
ENCODING 542
SWIDTH 722 0
DWIDTH 23 0
BBX 17 29 3 0
BITMAP
0E1C00
07B800
03F000
01F000
000000
000000
E00380
E00380
E00380
E00380
E00380
E00380
E00380
E00380
E00380
FFFF80
FFFF80
FFFF80
E00380
E00380
E00380
E00380
E00380
E00380
E00380
E00380
E00380
E00380
E00380
ENDCHAR
STARTCHAR uni021F
ENCODING 543
SWIDTH 556 0
DWIDTH 18 0
BBX 14 29 2 0
BITMAP
3870
1EE0
0FC0
07C0
0000
0000
E000
E000
E000
E000
E000
E000
E3E0
EFF8
FFF8
F87C
F03C
E01C
E01C
E01C
E01C
E01C
E01C
E01C
E01C
E01C
E01C
E01C
E01C
ENDCHAR
STARTCHAR uni0220
ENCODING 544
SWIDTH 706 0
DWIDTH 23 0
BBX 17 29 3 -6
BITMAP
E1F800
EFFE00
FFFF00
FC0F00
E00780
E00380
E00380
E00380
E00380
E00380
E00380
E00380
E00380
E00380
E00380
E00380
E00380
E00380
E00380
E00380
E00380
E00380
E00380
000380
000380
000380
000380
000380
000380
ENDCHAR
STARTCHAR uni0221
ENCODING 545
SWIDTH 681 0
DWIDTH 22 0
BBX 21 29 1 -6
BITMAP
000E00
000E00
000E00
000E00
000E00
000E00
07CE00
1FEE00
3FFE00
787E00
701E00
F01E00
E00E00
E00E00
E00E00
E00E00
E00E00
F01E00
701E00
783E00
3FFE00
1FEFE0
07CFF0
000E38
001E38
003E38
007738
0067F0
0023E0
ENDCHAR
STARTCHAR uni0222
ENCODING 546
SWIDTH 604 0
DWIDTH 19 0
BBX 17 23 1 0
BITMAP
007000
007C00
001E00
0F0F00
3F0700
780700
700700
700F00
781E00
3FFC00
07F000
3FFE00
780F00
F00700
E00380
E00380
E00380
E00380
F00780
7C1F00
3FFE00
1FFC00
07F000
ENDCHAR
STARTCHAR uni0223
ENCODING 547
SWIDTH 565 0
DWIDTH 18 0
BBX 16 23 1 0
BITMAP
0830
1C38
381C
781E
700E
700E
700E
781E
3C3C
1FF8
07E0
3FFC
781E
F00F
E007
E007
E007
E007
F00F
781E
7FFE
3FFC
0FE0
ENDCHAR
STARTCHAR uni0224
ENCODING 548
SWIDTH 610 0
DWIDTH 20 0
BBX 18 27 1 -4
BITMAP
7FFFC0
7FFFC0
7FFFC0
0001C0
000380
000700
000E00
001C00
003800
007000
00E000
01E000
01C000
038000
070000
0E0000
1C0000
380000
700000
E00000
FFFF00
FFFF80
FFFFC0
0001C0
0000C0
0000C0
0000C0
ENDCHAR
STARTCHAR uni0225
ENCODING 549
SWIDTH 500 0
DWIDTH 16 0
BBX 14 21 1 -4
BITMAP
7FF8
7FF8
7FF8
00F0
01E0
01C0
0380
0780
0F00
0E00
1C00
3800
7800
F000
FFF0
FFF8
FFFC
001C
000C
000C
000C
ENDCHAR
STARTCHAR uni0226
ENCODING 550
SWIDTH 666 0
DWIDTH 21 0
BBX 21 28 0 0
BITMAP
007000
007000
007000
000000
000000
00F800
00F800
00F800
01DC00
01DC00
01DC00
038E00
038E00
070700
070700
070700
0E0380
0E0380
0FFF80
1FFFC0
1FFFC0
3800E0
3800E0
3800E0
700070
700070
700070
E00038
ENDCHAR
STARTCHAR uni0227
ENCODING 551
SWIDTH 556 0
DWIDTH 17 0
BBX 15 22 1 0
BITMAP
01C0
01C0
01C0
0000
0000
0FE0
3FF8
7FF8
F03C
E01C
001C
007C
0FFC
3FFC
7F9C
F01C
E01C
E03C
F0FC
7FFC
7FDC
1F8E
ENDCHAR
STARTCHAR uni0228
ENCODING 552
SWIDTH 666 0
DWIDTH 21 0
BBX 16 29 3 -6
BITMAP
FFFE
FFFE
FFFE
E000
E000
E000
E000
E000
E000
FFFE
FFFE
FFFE
E000
E000
E000
E000
E000
E000
E000
E000
FFFF
FFFF
FFFF
0180
03C0
0060
0060
07E0
0780
ENDCHAR
STARTCHAR uni0229
ENCODING 553
SWIDTH 556 0
DWIDTH 18 0
BBX 16 23 1 -6
BITMAP
07E0
1FF8
3FFC
7C1E
700E
F007
E007
FFFF
FFFF
E000
E000
F007
700F
7C1E
3FFC
1FF8
07E0
0180
01C0
0060
0060
07E0
0780
ENDCHAR
STARTCHAR uni022A
ENCODING 554
SWIDTH 777 0
DWIDTH 25 0
BBX 23 29 1 0
BITMAP
01FF00
01FF00
000000
01C700
01C700
000000
00FE00
07FFC0
0FFFE0
1F01F0
3C0078
78003C
70001C
70001C
E0000E
E0000E
E0000E
E0000E
E0000E
E0000E
E0000E
70001C
70001C
78003C
3C0078
1F01F0
0FFFE0
07FFC0
00FE00
ENDCHAR
STARTCHAR uni022B
ENCODING 555
SWIDTH 556 0
DWIDTH 17 0
BBX 15 28 1 0
BITMAP
1FF8
1FF8
1FF8
0000
0000
1C70
1C70
1C70
0000
0000
0000
07C0
1FF0
3FF8
783C
701C
F01E
E00E
E00E
E00E
E00E
E00E
F01E
701C
783C
3FF8
1FF0
07C0
ENDCHAR
STARTCHAR uni022C
ENCODING 556
SWIDTH 777 0
DWIDTH 25 0
BBX 23 29 1 0
BITMAP
00FF00
00FF00
000000
00F300
009E00
000000
00FE00
07FFC0
0FFFE0
1F01F0
3C0078
78003C
70001C
70001C
E0000E
E0000E
E0000E
E0000E
E0000E
E0000E
E0000E
70001C
70001C
78003C
3C0078
1F01F0
0FFFE0
07FFC0
00FE00
ENDCHAR
STARTCHAR uni022D
ENCODING 557
SWIDTH 556 0
DWIDTH 17 0
BBX 15 28 1 0
BITMAP
1FF8
1FF8
1FF8
0000
0000
0E30
1FF0
1FE0
19E0
0000
0000
07C0
1FF0
3FF8
783C
701C
F01E
E00E
E00E
E00E
E00E
E00E
F01E
701C
783C
3FF8
1FF0
07C0
ENDCHAR
STARTCHAR uni022E
ENCODING 558
SWIDTH 777 0
DWIDTH 25 0
BBX 23 28 1 0
BITMAP
003800
003800
003800
000000
000000
00FE00
07FFC0
0FFFE0
1F01F0
3C0078
78003C
70001C
70001C
E0000E
E0000E
E0000E
E0000E
E0000E
E0000E
E0000E
70001C
70001C
78003C
3C0078
1F01F0
0FFFE0
07FFC0
00FE00
ENDCHAR
STARTCHAR uni022F
ENCODING 559
SWIDTH 556 0
DWIDTH 17 0
BBX 15 22 1 0
BITMAP
0380
0380
0380
0000
0000
07C0
1FF0
3FF8
783C
701C
F01E
E00E
E00E
E00E
E00E
E00E
F01E
701C
783C
3FF8
1FF0
07C0
ENDCHAR
STARTCHAR uni0230
ENCODING 560
SWIDTH 777 0
DWIDTH 25 0
BBX 23 29 1 0
BITMAP
01FF00
01FF00
000000
003800
003800
000000
00FE00
07FFC0
0FFFE0
1F01F0
3C0078
78003C
70001C
70001C
E0000E
E0000E
E0000E
E0000E
E0000E
E0000E
E0000E
70001C
70001C
78003C
3C0078
1F01F0
0FFFE0
07FFC0
00FE00
ENDCHAR
STARTCHAR uni0231
ENCODING 561
SWIDTH 556 0
DWIDTH 17 0
BBX 15 28 1 0
BITMAP
1FF8
1FF8
1FF8
0000
0000
0380
0380
0380
0000
0000
0000
07C0
1FF0
3FF8
783C
701C
F01E
E00E
E00E
E00E
E00E
E00E
F01E
701C
783C
3FF8
1FF0
07C0
ENDCHAR
STARTCHAR uni0232
ENCODING 562
SWIDTH 666 0
DWIDTH 21 0
BBX 21 28 0 0
BITMAP
03FF00
03FF00
03FF00
000000
000000
E00078
7000F0
3800E0
3C01E0
1C03C0
0E0380
0F0780
078F00
038E00
03DE00
01DC00
00F800
00F800
007000
007000
007000
007000
007000
007000
007000
007000
007000
007000
ENDCHAR
STARTCHAR uni0233
ENCODING 563
SWIDTH 500 0
DWIDTH 15 0
BBX 15 28 0 -6
BITMAP
1FF8
1FF8
1FF8
0000
0000
E00E
701E
701C
701C
3838
3838
3838
1C70
1C70
0C70
0EE0
0EE0
06E0
07C0
07C0
03C0
0380
0380
0700
0700
3F00
3E00
3C00
ENDCHAR
STARTCHAR uni0234
ENCODING 564
SWIDTH 349 0
DWIDTH 11 0
BBX 12 29 -1 -6
BITMAP
1C00
1C00
1C00
1C00
1C00
1C00
1C00
1C00
1C00
1C00
1C00
1C00
1C00
1C00
1C00
1C00
1C00
1C00
1C00
1C00
1C00
1FC0
1FE0
1C70
3C70
7C70
EE70
CFE0
47C0
ENDCHAR
STARTCHAR uni0235
ENCODING 565
SWIDTH 684 0
DWIDTH 22 0
BBX 20 23 2 -6
BITMAP
E3E000
EFF800
FFF800
F83C00
F01C00
E01C00
E01C00
E01C00
E01C00
E01C00
E01C00
E01C00
E01C00
E01C00
E01C00
E01FC0
E01FE0
001C70
003C70
007C70
00EE70
00CFE0
0047C0
ENDCHAR
STARTCHAR uni0236
ENCODING 566
SWIDTH 367 0
DWIDTH 12 0
BBX 12 23 0 0
BITMAP
0400
0C00
1C00
1C00
1C00
1C00
7F80
7F80
7F80
1C00
1C00
1C00
1C00
1C00
1C00
1FC0
1FE0
1C70
3C70
7C70
EE70
CFE0
47C0
ENDCHAR
STARTCHAR uni0237
ENCODING 567
SWIDTH 222 0
DWIDTH 7 0
BBX 7 23 -2 -6
BITMAP
0E
0E
0E
0E
0E
0E
0E
0E
0E
0E
0E
0E
0E
0E
0E
0E
0E
0E
0E
1E
FE
FC
F8
ENDCHAR
STARTCHAR uni0238
ENCODING 568
SWIDTH 886 0
DWIDTH 28 0
BBX 27 23 0 0
BITMAP
000E0000
000E0000
000E0000
000E0000
000E0000
000E0000
07CE3C00
1FEEFF00
3FFFFF80
787FC3C0
701F01C0
F01F01E0
E00E00E0
E00E00E0
E00E00E0
E00E00E0
E00E00E0
F01F01E0
701F01C0
783FC3C0
3FFFFF80
1FEEFF00
078E7C00
ENDCHAR
STARTCHAR uni0239
ENCODING 569
SWIDTH 886 0
DWIDTH 28 0
BBX 27 23 0 -6
BITMAP
0F8E3E00
1FEEFF00
3FEFFF80
787FC3C0
703F81C0
F01F01E0
E00E00E0
E00E00E0
E00E00E0
E00E00E0
E00E00E0
F01F01E0
701F01C0
783F83C0
3FFFFF80
1FEEFF00
07CE7C00
000E0000
000E0000
000E0000
000E0000
000E0000
000E0000
ENDCHAR
STARTCHAR uni023A
ENCODING 570
SWIDTH 666 0
DWIDTH 21 0
BBX 21 26 0 -2
BITMAP
000070
00F060
00F8C0
01F8C0
01DD80
01DF80
039F00
038E00
038E00
070F00
071F00
0F1F00
0E3380
0E7380
1FFF80
1FFFC0
1FFFC0
3980E0
3B00E0
7B00E0
760070
7E0070
EC0038
F80038
380000
300000
ENDCHAR
STARTCHAR uni023B
ENCODING 571
SWIDTH 722 0
DWIDTH 23 0
BBX 20 25 2 -1
BITMAP
0000E0
01FCC0
07FF80
1FFFC0
3F03C0
3C07E0
7806F0
700C70
F01C00
E01800
E03000
E03000
E06000
E0C000
E0C000
E18000
738070
7300F0
7E00E0
3E01E0
3F07C0
1FFF80
1FFF00
31FC00
700000
ENDCHAR
STARTCHAR uni023C
ENCODING 572
SWIDTH 500 0
DWIDTH 16 0
BBX 15 29 0 -6
BITMAP
0006
000C
000C
0018
0018
0038
03F0
0FF8
1FFC
3C7C
38DE
70CE
7180
7180
7380
7300
7300
760E
3E1E
3C3C
1FFC
1FF8
1FE0
3800
3000
3000
6000
6000
C000
ENDCHAR
STARTCHAR uni023D
ENCODING 573
SWIDTH 556 0
DWIDTH 18 0
BBX 17 23 0 0
BITMAP
380000
380000
380000
380000
380000
380000
380000
380000
380000
380000
380000
FFF000
FFF000
380000
380000
380000
380000
380000
380000
380000
3FFF80
3FFF80
3FFF80
ENDCHAR
STARTCHAR uni023E
ENCODING 574
SWIDTH 610 0
DWIDTH 20 0
BBX 18 26 1 -2
BITMAP
0001C0
FFFFC0
FFFFC0
FFFFC0
01C600
01CE00
01CC00
01D800
01D800
01F000
01F000
01E000
01C000
01C000
01C000
03C000
03C000
07C000
07C000
0DC000
1DC000
19C000
31C000
71C000
600000
E00000
ENDCHAR
STARTCHAR uni023F
ENCODING 575
SWIDTH 500 0
DWIDTH 16 0
BBX 14 23 1 -6
BITMAP
1FC0
3FE0
7FF0
F078
E038
F000
FE00
7FE0
3FF8
0FF8
007C
001C
601C
783C
FFF8
3FF0
1FC0
0E00
0F00
0788
03FC
01F8
00F0
ENDCHAR
STARTCHAR uni0240
ENCODING 576
SWIDTH 500 0
DWIDTH 16 0
BBX 15 23 1 -6
BITMAP
7FFC
7FFC
7FFC
0078
00F0
01E0
01C0
0380
0700
0E00
1E00
3C00
7800
F000
F800
FE00
FF00
0F80
0380
03C4
01FE
00FC
0038
ENDCHAR
STARTCHAR uni0241
ENCODING 577
SWIDTH 580 0
DWIDTH 19 0
BBX 17 23 0 0
BITMAP
07F000
1FFC00
3FFE00
7C1F00
F00700
600780
000380
000380
000380
000380
000380
000780
000700
001F00
01FE00
01FC00
01F000
01C000
01C000
01C000
01C000
01C000
01C000
ENDCHAR
STARTCHAR uni0242
ENCODING 578
SWIDTH 453 0
DWIDTH 15 0
BBX 13 17 1 0
BITMAP
0F80
3FE0
7FF0
7870
F078
E038
0038
0038
0038
0078
01F0
07F0
07E0
0780
0700
0700
0700
ENDCHAR
STARTCHAR uni0243
ENCODING 579
SWIDTH 666 0
DWIDTH 21 0
BBX 19 23 0 0
BITMAP
3FFC00
3FFF00
3FFF80
3807C0
3801C0
3801C0
3801C0
3801C0
380780
3FFF00
3FFF00
3FFF80
3803C0
3801E0
FFE0E0
FFE0E0
FFE0E0
3800E0
3801E0
3803C0
3FFFC0
3FFF80
3FFC00
ENDCHAR
STARTCHAR uni0244
ENCODING 580
SWIDTH 722 0
DWIDTH 23 0
BBX 21 23 1 0
BITMAP
3800E0
3800E0
3800E0
3800E0
3800E0
3800E0
3800E0
3800E0
3800E0
FFFFF8
FFFFF8
FFFFF8
3800E0
3800E0
3800E0
3800E0
3800E0
3C01E0
1C01C0
1F07C0
0FFF80
07FF00
01FC00
ENDCHAR
STARTCHAR uni0245
ENCODING 581
SWIDTH 667 0
DWIDTH 21 0
BBX 19 23 1 0
BITMAP
00E000
01F000
01F000
01F000
03B800
03B800
03B800
071C00
071C00
070E00
0E0E00
0E0E00
1C0700
1C0700
1C0700
380380
380380
380380
7001C0
7001C0
E000E0
E000E0
E000E0
ENDCHAR
STARTCHAR uni0246
ENCODING 582
SWIDTH 666 0
DWIDTH 21 0
BBX 16 26 3 -2
BITMAP
0006
FFFE
FFFE
FFFE
E018
E030
E030
E070
E060
E060
FFFE
FFFE
FFFE
E180
E300
E300
E600
E600
EE00
EC00
FC00
FFFF
FFFF
FFFF
3000
6000
ENDCHAR
STARTCHAR uni0247
ENCODING 583
SWIDTH 556 0
DWIDTH 18 0
BBX 16 29 1 -6
BITMAP
0003
0006
0006
000C
000C
0018
07F8
1FF8
3FFC
787E
707E
E0E7
FFFF
FFFF
FFFF
E380
E300
F707
7E0F
7E1E
3FFC
1FF8
1FF0
1800
3000
3000
6000
6000
C000
ENDCHAR
STARTCHAR uni0248
ENCODING 584
SWIDTH 500 0
DWIDTH 16 0
BBX 15 23 1 0
BITMAP
0038
0038
0038
0038
0038
0038
0038
0038
0038
01FE
01FE
01FE
0038
0038
0038
E038
E038
E038
F078
7870
7FF0
3FE0
1F80
ENDCHAR
STARTCHAR uni0249
ENCODING 585
SWIDTH 222 0
DWIDTH 7 0
BBX 9 29 -2 -6
BITMAP
0E00
0E00
0E00
0000
0000
0000
0E00
0E00
0E00
0E00
0E00
0E00
3F80
3F80
3F80
0E00
0E00
0E00
0E00
0E00
0E00
0E00
0E00
0E00
0E00
1E00
7E00
7C00
F800
ENDCHAR
STARTCHAR uni024A
ENCODING 586
SWIDTH 737 0
DWIDTH 24 0
BBX 22 29 2 -6
BITMAP
00FE20
07FFE0
0FFFE0
1F01E0
3C00E0
7800E0
7000E0
7000E0
E000E0
E000E0
E000E0
E000E0
E000E0
E000E0
E000E0
F000E0
7000E0
7800E0
3C00E0
1F03E0
0FFFE0
07FFE0
01FEE0
0000E0
0000E0
0000F0
0000FC
00007C
00003C
ENDCHAR
STARTCHAR uni024B
ENCODING 587
SWIDTH 556 0
DWIDTH 18 0
BBX 18 23 1 -6
BITMAP
0F8E00
1FEE00
3FFE00
783E00
701E00
F01E00
E00E00
E00E00
E00E00
E00E00
E00E00
F01E00
701E00
783E00
3FFE00
1FEE00
07CE00
000E00
000E00
000F00
000FC0
0007C0
0003C0
ENDCHAR
STARTCHAR uni024C
ENCODING 588
SWIDTH 722 0
DWIDTH 23 0
BBX 23 23 0 0
BITMAP
1FFF80
1FFFE0
1FFFF0
1C00F0
1C0078
1C0038
1C0038
1C0038
1C0078
1C00F0
FFFFF0
FFFFC0
FFFF00
1C0E00
1C0700
1C0380
1C01C0
1C01E0
1C00E0
1C0070
1C0038
1C001C
1C000E
ENDCHAR
STARTCHAR uni024D
ENCODING 589
SWIDTH 333 0
DWIDTH 11 0
BBX 11 17 0 0
BITMAP
39C0
3FE0
3FC0
3C00
3800
3800
3800
FF00
FF00
FF00
3800
3800
3800
3800
3800
3800
3800
ENDCHAR
STARTCHAR uni024E
ENCODING 590
SWIDTH 666 0
DWIDTH 21 0
BBX 21 23 0 0
BITMAP
E00038
700070
3800E0
FFFFF8
FFFFF8
FFFFF8
0E0380
070700
038E00
03CE00
01DC00
00F800
007000
007000
007000
007000
007000
007000
007000
007000
007000
007000
007000
ENDCHAR
STARTCHAR uni024F
ENCODING 591
SWIDTH 500 0
DWIDTH 16 0
BBX 15 23 1 -6
BITMAP
E00E
F01C
701C
701C
7838
FFFE
FFFE
FFFE
1C70
1CE0
1CE0
0EE0
0FC0
0FC0
07C0
0780
0780
0700
0700
0F00
7E00
7C00
7800
ENDCHAR
STARTCHAR uni0250
ENCODING 592
SWIDTH 556 0
DWIDTH 18 0
BBX 16 17 1 0
BITMAP
E0F8
63FE
7FFE
7E0F
7807
7807
700F
71FE
7FFC
7FF0
7E00
7000
7007
780F
3FFE
3FFC
0FF0
ENDCHAR
STARTCHAR uni0251
ENCODING 593
SWIDTH 556 0
DWIDTH 18 0
BBX 15 17 1 0
BITMAP
0F8E
1FEE
3FEE
787E
703E
F01E
E00E
E00E
E00E
E00E
E00E
F01E
701E
783E
3FFE
1FEE
07CE
ENDCHAR
STARTCHAR uni0252
ENCODING 594
SWIDTH 556 0
DWIDTH 18 0
BBX 15 17 2 0
BITMAP
E3E0
EFF0
EFF8
FC3C
F81C
F01E
E00E
E00E
E00E
E00E
E00E
F01E
F01C
F83C
FFF8
EFF0
E7C0
ENDCHAR
STARTCHAR uni0253
ENCODING 595
SWIDTH 556 0
DWIDTH 18 0
BBX 15 23 2 0
BITMAP
3F00
7F00
FF00
F000
E000
E000
E3C0
EFF0
FFF8
FC3C
F01C
F01E
E00E
E00E
E00E
E00E
E00E
F01E
F01C
FC3C
FFF8
EFF0
E7C0
ENDCHAR
STARTCHAR uni0254
ENCODING 596
SWIDTH 500 0
DWIDTH 16 0
BBX 14 17 1 0
BITMAP
0F80
3FE0
7FF0
7078
E038
E01C
001C
001C
001C
001C
001C
E01C
E038
7078
7FF0
3FE0
0F80
ENDCHAR
STARTCHAR uni0255
ENCODING 597
SWIDTH 500 0
DWIDTH 16 0
BBX 14 18 1 -1
BITMAP
07C0
1FF0
3FF8
7878
703C
E01C
E000
E000
E000
E1F0
E7F8
FFFC
7E1C
783C
3FFC
7FF8
E7E0
4000
ENDCHAR
STARTCHAR uni0256
ENCODING 598
SWIDTH 556 0
DWIDTH 18 0
BBX 19 29 1 -6
BITMAP
000E00
000E00
000E00
000E00
000E00
000E00
07CE00
1FEE00
3FFE00
787E00
701E00
F01E00
E00E00
E00E00
E00E00
E00E00
E00E00
F01E00
701E00
783E00
3FFE00
1FEE00
07CE00
000E00
000E00
000E00
000F00
0007E0
0003E0
ENDCHAR
STARTCHAR uni0257
ENCODING 599
SWIDTH 556 0
DWIDTH 18 0
BBX 19 23 1 0
BITMAP
0003E0
0007E0
000FE0
000F00
000E00
000E00
07CE00
1FEE00
3FFE00
787E00
701E00
F01E00
E00E00
E00E00
E00E00
E00E00
E00E00
F01E00
701E00
783E00
3FFE00
1FEE00
078E00
ENDCHAR
STARTCHAR uni0258
ENCODING 600
SWIDTH 556 0
DWIDTH 18 0
BBX 16 17 1 0
BITMAP
07E0
1FF8
3FFC
783E
700E
E007
E007
FFFF
FFFF
0007
0007
E00F
F00E
783E
3FFC
1FF8
0FE0
ENDCHAR
STARTCHAR uni0259
ENCODING 601
SWIDTH 556 0
DWIDTH 18 0
BBX 16 17 1 0
BITMAP
0FE0
1FF8
3FFC
783E
F00E
E00F
0007
0007
FFFF
FFFF
FFFF
E007
700E
781E
3FFC
1FF8
07E0
ENDCHAR
STARTCHAR uni025A
ENCODING 602
SWIDTH 738 0
DWIDTH 24 0
BBX 23 17 1 0
BITMAP
0FE000
1FF800
3FFC00
783E00
F00FC0
E01FC0
03FFC0
3FFFE2
FFF7FE
FE077E
E0073C
E00F00
700E00
783E00
3FFC00
1FF800
07E000
ENDCHAR
STARTCHAR uni025B
ENCODING 603
SWIDTH 458 0
DWIDTH 15 0
BBX 13 17 1 0
BITMAP
1F80
7FC0
FFE0
F0F0
E070
F000
7F00
3F00
7F00
F000
E000
E030
E078
F0F0
7FF0
3FE0
1F80
ENDCHAR
STARTCHAR uni025C
ENCODING 604
SWIDTH 458 0
DWIDTH 15 0
BBX 13 17 1 0
BITMAP
0FC0
3FF0
7FF0
7878
E038
0078
07F0
07E0
07F0
0078
0038
E038
F038
7878
7FF0
3FE0
0FC0
ENDCHAR
STARTCHAR uni025D
ENCODING 605
SWIDTH 631 0
DWIDTH 20 0
BBX 19 17 1 0
BITMAP
1F8000
3FE000
7FF400
F0FC00
E07E00
00FE20
07E7E0
07C7E0
07E3C0
00F000
007000
E07000
E07000
F8F000
7FE000
3FE000
1F8000
ENDCHAR
STARTCHAR uni025E
ENCODING 606
SWIDTH 507 0
DWIDTH 16 0
BBX 14 17 1 0
BITMAP
07C0
1FF0
3FF8
7878
7038
F078
E3F0
E3F0
E3F8
E03C
E01C
F01C
701C
7C3C
3FF8
1FF0
07E0
ENDCHAR
STARTCHAR uni025F
ENCODING 607
SWIDTH 277 0
DWIDTH 9 0
BBX 10 23 -1 -6
BITMAP
0E00
0E00
0E00
0E00
0E00
0E00
0E00
0E00
0E00
0E00
0E00
0E00
0E00
0E00
7FC0
7FC0
7FC0
0E00
0E00
0E00
FE00
FC00
F800
ENDCHAR
STARTCHAR uni0260
ENCODING 608
SWIDTH 556 0
DWIDTH 18 0
BBX 19 29 1 -6
BITMAP
0003E0
0007E0
000FE0
000F00
000E00
000E00
078E00
1FEE00
3FFE00
787E00
701E00
F01E00
E00E00
E00E00
E00E00
E00E00
E00E00
F01E00
701E00
783E00
3FFE00
1FEE00
0F8E00
000E00
E01E00
F03C00
7FFC00
3FF800
1FC000
ENDCHAR
STARTCHAR uni0261
ENCODING 609
SWIDTH 556 0
DWIDTH 17 0
BBX 14 23 1 -6
BITMAP
0F9C
1FFC
3FFC
787C
703C
E03C
E01C
E01C
E01C
E01C
E01C
E03C
703C
787C
3FFC
1FFC
0F9C
001C
E03C
F078
7FF8
7FF0
1FC0
ENDCHAR
STARTCHAR uni0262
ENCODING 610
SWIDTH 558 0
DWIDTH 18 0
BBX 15 17 1 0
BITMAP
07E0
1FF8
3FFC
7C3C
701E
F00E
E000
E000
E1FE
E1FE
E1FE
F00E
700E
781E
3FFE
1FFC
07E0
ENDCHAR
STARTCHAR uni0263
ENCODING 611
SWIDTH 500 0
DWIDTH 16 0
BBX 16 23 0 -6
BITMAP
E007
700E
700E
381C
381C
1C38
1C38
0E70
0E70
07E0
07E0
03C0
03C0
03C0
03C0
07E0
07E0
0660
0E70
0E70
0FF0
07E0
03C0
ENDCHAR
STARTCHAR uni0264
ENCODING 612
SWIDTH 616 0
DWIDTH 20 0
BBX 20 17 0 0
BITMAP
1E0780
7F0FE0
FF9FF0
E39C70
439C20
01F800
01F800
00F000
00F000
00F000
01F800
01F800
039C00
039C00
03FC00
03FC00
01F000
ENDCHAR
STARTCHAR uni0265
ENCODING 613
SWIDTH 556 0
DWIDTH 18 0
BBX 14 23 2 -6
BITMAP
E01C
E01C
E01C
E01C
E01C
E01C
E01C
E01C
E01C
E01C
E01C
E01C
E03C
F07C
7FFC
7FDC
1F1C
001C
001C
001C
001C
001C
001C
ENDCHAR
STARTCHAR uni0266
ENCODING 614
SWIDTH 556 0
DWIDTH 18 0
BBX 14 23 2 0
BITMAP
3E00
7E00
FE00
F000
E000
E000
E3E0
EFF8
FFF8
F87C
F03C
E01C
E01C
E01C
E01C
E01C
E01C
E01C
E01C
E01C
E01C
E01C
E01C
ENDCHAR
STARTCHAR uni0267
ENCODING 615
SWIDTH 556 0
DWIDTH 18 0
BBX 14 29 2 -6
BITMAP
3E00
7E00
FE00
F000
E000
E000
E3E0
EFF8
FFF8
F83C
F01C
E01C
E01C
E01C
E01C
E01C
E01C
E01C
E01C
E01C
E01C
E01C
E01C
001C
001C
003C
01FC
01F8
01F0
ENDCHAR
STARTCHAR uni0268
ENCODING 616
SWIDTH 222 0
DWIDTH 7 0
BBX 7 23 0 0
BITMAP
38
38
38
00
00
00
38
38
38
38
38
38
FE
FE
FE
38
38
38
38
38
38
38
38
ENDCHAR
STARTCHAR uni0269
ENCODING 617
SWIDTH 222 0
DWIDTH 7 0
BBX 3 17 2 0
BITMAP
E0
E0
E0
E0
E0
E0
E0
E0
E0
E0
E0
E0
E0
E0
E0
E0
E0
ENDCHAR
STARTCHAR uni026A
ENCODING 618
SWIDTH 222 0
DWIDTH 7 0
BBX 3 17 2 0
BITMAP
E0
E0
E0
E0
E0
E0
E0
E0
E0
E0
E0
E0
E0
E0
E0
E0
E0
ENDCHAR
STARTCHAR uni026B
ENCODING 619
SWIDTH 327 0
DWIDTH 10 0
BBX 10 23 0 0
BITMAP
0E00
0E00
0E00
0E00
0E00
0E00
0E00
0E00
0E00
0E00
7EC0
FFC0
CF80
0E00
0E00
0E00
0E00
0E00
0E00
0E00
0E00
0E00
0E00
ENDCHAR
STARTCHAR uni026C
ENCODING 620
SWIDTH 303 0
DWIDTH 10 0
BBX 10 23 0 0
BITMAP
0E00
0E00
0E00
0E00
0E00
0E00
7E00
FE00
CE00
CE00
CE00
FFC0
7FC0
0E00
0E00
0E00
0E00
0E00
0E00
0E00
0E00
0E00
0E00
ENDCHAR
STARTCHAR uni026D
ENCODING 621
SWIDTH 222 0
DWIDTH 7 0
BBX 7 29 2 -6
BITMAP
E0
E0
E0
E0
E0
E0
E0
E0
E0
E0
E0
E0
E0
E0
E0
E0
E0
E0
E0
E0
E0
E0
E0
E0
E0
F0
FE
7E
3E
ENDCHAR
STARTCHAR uni026E
ENCODING 622
SWIDTH 571 0
DWIDTH 18 0
BBX 15 29 2 -6
BITMAP
E000
E000
E000
E000
E000
E000
FFFC
FFFC
FFFC
E078
E070
E0E0
E1C0
E380
E7E0
E7F0
E7F8
E07C
E01E
E00E
E00E
E00E
E00E
001E
E01C
F03C
7FF8
3FF0
0FC0
ENDCHAR
STARTCHAR uni026F
ENCODING 623
SWIDTH 833 0
DWIDTH 27 0
BBX 23 17 2 0
BITMAP
E0380E
E0380E
E0380E
E0380E
E0380E
E0380E
E0380E
E0380E
E0380E
E0380E
E0380E
E0380E
E0781E
F0FC3E
7FDFFE
7F9FEE
1E078E
ENDCHAR
STARTCHAR uni0270
ENCODING 624
SWIDTH 833 0
DWIDTH 27 0
BBX 23 23 2 -6
BITMAP
E0380E
E0380E
E0380E
E0380E
E0380E
E0380E
E0380E
E0380E
E0380E
E0380E
E0380E
E0380E
E0781E
F0FC3E
7FDFFE
7F9FEE
1E078E
00000E
00000E
00000E
00000E
00000E
00000E
ENDCHAR
STARTCHAR uni0271
ENCODING 625
SWIDTH 833 0
DWIDTH 27 0
BBX 23 23 2 -6
BITMAP
E3C0F0
EFF3FC
FFF7FC
F87E1E
F03C0E
E0380E
E0380E
E0380E
E0380E
E0380E
E0380E
E0380E
E0380E
E0380E
E0380E
E0380E
E0380E
00000E
00000E
00001E
0000FE
0000FC
0000F8
ENDCHAR
STARTCHAR uni0272
ENCODING 626
SWIDTH 556 0
DWIDTH 18 0
BBX 18 23 -2 -6
BITMAP
0E3E00
0EFF80
0FFF80
0F87C0
0F01C0
0E01C0
0E01C0
0E01C0
0E01C0
0E01C0
0E01C0
0E01C0
0E01C0
0E01C0
0E01C0
0E01C0
0E01C0
0E0000
0E0000
1E0000
FE0000
FC0000
F80000
ENDCHAR
STARTCHAR uni0273
ENCODING 627
SWIDTH 556 0
DWIDTH 18 0
BBX 18 23 2 -6
BITMAP
E3E000
EFF800
FFF800
F83C00
F01C00
E01C00
E01C00
E01C00
E01C00
E01C00
E01C00
E01C00
E01C00
E01C00
E01C00
E01C00
E01C00
001C00
001C00
001E00
001FC0
000FC0
0007C0
ENDCHAR
STARTCHAR uni0274
ENCODING 628
SWIDTH 552 0
DWIDTH 18 0
BBX 14 17 2 0
BITMAP
E01C
F01C
F81C
F81C
FC1C
FE1C
EE1C
E71C
E79C
E39C
E1DC
E1FC
E0FC
E07C
E07C
E03C
E01C
ENDCHAR
STARTCHAR uni0275
ENCODING 629
SWIDTH 556 0
DWIDTH 18 0
BBX 16 17 1 0
BITMAP
07E0
1FF8
3FFC
781E
700E
E007
FFFF
FFFF
FFFF
E007
E007
F00F
700E
7C3E
3FFC
1FF8
07E0
ENDCHAR
STARTCHAR uni0276
ENCODING 630
SWIDTH 790 0
DWIDTH 25 0
BBX 23 17 1 0
BITMAP
07CFFE
1FFFFE
3FFFFE
783E00
701E00
F01E00
E00FFC
E00FFC
E00FFC
E00E00
E00E00
F01E00
701E00
783E00
3FFFFE
1FFFFE
07CFFE
ENDCHAR
STARTCHAR uni0277
ENCODING 631
SWIDTH 780 0
DWIDTH 25 0
BBX 23 17 1 0
BITMAP
01FF00
07FFC0
1FFFF0
3F01F8
78003C
70001C
F0001E
E0380E
E0380E
E0380E
E0380E
E0380E
F07C1E
78EE3C
7FEFFC
3FC7F8
0F83E0
ENDCHAR
STARTCHAR uni0278
ENCODING 632
SWIDTH 549 0
DWIDTH 18 0
BBX 15 29 2 -6
BITMAP
0380
0380
0380
0380
0380
0380
0FE0
1FF0
3FF8
7BBC
739C
F39E
E38E
E38E
E38E
E38E
E38E
F39E
739C
7BBC
3FF8
1FF0
0FE0
0380
0380
0380
0380
0380
0380
ENDCHAR
STARTCHAR uni0279
ENCODING 633
SWIDTH 333 0
DWIDTH 11 0
BBX 9 17 0 0
BITMAP
0380
0380
0380
0380
0380
0380
0380
0380
0380
0380
0380
0380
0780
0780
7F80
FB80
7380
ENDCHAR
STARTCHAR uni027A
ENCODING 634
SWIDTH 333 0
DWIDTH 11 0
BBX 9 23 0 0
BITMAP
0380
0380
0380
0380
0380
0380
0380
0380
0380
0380
0380
0380
0380
0380
0380
0380
0380
0380
0780
0780
7F80
FB80
7380
ENDCHAR
STARTCHAR uni027B
ENCODING 635
SWIDTH 333 0
DWIDTH 11 0
BBX 13 23 0 -6
BITMAP
0380
0380
0380
0380
0380
0380
0380
0380
0380
0380
0380
0380
0780
0780
7F80
FB80
7380
0380
0380
03C0
03F8
01F8
00F8
ENDCHAR
STARTCHAR uni027C
ENCODING 636
SWIDTH 333 0
DWIDTH 11 0
BBX 9 23 2 -6
BITMAP
E700
EF80
FF00
F000
F000
E000
E000
E000
E000
E000
E000
E000
E000
E000
E000
E000
E000
E000
E000
E000
E000
E000
E000
ENDCHAR
STARTCHAR uni027D
ENCODING 637
SWIDTH 333 0
DWIDTH 11 0
BBX 9 23 2 -6
BITMAP
E700
EF80
FF00
F000
F000
E000
E000
E000
E000
E000
E000
E000
E000
E000
E000
E000
E000
E000
E000
F000
FE00
7E00
3E00
ENDCHAR
STARTCHAR uni027E
ENCODING 638
SWIDTH 333 0
DWIDTH 11 0
BBX 9 17 2 0
BITMAP
1F00
3F80
7F00
7000
F000
E000
E000
E000
E000
E000
E000
E000
E000
E000
E000
E000
E000
ENDCHAR
STARTCHAR uni027F
ENCODING 639
SWIDTH 333 0
DWIDTH 11 0
BBX 9 17 0 0
BITMAP
7C00
FE00
7F00
0700
0780
0380
0380
0380
0380
0380
0380
0380
0380
0380
0380
0380
0380
ENDCHAR
STARTCHAR uni0280
ENCODING 640
SWIDTH 541 0
DWIDTH 17 0
BBX 15 17 2 0
BITMAP
FFE0
FFF8
FFF8
E03C
E01C
E01C
E03C
FFF8
FFF0
FFC0
E1E0
E0E0
E070
E078
E038
E01C
E01E
ENDCHAR
STARTCHAR uni0281
ENCODING 641
SWIDTH 541 0
DWIDTH 17 0
BBX 15 17 2 0
BITMAP
E01E
E01C
E038
E038
E070
E0E0
E1E0
FFC0
FFF0
FFF8
E03C
E01C
E01C
E03C
FFF8
FFF8
FFE0
ENDCHAR
STARTCHAR uni0282
ENCODING 642
SWIDTH 500 0
DWIDTH 16 0
BBX 14 23 1 -6
BITMAP
0FC0
3FF0
3FF0
7878
7038
7000
7E00
3FE0
0FF8
03F8
003C
E01C
F01C
F83C
FFF8
FFF0
EFC0
E000
E000
F000
FE00
7E00
3E00
ENDCHAR
STARTCHAR uni0283
ENCODING 643
SWIDTH 222 0
DWIDTH 7 0
BBX 11 29 -2 -6
BITMAP
03E0
07E0
0FE0
0F00
0E00
0E00
0E00
0E00
0E00
0E00
0E00
0E00
0E00
0E00
0E00
0E00
0E00
0E00
0E00
0E00
0E00
0E00
0E00
0E00
0E00
1E00
FE00
FC00
F800
ENDCHAR
STARTCHAR uni0284
ENCODING 644
SWIDTH 259 0
DWIDTH 8 0
BBX 11 29 -1 -6
BITMAP
03E0
07E0
0FE0
0F00
0E00
0E00
0E00
0E00
0E00
0E00
0E00
0E00
0E00
0E00
0E00
0E00
0E00
0E00
0E00
0E00
7F80
7F80
7F80
0E00
0E00
0E00
FE00
FC00
F800
ENDCHAR
STARTCHAR uni0285
ENCODING 645
SWIDTH 222 0
DWIDTH 7 0
BBX 9 23 -1 0
BITMAP
F000
F800
FC00
1C00
1C00
1C00
1C00
1C00
1C00
1C00
1C00
1C00
1C00
1C00
1C00
1C00
1C00
1C00
1C00
1C00
1F80
0F80
0780
ENDCHAR
STARTCHAR uni0286
ENCODING 646
SWIDTH 349 0
DWIDTH 11 0
BBX 12 29 0 -6
BITMAP
01F0
03F0
07F0
0780
0700
0700
0700
0700
0700
0700
0700
0700
0700
0700
0700
0700
0700
0700
0700
0700
0700
3F00
7F00
E700
E780
E7C0
E7E0
7E70
3C20
ENDCHAR
STARTCHAR uni0287
ENCODING 647
SWIDTH 277 0
DWIDTH 9 0
BBX 8 23 1 0
BITMAP
F8
FC
FC
1C
1C
1C
1C
1C
1C
1C
1C
1C
1C
1C
FF
FF
FF
1C
1C
1C
1C
1C
10
ENDCHAR
STARTCHAR uni0288
ENCODING 648
SWIDTH 277 0
DWIDTH 9 0
BBX 9 29 0 -6
BITMAP
0800
1800
3800
3800
3800
3800
FF80
FF80
FF80
3800
3800
3800
3800
3800
3800
3800
3800
3800
3800
3800
3800
3800
3800
3800
3800
3800
3F80
1F80
0F80
ENDCHAR
STARTCHAR uni0289
ENCODING 649
SWIDTH 556 0
DWIDTH 18 0
BBX 18 17 0 0
BITMAP
380700
380700
380700
380700
380700
380700
FFFFC0
FFFFC0
FFFFC0
380700
380700
380700
380F00
3C1F00
1FF700
1FE700
07C700
ENDCHAR
STARTCHAR uni028A
ENCODING 650
SWIDTH 568 0
DWIDTH 18 0
BBX 16 17 1 0
BITMAP
FE7F
FE7F
FE7F
1C38
381C
700E
6006
E007
E007
E007
E007
F00F
700E
7C3E
3FFC
1FF8
07E0
ENDCHAR
STARTCHAR uni028B
ENCODING 651
SWIDTH 546 0
DWIDTH 18 0
BBX 14 17 2 0
BITMAP
E3F0
E3F8
E3FC
E03C
E01C
E01C
E01C
E01C
E01C
E01C
E03C
E038
E078
F0F0
7FF0
3FE0
1F80
ENDCHAR
STARTCHAR uni028C
ENCODING 652
SWIDTH 500 0
DWIDTH 16 0
BBX 16 17 0 0
BITMAP
03C0
03C0
03C0
07E0
07E0
0E70
0E70
0E70
1C38
1C38
1C38
381C
381C
700E
700E
700E
E007
ENDCHAR
STARTCHAR uni028D
ENCODING 653
SWIDTH 722 0
DWIDTH 23 0
BBX 23 17 0 0
BITMAP
0701C0
0701C0
0F83E0
0F83E0
0D8360
1DC770
1DC770
1CC670
18C630
38EE38
38EE38
306C18
706C1C
707C1C
707C1C
E0380E
E0380E
ENDCHAR
STARTCHAR uni028E
ENCODING 654
SWIDTH 500 0
DWIDTH 16 0
BBX 16 23 0 0
BITMAP
0070
00E0
00E0
00E0
01C0
01C0
0380
03C0
03C0
07E0
07E0
0EE0
0E70
0E70
1C38
1C38
3C38
381C
381C
700E
700E
700E
E007
ENDCHAR
STARTCHAR uni028F
ENCODING 655
SWIDTH 519 0
DWIDTH 17 0
BBX 17 17 0 0
BITMAP
E00380
700700
380E00
3C0E00
1C1C00
0E3800
077000
077000
03E000
01C000
01C000
01C000
01C000
01C000
01C000
01C000
01C000
ENDCHAR
STARTCHAR uni0290
ENCODING 656
SWIDTH 500 0
DWIDTH 16 0
BBX 17 23 1 -6
BITMAP
7FF800
7FF800
7FF800
00F000
01E000
01C000
038000
078000
0F0000
0E0000
1C0000
380000
780000
F00000
FFFC00
FFFC00
FFFC00
001C00
001C00
001C00
001F80
001F80
000F80
ENDCHAR
STARTCHAR uni0291
ENCODING 657
SWIDTH 541 0
DWIDTH 17 0
BBX 15 19 1 -2
BITMAP
7FF8
7FF8
7FF8
00F0
01E0
01C0
0380
0780
0F00
0E38
1C7C
38FE
79CE
F38E
FFFE
FFFC
FFF8
0E00
0C00
ENDCHAR
STARTCHAR uni0292
ENCODING 658
SWIDTH 544 0
DWIDTH 17 0
BBX 15 23 1 -6
BITMAP
7FFC
7FFC
7FFC
0038
0070
00E0
01C0
0380
07E0
07F0
07F8
003C
001E
000E
000E
000E
E00E
E01E
F01C
787C
3FF8
1FF0
0FC0
ENDCHAR
STARTCHAR uni0293
ENCODING 659
SWIDTH 544 0
DWIDTH 17 0
BBX 15 23 2 -6
BITMAP
FFF8
FFF8
FFF8
0070
00E0
01C0
0380
0700
0FC0
0FF0
0FF8
00F8
003C
001C
001C
3F1C
7FDC
FFFC
E1F8
F078
FFFC
7FEE
1F84
ENDCHAR
STARTCHAR uni0294
ENCODING 660
SWIDTH 500 0
DWIDTH 16 0
BBX 14 23 1 0
BITMAP
0F80
3FE0
7FF0
7078
E038
E01C
001C
001C
001C
001C
001C
003C
0038
0078
07F0
07E0
07C0
0700
0700
0700
0700
0700
0700
ENDCHAR
STARTCHAR uni0295
ENCODING 661
SWIDTH 500 0
DWIDTH 16 0
BBX 14 23 1 0
BITMAP
07C0
1FF0
3FF8
7838
701C
E01C
E000
E000
E000
E000
E000
F000
7000
7800
3F80
1F80
0F80
0380
0380
0380
0380
0380
0380
ENDCHAR
STARTCHAR uni0296
ENCODING 662
SWIDTH 500 0
DWIDTH 16 0
BBX 14 23 1 0
BITMAP
0700
0700
0700
0700
0700
0700
07C0
07E0
07F0
0078
0038
003C
001C
001C
001C
001C
001C
E03C
E038
7078
7FF0
3FE0
0F80
ENDCHAR
STARTCHAR uni0297
ENCODING 663
SWIDTH 500 0
DWIDTH 16 0
BBX 14 23 1 -6
BITMAP
07C0
1FF0
3FF8
7878
703C
E01C
E000
E000
E000
E000
E000
E000
E000
E000
E000
E000
E01C
E01C
7038
7878
3FF0
1FF0
0FC0
ENDCHAR
STARTCHAR uni0298
ENCODING 664
SWIDTH 777 0
DWIDTH 25 0
BBX 23 23 1 0
BITMAP
00FE00
07FFC0
0FFFE0
1F01F0
3C0078
78003C
70001C
70001C
E0000E
E0000E
E0380E
E0380E
E0380E
E0000E
E0000E
70001C
70001C
78003C
3C0078
1F01F0
0FFFE0
07FFC0
00FE00
ENDCHAR
STARTCHAR uni0299
ENCODING 665
SWIDTH 531 0
DWIDTH 16 0
BBX 13 17 2 0
BITMAP
FFC0
FFE0
FFF0
E0F0
E070
E070
E0F0
FFE0
FFE0
FFF0
E078
E038
E038
E078
FFF0
FFF0
FFC0
ENDCHAR
STARTCHAR uni029A
ENCODING 666
SWIDTH 507 0
DWIDTH 16 0
BBX 14 17 1 0
BITMAP
0F80
3FE0
7FF0
7078
7038
783C
3F1C
3F1C
7F1C
F01C
E01C
E03C
E038
F0F8
7FF0
3FE0
1F80
ENDCHAR
STARTCHAR uni029B
ENCODING 667
SWIDTH 558 0
DWIDTH 18 0
BBX 19 20 1 0
BITMAP
0003E0
0007E0
000FE0
07EF00
1FFE00
3FFE00
7C3E00
701E00
F00E00
E00000
E00000
E1FE00
E1FE00
E1FE00
F00E00
700E00
781E00
3FFE00
1FFC00
07E000
ENDCHAR
STARTCHAR uni029C
ENCODING 668
SWIDTH 552 0
DWIDTH 18 0
BBX 14 17 2 0
BITMAP
E01C
E01C
E01C
E01C
E01C
E01C
FFFC
FFFC
FFFC
E01C
E01C
E01C
E01C
E01C
E01C
E01C
E01C
ENDCHAR
STARTCHAR uni029D
ENCODING 669
SWIDTH 397 0
DWIDTH 13 0
BBX 13 29 0 -6
BITMAP
00E0
00E0
00E0
0000
0000
0000
00E0
00E0
00E0
00E0
00E0
00E0
00E0
00E0
00E0
00E0
00E0
00E0
00E0
00E0
00E0
3FF8
7FF8
FFF8
E0E0
E1E0
FFC0
7FC0
3F00
ENDCHAR
STARTCHAR uni029E
ENCODING 670
SWIDTH 500 0
DWIDTH 16 0
BBX 14 23 0 -6
BITMAP
E01C
701C
381C
381C
1C1C
0E1C
0E1C
073C
03FC
03FC
01FC
03DC
079C
0F1C
1E1C
3C1C
781C
001C
001C
001C
001C
001C
001C
ENDCHAR
STARTCHAR uni029F
ENCODING 671
SWIDTH 403 0
DWIDTH 13 0
BBX 10 17 2 0
BITMAP
E000
E000
E000
E000
E000
E000
E000
E000
E000
E000
E000
E000
E000
E000
FFC0
FFC0
FFC0
ENDCHAR
STARTCHAR uni02A0
ENCODING 672
SWIDTH 556 0
DWIDTH 18 0
BBX 19 29 1 -6
BITMAP
0003E0
0007E0
000FE0
000F00
000E00
000E00
07CE00
1FEE00
3FFE00
787E00
703E00
F01E00
E00E00
E00E00
E00E00
E00E00
E00E00
F01E00
701E00
783E00
3FFE00
1FEE00
07CE00
000E00
000E00
000E00
000E00
000E00
000E00
ENDCHAR
STARTCHAR uni02A1
ENCODING 673
SWIDTH 500 0
DWIDTH 16 0
BBX 14 23 1 0
BITMAP
0F80
3FE0
7FF0
7078
E038
E01C
001C
001C
001C
001C
001C
003C
0038
0078
07F0
07E0
07C0
0700
FFF8
FFF8
FFF8
0700
0700
ENDCHAR
STARTCHAR uni02A2
ENCODING 674
SWIDTH 500 0
DWIDTH 16 0
BBX 14 23 1 0
BITMAP
07C0
1FF0
3FF8
7838
701C
E01C
E000
E000
E000
E000
E000
F000
7000
7800
3F80
1F80
0F80
0380
7FFC
7FFC
7FFC
0380
0380
ENDCHAR
STARTCHAR uni02A3
ENCODING 675
SWIDTH 964 0
DWIDTH 31 0
BBX 29 23 1 0
BITMAP
000E0000
000E0000
000E0000
000E0000
000E0000
000E0000
07CFFFF0
1FEFFFF0
3FFFFFF0
787E00F0
701E01E0
F01E03C0
E00E0780
E00E0F00
E00E1E00
E00E3C00
E00E7800
F01EF000
701FE000
783FE000
3FFFFFF8
1FEFFFF8
078FFFF8
ENDCHAR
STARTCHAR uni02A4
ENCODING 676
SWIDTH 906 0
DWIDTH 29 0
BBX 27 29 1 -6
BITMAP
001C0000
001C0000
001C0000
001C0000
001C0000
001C0000
0F9FFFC0
1FDFFFC0
3FFFFFC0
787C0380
703C0700
E03C0E00
E01C1C00
E01C3800
E01C7E00
E01C7F00
E01C7F80
F03C07C0
703C01E0
787C00E0
3FFC00E0
1FDC00E0
0F9C00E0
000001E0
001C01C0
001F07C0
000FFF80
0007FF00
0001FC00
ENDCHAR
STARTCHAR uni02A5
ENCODING 677
SWIDTH 1005 0
DWIDTH 32 0
BBX 30 25 1 -2
BITMAP
000E0000
000E0000
000E0000
000E0000
000E0000
000E0000
07CFFFF0
1FEFFFF0
3FFFFFF0
787E00F0
701E01E0
F01E03C0
E00E0780
E00E0F00
E00E1E00
E00E3C70
E00E79F8
F01EF3FC
701FE39C
783FE71C
3FFFFFFC
1FEFFFF8
078FFFF0
00001C00
00001800
ENDCHAR
STARTCHAR uni02A6
ENCODING 678
SWIDTH 712 0
DWIDTH 23 0
BBX 21 23 1 0
BITMAP
080000
180000
380000
380000
380000
380000
FFFF80
FFFFE0
FFFFE0
3870F0
38E070
38E000
38FC00
387F80
383FE0
3807F0
3800F8
380038
380038
380078
3FFFF0
1FFFE0
0FFFC0
ENDCHAR
STARTCHAR uni02A7
ENCODING 679
SWIDTH 429 0
DWIDTH 14 0
BBX 15 29 1 -6
BITMAP
083E
187E
38FE
38F0
38E0
38E0
FFE0
FFE0
FFE0
38E0
38E0
38E0
38E0
38E0
38E0
38E0
38E0
38E0
38E0
38E0
3FE0
3FE0
1FE0
00E0
00E0
00E0
0FE0
0FC0
0F80
ENDCHAR
STARTCHAR uni02A8
ENCODING 680
SWIDTH 718 0
DWIDTH 23 0
BBX 22 23 0 0
BITMAP
080000
180000
380000
380000
380000
380000
FF07C0
FF1FF0
FF3FF8
387878
38703C
38F01C
38E000
38E000
38E000
38E1F0
38E7F8
38FFFC
387E1C
38F83C
3FFFFC
1FDFF8
0F0FE0
ENDCHAR
STARTCHAR uni02A9
ENCODING 681
SWIDTH 763 0
DWIDTH 24 0
BBX 22 29 0 -6
BITMAP
0F8000
1F8000
3F8000
380000
380000
380000
FFE3E0
FFEFF8
FFFFF8
38F83C
38F01C
38E01C
38E01C
38E01C
38E01C
38E01C
38E01C
38E01C
38E01C
38E01C
38E01C
38E01C
38E01C
00001C
00001C
00003C
0001FC
0001F8
0001F0
ENDCHAR
STARTCHAR uni02AA
ENCODING 682
SWIDTH 661 0
DWIDTH 21 0
BBX 18 23 2 0
BITMAP
E00000
E00000
E00000
E00000
E00000
E00000
E0FC00
E3FF00
E3FF00
E78780
E70380
E70000
E7E000
E3FE00
E0FF80
E03FC0
E003C0
E001C0
F001C0
FE07C0
FFFF80
FFFF00
E3FC00
ENDCHAR
STARTCHAR uni02AB
ENCODING 683
SWIDTH 632 0
DWIDTH 20 0
BBX 17 23 2 0
BITMAP
E00000
E00000
E00000
E00000
E00000
E00000
FFFF00
FFFF00
FFFF00
E01E00
E03C00
E03800
E07000
E0F000
E1E000
E1C000
E38000
E70000
EF0000
FE0000
FFFF80
FFFF80
FFFF80
ENDCHAR
STARTCHAR uni02AC
ENCODING 684
SWIDTH 485 0
DWIDTH 16 0
BBX 16 23 0 0
BITMAP
C183
E187
63C6
63C6
6346
366C
366C
343C
3C3C
1C38
1818
0000
C183
E187
63C6
63C6
6346
366C
366C
343C
3C3C
1C38
1818
ENDCHAR
STARTCHAR uni02AD
ENCODING 685
SWIDTH 527 0
DWIDTH 17 0
BBX 13 23 2 0
BITMAP
FFF8
FFF8
FFF8
E038
E038
E038
E038
E038
0000
0000
0000
0000
0000
0000
0000
FFF8
FFF8
FFF8
E038
E038
E038
E038
E038
ENDCHAR
STARTCHAR uni02AE
ENCODING 686
SWIDTH 687 0
DWIDTH 22 0
BBX 20 23 0 -6
BITMAP
7C0070
FE0070
7F0070
078070
078070
038070
038070
038070
038070
038070
038070
038070
0380F0
03C1F0
01FFF0
01FF70
007C70
000070
000070
000070
000070
000070
000070
ENDCHAR
STARTCHAR uni02AF
ENCODING 687
SWIDTH 687 0
DWIDTH 22 0
BBX 26 23 0 -6
BITMAP
7C007000
FE007000
7F007000
07807000
07807000
03807000
03807000
03807000
03807000
03807000
03807000
03807000
0380F000
03C1F000
01FFF000
01FF7000
007C7000
00007000
00007800
00003800
00003F80
00001FC0
00000F80
ENDCHAR
STARTCHAR uni02B0
ENCODING 688
SWIDTH 383 0
DWIDTH 12 0
BBX 9 16 2 7
BITMAP
C000
C000
C000
C000
DE00
FF00
E380
C180
C180
C180
C180
C180
C180
C180
C180
C180
ENDCHAR
STARTCHAR uni02B1
ENCODING 689
SWIDTH 383 0
DWIDTH 12 0
BBX 9 16 2 7
BITMAP
7800
F800
C000
C000
DE00
FF00
E380
C180
C180
C180
C180
C180
C180
C180
C180
C180
ENDCHAR
STARTCHAR uni02B2
ENCODING 690
SWIDTH 159 0
DWIDTH 5 0
BBX 4 20 0 3
BITMAP
30
30
00
00
30
30
30
30
30
30
30
30
30
30
30
30
30
30
F0
E0
ENDCHAR
STARTCHAR uni02B3
ENCODING 691
SWIDTH 239 0
DWIDTH 8 0
BBX 6 12 2 7
BITMAP
DC
FC
E0
C0
C0
C0
C0
C0
C0
C0
C0
C0
ENDCHAR
STARTCHAR uni02B4
ENCODING 692
SWIDTH 239 0
DWIDTH 8 0
BBX 6 12 1 7
BITMAP
0C
0C
0C
0C
0C
0C
0C
0C
0C
1C
FC
EC
ENDCHAR
STARTCHAR uni02B5
ENCODING 693
SWIDTH 239 0
DWIDTH 8 0
BBX 8 16 1 3
BITMAP
0C
0C
0C
0C
0C
0C
0C
0C
0C
1C
FC
EC
0C
0C
0F
07
ENDCHAR
STARTCHAR uni02B6
ENCODING 694
SWIDTH 364 0
DWIDTH 12 0
BBX 10 12 2 7
BITMAP
C0C0
C180
C180
C300
C600
FE00
FF00
C380
C180
C180
FF00
FE00
ENDCHAR
STARTCHAR uni02B7
ENCODING 695
SWIDTH 480 0
DWIDTH 15 0
BBX 15 12 0 7
BITMAP
C106
C386
6384
628C
628C
26C8
36D8
3458
3458
1C70
1C70
1830
ENDCHAR
STARTCHAR uni02B8
ENCODING 696
SWIDTH 320 0
DWIDTH 10 0
BBX 10 16 0 3
BITMAP
C0C0
4080
6180
6180
2100
3300
3300
1200
1E00
1E00
0C00
0C00
0800
1800
7800
7000
ENDCHAR
STARTCHAR uni02B9
ENCODING 697
SWIDTH 190 0
DWIDTH 6 0
BBX 3 8 1 15
BITMAP
E0
E0
E0
E0
E0
E0
E0
40
ENDCHAR
STARTCHAR uni02BA
ENCODING 698
SWIDTH 354 0
DWIDTH 11 0
BBX 9 8 1 15
BITMAP
E380
E380
E380
E380
E380
E380
E380
4100
ENDCHAR
STARTCHAR uni02BB
ENCODING 699
SWIDTH 222 0
DWIDTH 7 0
BBX 3 8 2 15
BITMAP
60
40
C0
C0
C0
E0
E0
E0
ENDCHAR
STARTCHAR uni02BC
ENCODING 700
SWIDTH 222 0
DWIDTH 7 0
BBX 3 8 2 15
BITMAP
E0
E0
E0
60
60
60
40
C0
ENDCHAR
STARTCHAR uni02BD
ENCODING 701
SWIDTH 222 0
DWIDTH 7 0
BBX 3 8 2 15
BITMAP
E0
E0
E0
C0
C0
C0
40
60
ENDCHAR
STARTCHAR uni02BE
ENCODING 702
SWIDTH 333 0
DWIDTH 11 0
BBX 3 6 4 19
BITMAP
C0
60
20
20
60
C0
ENDCHAR
STARTCHAR uni02BF
ENCODING 703
SWIDTH 333 0
DWIDTH 11 0
BBX 3 6 4 19
BITMAP
60
C0
80
80
C0
60
ENDCHAR
STARTCHAR uni02C0
ENCODING 704
SWIDTH 348 0
DWIDTH 11 0
BBX 10 16 0 7
BITMAP
3E00
7F80
E180
C1C0
00C0
00C0
00C0
00C0
00C0
0180
0F80
0F00
0C00
0C00
0C00
0C00
ENDCHAR
STARTCHAR uni02C1
ENCODING 705
SWIDTH 348 0
DWIDTH 11 0
BBX 10 16 1 7
BITMAP
1F00
7F80
61C0
C0C0
C000
C000
C000
C000
C000
6000
7C00
3C00
0C00
0C00
0C00
0C00
ENDCHAR
STARTCHAR uni02C2
ENCODING 706
SWIDTH 583 0
DWIDTH 19 0
BBX 15 15 2 4
BITMAP
0002
001E
007E
03FC
0FE0
7F00
FC00
E000
FC00
7F00
0FE0
03FC
007E
001E
0002
ENDCHAR
STARTCHAR uni02C3
ENCODING 707
SWIDTH 583 0
DWIDTH 19 0
BBX 15 15 2 4
BITMAP
8000
F000
FC00
7F80
0FE0
01FC
007E
000E
007E
01FC
0FE0
7F80
FC00
F000
8000
ENDCHAR
STARTCHAR uni02C4
ENCODING 708
SWIDTH 583 0
DWIDTH 19 0
BBX 15 15 2 4
BITMAP
0380
07C0
07C0
06C0
0EE0
0EE0
1C70
1C70
1830
3838
3838
701C
701C
701C
E00E
ENDCHAR
STARTCHAR uni02C5
ENCODING 709
SWIDTH 583 0
DWIDTH 19 0
BBX 15 15 2 4
BITMAP
E00E
701C
701C
701C
3838
3838
1830
1C70
1C70
0EE0
0EE0
06C0
07C0
07C0
0380
ENDCHAR
STARTCHAR circumflex
ENCODING 710
SWIDTH 333 0
DWIDTH 11 0
BBX 10 4 1 19
BITMAP
1E00
3F00
7380
E1C0
ENDCHAR
STARTCHAR caron
ENCODING 711
SWIDTH 333 0
DWIDTH 11 0
BBX 10 4 1 19
BITMAP
E1C0
7380
3F00
1E00
ENDCHAR
STARTCHAR uni02C8
ENCODING 712
SWIDTH 333 0
DWIDTH 11 0
BBX 2 5 5 19
BITMAP
C0
C0
C0
C0
C0
ENDCHAR
STARTCHAR macron
ENCODING 713
SWIDTH 333 0
DWIDTH 11 0
BBX 10 3 0 19
BITMAP
FFC0
FFC0
FFC0
ENDCHAR
STARTCHAR uni02CA
ENCODING 714
SWIDTH 333 0
DWIDTH 11 0
BBX 6 4 3 19
BITMAP
3C
78
70
E0
ENDCHAR
STARTCHAR uni02CB
ENCODING 715
SWIDTH 333 0
DWIDTH 11 0
BBX 6 4 1 19
BITMAP
F0
78
38
1C
ENDCHAR
STARTCHAR uni02CC
ENCODING 716
SWIDTH 333 0
DWIDTH 11 0
BBX 2 5 5 -6
BITMAP
C0
C0
C0
C0
C0
ENDCHAR
STARTCHAR uni02CD
ENCODING 717
SWIDTH 333 0
DWIDTH 11 0
BBX 11 3 0 -5
BITMAP
FFE0
FFE0
FFE0
ENDCHAR
STARTCHAR uni02CE
ENCODING 718
SWIDTH 333 0
DWIDTH 11 0
BBX 6 4 1 -6
BITMAP
F0
78
38
1C
ENDCHAR
STARTCHAR uni02CF
ENCODING 719
SWIDTH 333 0
DWIDTH 11 0
BBX 6 4 3 -6
BITMAP
3C
78
70
E0
ENDCHAR
STARTCHAR uni02D0
ENCODING 720
SWIDTH 277 0
DWIDTH 9 0
BBX 3 17 3 0
BITMAP
E0
40
40
00
00
00
00
00
00
00
00
00
00
00
40
40
E0
ENDCHAR
STARTCHAR uni02D1
ENCODING 721
SWIDTH 277 0
DWIDTH 9 0
BBX 3 3 3 14
BITMAP
E0
40
40
ENDCHAR
STARTCHAR uni02D2
ENCODING 722
SWIDTH 333 0
DWIDTH 11 0
BBX 3 6 4 2
BITMAP
C0
60
20
20
60
C0
ENDCHAR
STARTCHAR uni02D3
ENCODING 723
SWIDTH 333 0
DWIDTH 11 0
BBX 3 6 4 2
BITMAP
60
C0
80
80
C0
60
ENDCHAR
STARTCHAR uni02D4
ENCODING 724
SWIDTH 333 0
DWIDTH 11 0
BBX 6 6 3 3
BITMAP
30
30
30
30
FC
FC
ENDCHAR
STARTCHAR uni02D5
ENCODING 725
SWIDTH 333 0
DWIDTH 11 0
BBX 6 6 3 3
BITMAP
FC
FC
30
30
30
30
ENDCHAR
STARTCHAR uni02D6
ENCODING 726
SWIDTH 333 0
DWIDTH 11 0
BBX 6 6 3 3
BITMAP
30
30
FC
FC
30
30
ENDCHAR
STARTCHAR uni02D7
ENCODING 727
SWIDTH 333 0
DWIDTH 11 0
BBX 11 3 0 4
BITMAP
FFE0
FFE0
FFE0
ENDCHAR
STARTCHAR breve
ENCODING 728
SWIDTH 333 0
DWIDTH 11 0
BBX 9 4 0 19
BITMAP
C180
E380
7F00
3E00
ENDCHAR
STARTCHAR dotaccent
ENCODING 729
SWIDTH 333 0
DWIDTH 11 0
BBX 3 3 4 19
BITMAP
E0
E0
E0
ENDCHAR
STARTCHAR ring
ENCODING 730
SWIDTH 333 0
DWIDTH 11 0
BBX 5 5 2 18
BITMAP
70
88
88
88
70
ENDCHAR
STARTCHAR ogonek
ENCODING 731
SWIDTH 333 0
DWIDTH 11 0
BBX 5 6 2 -6
BITMAP
20
40
C0
C0
F8
78
ENDCHAR
STARTCHAR tilde
ENCODING 732
SWIDTH 333 0
DWIDTH 9 0
BBX 9 4 0 19
BITMAP
7980
7F80
FF80
CF00
ENDCHAR
STARTCHAR hungarumlaut
ENCODING 733
SWIDTH 333 0
DWIDTH 11 0
BBX 10 4 1 19
BITMAP
39C0
7380
6300
C600
ENDCHAR
STARTCHAR uni02DE
ENCODING 734
SWIDTH 333 0
DWIDTH 11 0
BBX 8 7 0 6
BITMAP
E0
E0
E0
71
7F
3F
1E
ENDCHAR
STARTCHAR uni02DF
ENCODING 735
SWIDTH 333 0
DWIDTH 11 0
BBX 11 11 0 12
BITMAP
4040
E0E0
71C0
3B80
1F00
0E00
1F00
3B80
71C0
E0E0
4040
ENDCHAR
STARTCHAR uni02E0
ENCODING 736
SWIDTH 322 0
DWIDTH 10 0
BBX 10 16 0 3
BITMAP
C0C0
6180
6180
3300
3300
3300
1E00
1E00
0C00
0C00
1E00
1E00
1200
3300
1E00
1E00
ENDCHAR
STARTCHAR uni02E1
ENCODING 737
SWIDTH 157 0
DWIDTH 5 0
BBX 2 16 2 7
BITMAP
C0
C0
C0
C0
C0
C0
C0
C0
C0
C0
C0
C0
C0
C0
C0
C0
ENDCHAR
STARTCHAR uni02E2
ENCODING 738
SWIDTH 339 0
DWIDTH 11 0
BBX 9 12 1 7
BITMAP
3E00
7F00
C180
C000
F000
7E00
0F00
0180
0180
C380
7F00
3E00
ENDCHAR
STARTCHAR uni02E3
ENCODING 739
SWIDTH 328 0
DWIDTH 11 0
BBX 9 12 1 7
BITMAP
C180
E380
6300
3600
3E00
1C00
1C00
3E00
3600
6300
E380
C180
ENDCHAR
STARTCHAR uni02E4
ENCODING 740
SWIDTH 348 0
DWIDTH 11 0
BBX 10 16 1 7
BITMAP
1F00
7F80
61C0
C0C0
C000
C000
C000
C000
C000
6000
7C00
3C00
0C00
0C00
0C00
0C00
ENDCHAR
STARTCHAR uni02E5
ENCODING 741
SWIDTH 382 0
DWIDTH 12 0
BBX 8 23 2 0
BITMAP
FF
FF
03
03
03
03
03
03
03
03
03
03
03
03
03
03
03
03
03
03
03
03
03
ENDCHAR
STARTCHAR uni02E6
ENCODING 742
SWIDTH 382 0
DWIDTH 12 0
BBX 8 23 2 0
BITMAP
03
03
03
03
03
03
FF
FF
03
03
03
03
03
03
03
03
03
03
03
03
03
03
03
ENDCHAR
STARTCHAR uni02E7
ENCODING 743
SWIDTH 382 0
DWIDTH 12 0
BBX 8 23 2 0
BITMAP
03
03
03
03
03
03
03
03
03
03
03
FF
FF
03
03
03
03
03
03
03
03
03
03
ENDCHAR
STARTCHAR uni02E8
ENCODING 744
SWIDTH 382 0
DWIDTH 12 0
BBX 8 23 2 0
BITMAP
03
03
03
03
03
03
03
03
03
03
03
03
03
03
03
03
FF
FF
03
03
03
03
03
ENDCHAR
STARTCHAR uni02E9
ENCODING 745
SWIDTH 382 0
DWIDTH 12 0
BBX 8 23 2 0
BITMAP
03
03
03
03
03
03
03
03
03
03
03
03
03
03
03
03
03
03
03
03
03
FF
FF
ENDCHAR
STARTCHAR uni02EA
ENCODING 746
SWIDTH 333 0
DWIDTH 11 0
BBX 7 14 2 0
BITMAP
80
80
80
80
80
80
80
80
80
80
80
80
80
FE
ENDCHAR
STARTCHAR uni02EB
ENCODING 747
SWIDTH 333 0
DWIDTH 11 0
BBX 7 14 2 0
BITMAP
80
80
80
80
80
80
80
FE
80
80
80
80
80
80
ENDCHAR
STARTCHAR uni02EC
ENCODING 748
SWIDTH 333 0
DWIDTH 11 0
BBX 10 4 1 -6
BITMAP
E1C0
7380
3F00
1E00
ENDCHAR
STARTCHAR uni02ED
ENCODING 749
SWIDTH 333 0
DWIDTH 11 0
BBX 11 7 0 19
BITMAP
FFE0
FFE0
FFE0
0000
FFE0
FFE0
FFE0
ENDCHAR
STARTCHAR uni02EE
ENCODING 750
SWIDTH 333 0
DWIDTH 11 0
BBX 8 8 1 15
BITMAP
E7
E7
E7
63
63
63
42
C6
ENDCHAR
STARTCHAR uni02EF
ENCODING 751
SWIDTH 333 0
DWIDTH 11 0
BBX 6 4 2 -5
BITMAP
CC
78
30
30
ENDCHAR
STARTCHAR uni02F0
ENCODING 752
SWIDTH 333 0
DWIDTH 11 0
BBX 6 4 2 -5
BITMAP
30
30
78
CC
ENDCHAR
STARTCHAR uni02F1
ENCODING 753
SWIDTH 333 0
DWIDTH 11 0
BBX 4 6 3 -6
BITMAP
10
30
E0
E0
30
10
ENDCHAR
STARTCHAR uni02F2
ENCODING 754
SWIDTH 333 0
DWIDTH 11 0
BBX 4 6 3 -6
BITMAP
80
C0
70
70
C0
80
ENDCHAR
STARTCHAR uni02F3
ENCODING 755
SWIDTH 333 0
DWIDTH 11 0
BBX 6 6 3 -7
BITMAP
78
CC
84
84
CC
78
ENDCHAR
STARTCHAR uni02F4
ENCODING 756
SWIDTH 333 0
DWIDTH 11 0
BBX 6 4 1 3
BITMAP
F0
78
38
1C
ENDCHAR
STARTCHAR uni02F5
ENCODING 757
SWIDTH 333 0
DWIDTH 11 0
BBX 10 4 0 3
BITMAP
E700
7380
3180
18C0
ENDCHAR
STARTCHAR uni02F6
ENCODING 758
SWIDTH 333 0
DWIDTH 11 0
BBX 12 4 0 3
BITMAP
3CF0
79E0
71C0
E380
ENDCHAR
STARTCHAR uni02F7
ENCODING 759
SWIDTH 333 0
DWIDTH 11 0
BBX 10 4 0 -6
BITMAP
38C0
7FC0
FF80
C700
ENDCHAR
STARTCHAR uni02F8
ENCODING 760
SWIDTH 277 0
DWIDTH 9 0
BBX 3 17 3 6
BITMAP
E0
E0
E0
00
00
00
00
00
00
00
00
00
00
00
E0
E0
E0
ENDCHAR
STARTCHAR uni02F9
ENCODING 761
SWIDTH 333 0
DWIDTH 11 0
BBX 5 6 2 17
BITMAP
F8
F8
C0
C0
C0
C0
ENDCHAR
STARTCHAR uni02FA
ENCODING 762
SWIDTH 333 0
DWIDTH 11 0
BBX 5 6 3 17
BITMAP
F8
F8
18
18
18
18
ENDCHAR
STARTCHAR uni02FB
ENCODING 763
SWIDTH 333 0
DWIDTH 11 0
BBX 5 6 2 -7
BITMAP
C0
C0
C0
C0
F8
F8
ENDCHAR
STARTCHAR uni02FC
ENCODING 764
SWIDTH 333 0
DWIDTH 11 0
BBX 5 6 4 -7
BITMAP
18
18
18
18
F8
F8
ENDCHAR
STARTCHAR uni02FD
ENCODING 765
SWIDTH 397 0
DWIDTH 13 0
BBX 12 6 0 -7
BITMAP
C030
C030
C030
C030
FFF0
FFF0
ENDCHAR
STARTCHAR uni02FE
ENCODING 766
SWIDTH 397 0
DWIDTH 13 0
BBX 12 6 0 -7
BITMAP
C000
C000
C000
C000
FFF0
FFF0
ENDCHAR
STARTCHAR uni02FF
ENCODING 767
SWIDTH 333 0
DWIDTH 11 0
BBX 9 10 1 -7
BITMAP
3000
2000
6000
4000
FF80
FF80
4000
6000
2000
3000
ENDCHAR
STARTCHAR gravecomb
ENCODING 768
SWIDTH 0 0
DWIDTH 0 0
BBX 6 4 -8 25
BITMAP
F0
78
38
1C
ENDCHAR
STARTCHAR acutecomb
ENCODING 769
SWIDTH 0 0
DWIDTH 0 0
BBX 6 4 -6 25
BITMAP
3C
78
70
E0
ENDCHAR
STARTCHAR uni0302
ENCODING 770
SWIDTH 0 0
DWIDTH 0 0
BBX 10 4 -5 19
BITMAP
1E00
3F00
7380
E1C0
ENDCHAR
STARTCHAR tildecomb
ENCODING 771
SWIDTH 0 0
DWIDTH 0 0
BBX 10 3 -14 25
BITMAP
78C0
FFC0
C780
ENDCHAR
STARTCHAR uni0304
ENCODING 772
SWIDTH 0 0
DWIDTH 0 0
BBX 10 3 -5 19
BITMAP
FFC0
FFC0
FFC0
ENDCHAR
STARTCHAR uni0305
ENCODING 773
SWIDTH 0 0
DWIDTH 0 0
BBX 19 3 -9 25
BITMAP
FFFFE0
FFFFE0
FFFFE0
ENDCHAR
STARTCHAR uni0306
ENCODING 774
SWIDTH 0 0
DWIDTH 0 0
BBX 9 4 -5 19
BITMAP
C180
E380
7F00
3E00
ENDCHAR
STARTCHAR uni0307
ENCODING 775
SWIDTH 0 0
DWIDTH 0 0
BBX 3 3 -2 19
BITMAP
E0
E0
E0
ENDCHAR
STARTCHAR uni0308
ENCODING 776
SWIDTH 0 0
DWIDTH 0 0
BBX 9 3 -4 19
BITMAP
E380
E380
E380
ENDCHAR
STARTCHAR hookabovecomb
ENCODING 777
SWIDTH 0 0
DWIDTH 0 0
BBX 7 5 -7 24
BITMAP
F8
0E
0E
3C
30
ENDCHAR
STARTCHAR uni030A
ENCODING 778
SWIDTH 0 0
DWIDTH 0 0
BBX 5 5 -3 19
BITMAP
70
88
88
88
70
ENDCHAR
STARTCHAR uni030B
ENCODING 779
SWIDTH 0 0
DWIDTH 0 0
BBX 12 4 -6 19
BITMAP
3CF0
79E0
71C0
E380
ENDCHAR
STARTCHAR uni030C
ENCODING 780
SWIDTH 0 0
DWIDTH 0 0
BBX 10 4 -5 19
BITMAP
E1C0
7380
3F00
1E00
ENDCHAR
STARTCHAR uni030D
ENCODING 781
SWIDTH 0 0
DWIDTH 0 0
BBX 2 5 -1 19
BITMAP
C0
C0
C0
C0
C0
ENDCHAR
STARTCHAR uni030E
ENCODING 782
SWIDTH 0 0
DWIDTH 0 0
BBX 6 5 -3 19
BITMAP
CC
CC
CC
CC
CC
ENDCHAR
STARTCHAR uni030F
ENCODING 783
SWIDTH 0 0
DWIDTH 0 0
BBX 10 4 -5 19
BITMAP
E700
7380
3180
18C0
ENDCHAR
STARTCHAR uni0310
ENCODING 784
SWIDTH 0 0
DWIDTH 0 0
BBX 9 7 -5 19
BITMAP
1C00
1C00
1C00
C180
E380
7F00
3E00
ENDCHAR
STARTCHAR uni0311
ENCODING 785
SWIDTH 0 0
DWIDTH 0 0
BBX 9 4 -5 19
BITMAP
3E00
7F00
E380
C180
ENDCHAR
STARTCHAR uni0312
ENCODING 786
SWIDTH 0 0
DWIDTH 0 0
BBX 3 8 -2 15
BITMAP
60
40
C0
C0
C0
E0
E0
E0
ENDCHAR
STARTCHAR uni0313
ENCODING 787
SWIDTH 0 0
DWIDTH 0 0
BBX 3 8 -1 15
BITMAP
E0
E0
E0
60
60
60
40
C0
ENDCHAR
STARTCHAR uni0314
ENCODING 788
SWIDTH 0 0
DWIDTH 0 0
BBX 3 8 -2 15
BITMAP
E0
E0
E0
C0
C0
C0
40
60
ENDCHAR
STARTCHAR uni0315
ENCODING 789
SWIDTH 0 0
DWIDTH 0 0
BBX 3 8 0 15
BITMAP
E0
E0
E0
60
60
60
40
C0
ENDCHAR
STARTCHAR uni0316
ENCODING 790
SWIDTH 0 0
DWIDTH 0 0
BBX 6 4 -3 -6
BITMAP
F0
78
38
1C
ENDCHAR
STARTCHAR uni0317
ENCODING 791
SWIDTH 0 0
DWIDTH 0 0
BBX 6 4 -3 -6
BITMAP
3C
78
70
E0
ENDCHAR
STARTCHAR uni0318
ENCODING 792
SWIDTH 0 0
DWIDTH 0 0
BBX 5 6 -2 -7
BITMAP
18
18
F8
F8
18
18
ENDCHAR
STARTCHAR uni0319
ENCODING 793
SWIDTH 0 0
DWIDTH 0 0
BBX 5 6 -3 -7
BITMAP
C0
C0
F8
F8
C0
C0
ENDCHAR
STARTCHAR uni031A
ENCODING 794
SWIDTH 0 0
DWIDTH 0 0
BBX 12 7 -6 19
BITMAP
FFF0
FFF0
FFF0
0030
0030
0030
0030
ENDCHAR
STARTCHAR uni031B
ENCODING 795
SWIDTH 0 0
DWIDTH 0 0
BBX 4 8 0 15
BITMAP
70
70
70
30
30
30
60
C0
ENDCHAR
STARTCHAR uni031C
ENCODING 796
SWIDTH 0 0
DWIDTH 0 0
BBX 3 5 -1 -6
BITMAP
60
80
80
80
60
ENDCHAR
STARTCHAR uni031D
ENCODING 797
SWIDTH 0 0
DWIDTH 0 0
BBX 6 6 -3 -7
BITMAP
30
30
30
30
FC
FC
ENDCHAR
STARTCHAR uni031E
ENCODING 798
SWIDTH 0 0
DWIDTH 0 0
BBX 6 6 -3 -7
BITMAP
FC
FC
30
30
30
30
ENDCHAR
STARTCHAR uni031F
ENCODING 799
SWIDTH 0 0
DWIDTH 0 0
BBX 6 6 -3 -7
BITMAP
30
30
FC
FC
30
30
ENDCHAR
STARTCHAR uni0320
ENCODING 800
SWIDTH 0 0
DWIDTH 0 0
BBX 10 3 -5 -5
BITMAP
FFC0
FFC0
FFC0
ENDCHAR
STARTCHAR uni0321
ENCODING 801
SWIDTH 0 0
DWIDTH 0 0
BBX 7 8 -4 -6
BITMAP
0E
0E
0E
0E
0E
FE
FC
F8
ENDCHAR
STARTCHAR uni0322
ENCODING 802
SWIDTH 0 0
DWIDTH 0 0
BBX 7 8 0 -6
BITMAP
E0
E0
E0
E0
E0
FE
7E
3E
ENDCHAR
STARTCHAR dotbelowcomb
ENCODING 803
SWIDTH 0 0
DWIDTH 0 0
BBX 3 3 -12 -5
BITMAP
E0
E0
E0
ENDCHAR
STARTCHAR uni0324
ENCODING 804
SWIDTH 0 0
DWIDTH 0 0
BBX 9 3 -4 -6
BITMAP
E380
E380
E380
ENDCHAR
STARTCHAR uni0325
ENCODING 805
SWIDTH 0 0
DWIDTH 0 0
BBX 6 6 -3 -7
BITMAP
78
CC
84
84
CC
78
ENDCHAR
STARTCHAR uni0326
ENCODING 806
SWIDTH 0 0
DWIDTH 0 0
BBX 3 5 -2 -6
BITMAP
E0
E0
60
60
C0
ENDCHAR
STARTCHAR uni0327
ENCODING 807
SWIDTH 0 0
DWIDTH 0 0
BBX 6 7 -3 -7
BITMAP
30
30
78
0C
0C
FC
F0
ENDCHAR
STARTCHAR uni0328
ENCODING 808
SWIDTH 0 0
DWIDTH 0 0
BBX 5 6 -2 -6
BITMAP
20
40
C0
C0
F8
78
ENDCHAR
STARTCHAR uni0329
ENCODING 809
SWIDTH 0 0
DWIDTH 0 0
BBX 2 5 -1 -6
BITMAP
C0
C0
C0
C0
C0
ENDCHAR
STARTCHAR uni032A
ENCODING 810
SWIDTH 0 0
DWIDTH 0 0
BBX 12 6 -5 -7
BITMAP
FFF0
FFF0
C030
C030
C030
C030
ENDCHAR
STARTCHAR uni032B
ENCODING 811
SWIDTH 0 0
DWIDTH 0 0
BBX 9 3 -5 -5
BITMAP
8880
8880
7700
ENDCHAR
STARTCHAR uni032C
ENCODING 812
SWIDTH 0 0
DWIDTH 0 0
BBX 10 4 -4 -6
BITMAP
E1C0
7380
3F00
1E00
ENDCHAR
STARTCHAR uni032D
ENCODING 813
SWIDTH 0 0
DWIDTH 0 0
BBX 10 4 -5 -6
BITMAP
1E00
3F00
7380
E1C0
ENDCHAR
STARTCHAR uni032E
ENCODING 814
SWIDTH 0 0
DWIDTH 0 0
BBX 9 4 -5 -6
BITMAP
C180
E380
7F00
3E00
ENDCHAR
STARTCHAR uni032F
ENCODING 815
SWIDTH 0 0
DWIDTH 0 0
BBX 9 4 -5 -6
BITMAP
3E00
7F00
E380
C180
ENDCHAR
STARTCHAR uni0330
ENCODING 816
SWIDTH 0 0
DWIDTH 0 0
BBX 10 4 -5 -6
BITMAP
38C0
7FC0
FF80
C700
ENDCHAR
STARTCHAR uni0331
ENCODING 817
SWIDTH 0 0
DWIDTH 0 0
BBX 10 3 -5 -5
BITMAP
FFC0
FFC0
FFC0
ENDCHAR
STARTCHAR uni0332
ENCODING 818
SWIDTH 0 0
DWIDTH 0 0
BBX 19 3 -9 -6
BITMAP
FFFFE0
FFFFE0
FFFFE0
ENDCHAR
STARTCHAR uni0333
ENCODING 819
SWIDTH 0 0
DWIDTH 0 0
BBX 19 5 -9 -7
BITMAP
FFFFE0
FFFFE0
000000
FFFFE0
FFFFE0
ENDCHAR
STARTCHAR uni0334
ENCODING 820
SWIDTH 0 0
DWIDTH 0 0
BBX 10 4 -5 4
BITMAP
38C0
7FC0
FF80
C700
ENDCHAR
STARTCHAR uni0335
ENCODING 821
SWIDTH 0 0
DWIDTH 0 0
BBX 10 3 -5 4
BITMAP
FFC0
FFC0
FFC0
ENDCHAR
STARTCHAR uni0336
ENCODING 822
SWIDTH 0 0
DWIDTH 0 0
BBX 19 3 -9 4
BITMAP
FFFFE0
FFFFE0
FFFFE0
ENDCHAR
STARTCHAR uni0337
ENCODING 823
SWIDTH 0 0
DWIDTH 0 0
BBX 15 15 -8 0
BITMAP
0004
000E
001C
0038
0070
00E0
01C0
0380
0700
0E00
1C00
3800
7000
E000
4000
ENDCHAR
STARTCHAR uni0338
ENCODING 824
SWIDTH 0 0
DWIDTH 0 0
BBX 9 23 -4 0
BITMAP
0180
0180
0300
0300
0300
0600
0600
0600
0C00
0C00
0C00
1C00
1800
1800
1800
3000
3000
3000
6000
6000
6000
E000
C000
ENDCHAR
STARTCHAR uni0339
ENCODING 825
SWIDTH 0 0
DWIDTH 0 0
BBX 3 5 -2 -6
BITMAP
C0
20
20
20
C0
ENDCHAR
STARTCHAR uni033A
ENCODING 826
SWIDTH 0 0
DWIDTH 0 0
BBX 12 6 -5 -7
BITMAP
C030
C030
C030
C030
FFF0
FFF0
ENDCHAR
STARTCHAR uni033B
ENCODING 827
SWIDTH 0 0
DWIDTH 0 0
BBX 6 6 -3 -7
BITMAP
FC
84
84
84
84
FC
ENDCHAR
STARTCHAR uni033C
ENCODING 828
SWIDTH 0 0
DWIDTH 0 0
BBX 9 3 -5 -5
BITMAP
7700
8880
0800
ENDCHAR
STARTCHAR uni033D
ENCODING 829
SWIDTH 0 0
DWIDTH 0 0
BBX 7 7 -3 19
BITMAP
44
EE
7C
38
7C
EE
44
ENDCHAR
STARTCHAR uni033E
ENCODING 830
SWIDTH 0 0
DWIDTH 0 0
BBX 3 8 -2 19
BITMAP
60
80
80
C0
60
20
20
C0
ENDCHAR
STARTCHAR uni033F
ENCODING 831
SWIDTH 0 0
DWIDTH 0 0
BBX 19 5 -9 24
BITMAP
FFFFE0
FFFFE0
000000
FFFFE0
FFFFE0
ENDCHAR
STARTCHAR uni0340
ENCODING 832
SWIDTH 0 0
DWIDTH 0 0
BBX 6 4 -6 19
BITMAP
F0
78
38
1C
ENDCHAR
STARTCHAR uni0341
ENCODING 833
SWIDTH 0 0
DWIDTH 0 0
BBX 6 4 0 19
BITMAP
3C
78
70
E0
ENDCHAR
STARTCHAR uni0342
ENCODING 834
SWIDTH 0 0
DWIDTH 0 0
BBX 10 4 -5 19
BITMAP
38C0
7FC0
FF80
C700
ENDCHAR
STARTCHAR uni0343
ENCODING 835
SWIDTH 0 0
DWIDTH 0 0
BBX 3 8 -1 15
BITMAP
E0
E0
E0
60
60
60
40
C0
ENDCHAR
STARTCHAR uni0344
ENCODING 836
SWIDTH 0 0
DWIDTH 0 0
BBX 12 4 -6 19
BITMAP
0380
E770
E670
EC70
ENDCHAR
STARTCHAR uni0345
ENCODING 837
SWIDTH 0 0
DWIDTH 0 0
BBX 3 4 -1 -6
BITMAP
40
E0
E0
E0
ENDCHAR
STARTCHAR uni0346
ENCODING 838
SWIDTH 0 0
DWIDTH 0 0
BBX 12 6 -5 19
BITMAP
FFF0
FFF0
C030
C030
C030
C030
ENDCHAR
STARTCHAR uni0347
ENCODING 839
SWIDTH 0 0
DWIDTH 0 0
BBX 19 5 -9 -7
BITMAP
FFFFE0
FFFFE0
000000
FFFFE0
FFFFE0
ENDCHAR
STARTCHAR uni0348
ENCODING 840
SWIDTH 0 0
DWIDTH 0 0
BBX 6 5 -3 -6
BITMAP
CC
CC
CC
CC
CC
ENDCHAR
STARTCHAR uni0349
ENCODING 841
SWIDTH 0 0
DWIDTH 0 0
BBX 5 6 -3 -7
BITMAP
F8
F8
18
18
18
18
ENDCHAR
STARTCHAR uni034A
ENCODING 842
SWIDTH 0 0
DWIDTH 0 0
BBX 10 6 -5 18
BITMAP
0600
3CC0
7FC0
FF80
CF00
1800
ENDCHAR
STARTCHAR uni034B
ENCODING 843
SWIDTH 0 0
DWIDTH 0 0
BBX 10 10 -5 19
BITMAP
0E00
0E00
0E00
30C0
7CC0
CF80
C300
0E00
0E00
0E00
ENDCHAR
STARTCHAR uni034C
ENCODING 844
SWIDTH 0 0
DWIDTH 0 0
BBX 10 8 -5 19
BITMAP
30C0
7CC0
CF80
C300
30C0
7CC0
CF80
C300
ENDCHAR
STARTCHAR uni034D
ENCODING 845
SWIDTH 0 0
DWIDTH 0 0
BBX 8 4 -4 -6
BITMAP
42
FF
FF
42
ENDCHAR
STARTCHAR uni034E
ENCODING 846
SWIDTH 0 0
DWIDTH 0 0
BBX 4 6 -2 -7
BITMAP
60
F0
60
60
60
60
ENDCHAR
STARTCHAR uni034F
ENCODING 847
SWIDTH 0 0
DWIDTH 0 0
BBX 25 25 -12 0
BITMAP
F83E0F80
F83E0F80
C0000180
C0000180
C00C0180
006F0000
03636000
03006000
00000000
06003000
C6003180
CC001980
CC001980
C0000180
C6003180
06003000
00000000
03006000
03636000
006F0000
C00C0180
C0000180
C0000180
F83E0F80
F83E0F80
ENDCHAR
STARTCHAR uni0350
ENCODING 848
SWIDTH 0 0
DWIDTH 0 0
BBX 4 6 -2 19
BITMAP
80
C0
70
70
C0
80
ENDCHAR
STARTCHAR uni0351
ENCODING 849
SWIDTH 0 0
DWIDTH 0 0
BBX 3 6 -1 19
BITMAP
60
C0
80
80
C0
60
ENDCHAR
STARTCHAR uni0352
ENCODING 850
SWIDTH 0 0
DWIDTH 0 0
BBX 9 7 -5 19
BITMAP
3E00
7F00
E380
C180
1C00
1C00
1C00
ENDCHAR
STARTCHAR uni0353
ENCODING 851
SWIDTH 0 0
DWIDTH 0 0
BBX 7 7 -3 -7
BITMAP
44
EE
7C
38
7C
EE
44
ENDCHAR
STARTCHAR uni0354
ENCODING 852
SWIDTH 0 0
DWIDTH 0 0
BBX 4 6 -2 -6
BITMAP
10
30
E0
E0
30
10
ENDCHAR
STARTCHAR uni0355
ENCODING 853
SWIDTH 0 0
DWIDTH 0 0
BBX 4 6 -2 -6
BITMAP
80
C0
70
70
C0
80
ENDCHAR
STARTCHAR uni0356
ENCODING 854
SWIDTH 0 0
DWIDTH 0 0
BBX 10 6 -4 -6
BITMAP
8000
C300
7300
7780
CCC0
8000
ENDCHAR
STARTCHAR uni0357
ENCODING 855
SWIDTH 0 0
DWIDTH 0 0
BBX 3 6 -2 19
BITMAP
C0
60
20
20
60
C0
ENDCHAR
STARTCHAR uni0358
ENCODING 856
SWIDTH 0 0
DWIDTH 0 0
BBX 2 2 4 19
BITMAP
C0
C0
ENDCHAR
STARTCHAR uni0359
ENCODING 857
SWIDTH 0 0
DWIDTH 0 0
BBX 5 6 -3 -7
BITMAP
20
20
F8
20
50
50
ENDCHAR
STARTCHAR uni035A
ENCODING 858
SWIDTH 0 0
DWIDTH 0 0
BBX 11 6 -6 -7
BITMAP
7BC0
CE60
8420
8420
CE60
7BC0
ENDCHAR
STARTCHAR uni035B
ENCODING 859
SWIDTH 0 0
DWIDTH 0 0
BBX 6 8 -3 19
BITMAP
60
60
C0
FC
FC
0C
18
18
ENDCHAR
STARTCHAR uni035C
ENCODING 860
SWIDTH 0 0
DWIDTH 0 0
BBX 25 6 -3 -7
BITMAP
C0000180
60000300
38000E00
1F007C00
07FFF000
00FF8000
ENDCHAR
STARTCHAR uni035D
ENCODING 861
SWIDTH 0 0
DWIDTH 0 0
BBX 25 6 -3 19
BITMAP
C0000180
60000300
38000E00
1F007C00
07FFF000
00FF8000
ENDCHAR
STARTCHAR uni035E
ENCODING 862
SWIDTH 0 0
DWIDTH 0 0
BBX 19 3 -3 20
BITMAP
FFFFE0
FFFFE0
FFFFE0
ENDCHAR
STARTCHAR uni035F
ENCODING 863
SWIDTH 0 0
DWIDTH 0 0
BBX 19 3 -3 -6
BITMAP
FFFFE0
FFFFE0
FFFFE0
ENDCHAR
STARTCHAR uni0360
ENCODING 864
SWIDTH 0 0
DWIDTH 0 0
BBX 25 5 -3 19
BITMAP
0F800180
3FF80300
707F0700
600FFE00
C000F800
ENDCHAR
STARTCHAR uni0361
ENCODING 865
SWIDTH 0 0
DWIDTH 0 0
BBX 25 6 -3 19
BITMAP
00FF8000
07FFF000
1F007C00
38000E00
60000300
C0000180
ENDCHAR
STARTCHAR uni0362
ENCODING 866
SWIDTH 0 0
DWIDTH 0 0
BBX 18 4 -3 -6
BITMAP
000080
FFFFC0
FFFFC0
000080
ENDCHAR
STARTCHAR uni0363
ENCODING 867
SWIDTH 0 0
DWIDTH 0 0
BBX 11 12 -5 7
BITMAP
3F00
7F80
E1C0
C0C0
03C0
3FC0
7CC0
C0C0
C1C0
E3C0
7EC0
3CE0
ENDCHAR
STARTCHAR uni0364
ENCODING 868
SWIDTH 0 0
DWIDTH 0 0
BBX 10 12 -5 7
BITMAP
1E00
7F80
6180
C0C0
FFC0
FFC0
C000
C000
C0C0
61C0
7F80
1F00
ENDCHAR
STARTCHAR uni0365
ENCODING 869
SWIDTH 0 0
DWIDTH 0 0
BBX 2 16 -1 7
BITMAP
C0
C0
00
00
C0
C0
C0
C0
C0
C0
C0
C0
C0
C0
C0
C0
ENDCHAR
STARTCHAR uni0366
ENCODING 870
SWIDTH 0 0
DWIDTH 0 0
BBX 11 12 -5 7
BITMAP
1F00
3F80
71C0
E0E0
C060
C060
C060
C060
E0E0
71C0
3F80
1F00
ENDCHAR
STARTCHAR uni0367
ENCODING 871
SWIDTH 0 0
DWIDTH 0 0
BBX 9 12 -5 7
BITMAP
C180
C180
C180
C180
C180
C180
C180
C180
C180
E380
7D80
3980
ENDCHAR
STARTCHAR uni0368
ENCODING 872
SWIDTH 0 0
DWIDTH 0 0
BBX 10 12 -5 7
BITMAP
1F00
7F80
61C0
C0C0
C000
C000
C000
C000
C0C0
61C0
7F80
1F00
ENDCHAR
STARTCHAR uni0369
ENCODING 873
SWIDTH 0 0
DWIDTH 0 0
BBX 10 16 -5 7
BITMAP
00C0
00C0
00C0
00C0
1EC0
7FC0
61C0
E0C0
C0C0
C0C0
C0C0
C0C0
E0C0
61C0
7FC0
1EC0
ENDCHAR
STARTCHAR uni036A
ENCODING 874
SWIDTH 0 0
DWIDTH 0 0
BBX 9 16 -5 7
BITMAP
C000
C000
C000
C000
DE00
FF00
E380
C180
C180
C180
C180
C180
C180
C180
C180
C180
ENDCHAR
STARTCHAR uni036B
ENCODING 875
SWIDTH 0 0
DWIDTH 0 0
BBX 16 12 -8 7
BITMAP
CE3C
FF7E
E3C7
C183
C183
C183
C183
C183
C183
C183
C183
C183
ENDCHAR
STARTCHAR uni036C
ENCODING 876
SWIDTH 0 0
DWIDTH 0 0
BBX 6 12 -3 7
BITMAP
DC
FC
E0
C0
C0
C0
C0
C0
C0
C0
C0
C0
ENDCHAR
STARTCHAR uni036D
ENCODING 877
SWIDTH 0 0
DWIDTH 0 0
BBX 5 16 -2 7
BITMAP
20
60
60
60
F8
F8
60
60
60
60
60
60
60
60
78
38
ENDCHAR
STARTCHAR uni036E
ENCODING 878
SWIDTH 0 0
DWIDTH 0 0
BBX 10 12 -5 7
BITMAP
C0C0
60C0
6180
6180
3180
3300
3300
1B00
1E00
1E00
0E00
0C00
ENDCHAR
STARTCHAR uni036F
ENCODING 879
SWIDTH 0 0
DWIDTH 0 0
BBX 10 12 -5 7
BITMAP
C0C0
6180
3300
3300
1E00
0C00
0C00
1E00
3300
3300
6180
C0C0
ENDCHAR
STARTCHAR uni0374
ENCODING 884
SWIDTH 333 0
DWIDTH 11 0
BBX 6 4 3 19
BITMAP
3C
78
70
E0
ENDCHAR
STARTCHAR uni0375
ENCODING 885
SWIDTH 333 0
DWIDTH 11 0
BBX 6 4 1 -6
BITMAP
1C
38
78
F0
ENDCHAR
STARTCHAR uni037A
ENCODING 890
SWIDTH 333 0
DWIDTH 11 0
BBX 3 4 4 -6
BITMAP
40
E0
E0
E0
ENDCHAR
STARTCHAR uni037B
ENCODING 891
SWIDTH 500 0
DWIDTH 16 0
BBX 14 17 1 0
BITMAP
0F80
3FE0
7FF0
7078
E038
E01C
001C
001C
001C
001C
001C
E01C
E038
7078
7FF0
3FE0
0F80
ENDCHAR
STARTCHAR uni037C
ENCODING 892
SWIDTH 500 0
DWIDTH 16 0
BBX 14 17 1 0
BITMAP
0780
1FE0
3FF0
7878
7038
E01C
E000
E700
E700
E700
E000
E01C
703C
7878
3FF8
1FF0
0FC0
ENDCHAR
STARTCHAR uni037D
ENCODING 893
SWIDTH 500 0
DWIDTH 16 0
BBX 14 17 1 0
BITMAP
0F80
3FE0
7FF0
7078
E038
E01C
001C
039C
039C
039C
001C
E01C
E038
7078
7FF0
3FE0
0F80
ENDCHAR
STARTCHAR semicolon.dup3
ENCODING 894
SWIDTH 277 0
DWIDTH 9 0
BBX 3 22 3 -5
BITMAP
E0
E0
E0
00
00
00
00
00
00
00
00
00
00
00
E0
E0
E0
60
60
60
40
C0
ENDCHAR
STARTCHAR tonos
ENCODING 900
SWIDTH 333 0
DWIDTH 11 0
BBX 6 4 4 19
BITMAP
3C
78
70
E0
ENDCHAR
STARTCHAR dieresistonos
ENCODING 901
SWIDTH 333 0
DWIDTH 11 0
BBX 12 4 -1 19
BITMAP
0380
E770
E670
EC70
ENDCHAR
STARTCHAR Alphatonos
ENCODING 902
SWIDTH 667 0
DWIDTH 21 0
BBX 21 23 0 0
BITMAP
0EF800
1CF800
38F800
71DC00
01DC00
01DC00
038E00
038E00
070700
070700
070700
0E0380
0E0380
0FFF80
1FFFC0
1FFFC0
3800E0
3800E0
3800E0
700070
700070
700070
E00038
ENDCHAR
STARTCHAR anoteleia
ENCODING 903
SWIDTH 277 0
DWIDTH 9 0
BBX 3 3 3 14
BITMAP
E0
E0
E0
ENDCHAR
STARTCHAR Epsilontonos
ENCODING 904
SWIDTH 784 0
DWIDTH 25 0
BBX 24 23 -1 0
BITMAP
1DFFFE
39FFFE
71FFFE
E1C000
01C000
01C000
01C000
01C000
01C000
01FFFC
01FFFC
01FFFC
01C000
01C000
01C000
01C000
01C000
01C000
01C000
01C000
01FFFF
01FFFF
01FFFF
ENDCHAR
STARTCHAR Etatonos
ENCODING 905
SWIDTH 837 0
DWIDTH 27 0
BBX 25 23 -1 0
BITMAP
1F800380
3B800380
73800380
E3800380
03800380
03800380
03800380
03800380
03800380
03FFFF80
03FFFF80
03FFFF80
03800380
03800380
03800380
03800380
03800380
03800380
03800380
03800380
03800380
03800380
03800380
ENDCHAR
STARTCHAR Iotatonos
ENCODING 906
SWIDTH 383 0
DWIDTH 12 0
BBX 10 23 -1 0
BITMAP
1DC0
39C0
71C0
E1C0
01C0
01C0
01C0
01C0
01C0
01C0
01C0
01C0
01C0
01C0
01C0
01C0
01C0
01C0
01C0
01C0
01C0
01C0
01C0
ENDCHAR
STARTCHAR Omicrontonos
ENCODING 908
SWIDTH 774 0
DWIDTH 25 0
BBX 25 23 -1 0
BITMAP
1C3F8000
39FFF000
73FFF800
E7C07C00
0F001E00
1E000F00
1C000700
1C000700
38000380
38000380
38000380
38000380
38000380
38000380
38000380
1C000700
1C000700
1E000F00
0F001E00
07C07C00
03FFF800
01FFF000
003F8000
ENDCHAR
STARTCHAR Upsilontonos
ENCODING 910
SWIDTH 855 0
DWIDTH 26 0
BBX 28 23 -2 0
BITMAP
1DC000F0
38E001E0
707001C0
E07803C0
003C0780
001C0700
000E0F00
000F1E00
00071C00
0003B800
0003B800
0001F000
0000E000
0000E000
0000E000
0000E000
0000E000
0000E000
0000E000
0000E000
0000E000
0000E000
0000E000
ENDCHAR
STARTCHAR Omegatonos
ENCODING 911
SWIDTH 752 0
DWIDTH 24 0
BBX 24 23 -1 0
BITMAP
1C3F80
38FFE0
71FFF0
E3E0F8
03C078
07803C
07001C
0F001E
0E000E
0E000E
0E000E
0E000E
0E000E
0E000E
06000C
07001C
07001C
038038
01C070
01E0F0
1FF1FF
1FF1FF
1FF1FF
ENDCHAR
STARTCHAR iotadieresistonos
ENCODING 912
SWIDTH 222 0
DWIDTH 7 0
BBX 12 24 -2 0
BITMAP
0380
E770
E670
EC70
0000
0000
0000
0E00
0E00
0E00
0E00
0E00
0E00
0E00
0E00
0E00
0E00
0E00
0E00
0E00
0E00
0E00
0E00
0E00
ENDCHAR
STARTCHAR Alpha
ENCODING 913
SWIDTH 666 0
DWIDTH 21 0
BBX 21 23 0 0
BITMAP
00F800
00F800
00F800
01DC00
01DC00
01DC00
038E00
038E00
070700
070700
070700
0E0380
0E0380
0FFF80
1FFFC0
1FFFC0
3800E0
3800E0
3800E0
700070
700070
700070
E00038
ENDCHAR
STARTCHAR Beta
ENCODING 914
SWIDTH 666 0
DWIDTH 21 0
BBX 17 23 3 0
BITMAP
FFF000
FFFC00
FFFE00
E01F00
E00700
E00700
E00700
E00700
E01E00
FFFC00
FFFC00
FFFE00
E00F00
E00780
E00380
E00380
E00380
E00380
E00780
E00F00
FFFF00
FFFE00
FFF800
ENDCHAR
STARTCHAR Gamma
ENCODING 915
SWIDTH 550 0
DWIDTH 18 0
BBX 15 23 3 0
BITMAP
FFFE
FFFE
FFFE
E000
E000
E000
E000
E000
E000
E000
E000
E000
E000
E000
E000
E000
E000
E000
E000
E000
E000
E000
E000
ENDCHAR
STARTCHAR Delta
ENCODING 916
SWIDTH 667 0
DWIDTH 21 0
BBX 19 23 1 0
BITMAP
00E000
01F000
01F000
01F000
03B800
03B800
03B800
071C00
071C00
0F0E00
0E0E00
0E0E00
1C0700
1C0700
1C0700
380380
380380
380380
7001C0
7001C0
FFFFE0
FFFFE0
FFFFE0
ENDCHAR
STARTCHAR Epsilon
ENCODING 917
SWIDTH 666 0
DWIDTH 21 0
BBX 16 23 3 0
BITMAP
FFFE
FFFE
FFFE
E000
E000
E000
E000
E000
E000
FFFC
FFFC
FFFC
E000
E000
E000
E000
E000
E000
E000
E000
FFFF
FFFF
FFFF
ENDCHAR
STARTCHAR Zeta
ENCODING 918
SWIDTH 610 0
DWIDTH 20 0
BBX 19 23 0 0
BITMAP
7FFFC0
7FFFC0
7FFFC0
0003C0
000780
000F00
001E00
001C00
003800
007000
00F000
01E000
03C000
078000
070000
0E0000
1E0000
3C0000
780000
F00000
FFFFE0
FFFFE0
FFFFE0
ENDCHAR
STARTCHAR Eta
ENCODING 919
SWIDTH 722 0
DWIDTH 23 0
BBX 17 23 3 0
BITMAP
E00380
E00380
E00380
E00380
E00380
E00380
E00380
E00380
E00380
FFFF80
FFFF80
FFFF80
E00380
E00380
E00380
E00380
E00380
E00380
E00380
E00380
E00380
E00380
E00380
ENDCHAR
STARTCHAR Theta
ENCODING 920
SWIDTH 777 0
DWIDTH 25 0
BBX 23 23 1 0
BITMAP
00FE00
07FFC0
0FFFE0
1F01F0
3C0078
78003C
70001C
70001C
E0000E
E0000E
E3FF8E
E3FF8E
E3FF8E
E0000E
E0000E
70001C
70001C
78003C
3C0078
1F01F0
0FFFE0
07FFC0
00FE00
ENDCHAR
STARTCHAR Iota
ENCODING 921
SWIDTH 277 0
DWIDTH 9 0
BBX 3 23 3 0
BITMAP
E0
E0
E0
E0
E0
E0
E0
E0
E0
E0
E0
E0
E0
E0
E0
E0
E0
E0
E0
E0
E0
E0
E0
ENDCHAR
STARTCHAR Kappa
ENCODING 922
SWIDTH 666 0
DWIDTH 21 0
BBX 19 23 3 0
BITMAP
E003C0
E00780
E00F00
E01E00
E03C00
E07800
E0F000
E1E000
E3C000
E78000
EF8000
FFC000
FDE000
F8F000
F0F000
E07800
E03C00
E01E00
E00E00
E00700
E00780
E003C0
E001E0
ENDCHAR
STARTCHAR Lambda
ENCODING 923
SWIDTH 667 0
DWIDTH 21 0
BBX 19 23 1 0
BITMAP
00E000
01F000
01F000
01F000
03B800
03B800
03B800
071C00
071C00
070E00
0E0E00
0E0E00
1C0700
1C0700
1C0700
380380
380380
380380
7001C0
7001C0
E000E0
E000E0
E000E0
ENDCHAR
STARTCHAR Mu
ENCODING 924
SWIDTH 833 0
DWIDTH 27 0
BBX 21 23 3 0
BITMAP
F800F8
F800F8
FC01F8
FC01F8
FC01F8
EE03B8
EE03B8
EE03B8
E60338
E70738
E70738
E70738
E38E38
E38E38
E38E38
E18C38
E1DC38
E1DC38
E1DC38
E0D838
E0F838
E0F838
E07038
ENDCHAR
STARTCHAR Nu
ENCODING 925
SWIDTH 722 0
DWIDTH 23 0
BBX 17 23 3 0
BITMAP
E00380
F00380
F80380
F80380
FC0380
FC0380
EE0380
E70380
E70380
E38380
E38380
E1C380
E0E380
E0E380
E07380
E07380
E03B80
E01F80
E01F80
E00F80
E00F80
E00780
E00380
ENDCHAR
STARTCHAR Xi
ENCODING 926
SWIDTH 649 0
DWIDTH 21 0
BBX 17 23 2 0
BITMAP
FFFF80
FFFF80
FFFF80
000000
000000
000000
000000
000000
000000
000000
3FFE00
3FFE00
3FFE00
000000
000000
000000
000000
000000
000000
000000
FFFF80
FFFF80
FFFF80
ENDCHAR
STARTCHAR Omicron
ENCODING 927
SWIDTH 777 0
DWIDTH 25 0
BBX 23 23 1 0
BITMAP
00FE00
07FFC0
0FFFE0
1F01F0
3C0078
78003C
70001C
70001C
E0000E
E0000E
E0000E
E0000E
E0000E
E0000E
E0000E
70001C
70001C
78003C
3C0078
1F01F0
0FFFE0
07FFC0
00FE00
ENDCHAR
STARTCHAR Pi
ENCODING 928
SWIDTH 722 0
DWIDTH 23 0
BBX 17 23 3 0
BITMAP
FFFF80
FFFF80
FFFF80
E00380
E00380
E00380
E00380
E00380
E00380
E00380
E00380
E00380
E00380
E00380
E00380
E00380
E00380
E00380
E00380
E00380
E00380
E00380
E00380
ENDCHAR
STARTCHAR Rho
ENCODING 929
SWIDTH 666 0
DWIDTH 21 0
BBX 17 23 3 0
BITMAP
FFF800
FFFE00
FFFF00
E00F00
E00780
E00380
E00380
E00380
E00380
E00780
E00F00
FFFF00
FFFE00
FFF800
E00000
E00000
E00000
E00000
E00000
E00000
E00000
E00000
E00000
ENDCHAR
STARTCHAR Sigma
ENCODING 931
SWIDTH 618 0
DWIDTH 20 0
BBX 16 23 3 0
BITMAP
FFFE
FFFE
FFFE
E000
7000
3800
1C00
0E00
0700
0380
01C0
01C0
0380
0700
0E00
0E00
1C00
3800
7000
E000
FFFF
FFFF
FFFF
ENDCHAR
STARTCHAR Tau
ENCODING 932
SWIDTH 610 0
DWIDTH 19 0
BBX 19 23 0 0
BITMAP
FFFFE0
FFFFE0
FFFFE0
00E000
00E000
00E000
00E000
00E000
00E000
00E000
00E000
00E000
00E000
00E000
00E000
00E000
00E000
00E000
00E000
00E000
00E000
00E000
00E000
ENDCHAR
STARTCHAR Upsilon
ENCODING 933
SWIDTH 666 0
DWIDTH 21 0
BBX 21 23 0 0
BITMAP
E00078
7000F0
3800E0
3C01E0
1C03C0
0E0380
0F0780
078F00
038E00
03DE00
01DC00
00F800
00F800
007000
007000
007000
007000
007000
007000
007000
007000
007000
007000
ENDCHAR
STARTCHAR Phi
ENCODING 934
SWIDTH 797 0
DWIDTH 26 0
BBX 24 23 1 0
BITMAP
001800
001800
001800
01FF80
0FFFE0
1FFFF8
3E187C
78181E
70180E
E01807
E01807
E01807
E01807
E01807
70180E
78181E
3F187C
1FFFF8
0FFFF0
01FF80
001800
001800
001800
ENDCHAR
STARTCHAR Chi
ENCODING 935
SWIDTH 666 0
DWIDTH 21 0
BBX 21 23 0 0
BITMAP
7800F0
3C01E0
1C01C0
0E0380
0F0780
078F00
038E00
01DC00
01DC00
00F800
007000
00F800
00F800
01DC00
03DE00
038E00
070700
0F0780
1E03C0
1C01C0
3800E0
7800F0
F00078
ENDCHAR
STARTCHAR Psi
ENCODING 936
SWIDTH 835 0
DWIDTH 27 0
BBX 23 23 2 0
BITMAP
E0380E
E0380E
E0380E
E0380E
E0380E
E0380E
E0380E
E0380E
E0380E
F0381E
70381C
78383C
3E38F8
3FFFF8
0FFFE0
03FF80
003800
003800
003800
003800
003800
003800
003800
ENDCHAR
STARTCHAR Omega
ENCODING 937
SWIDTH 747 0
DWIDTH 24 0
BBX 21 23 2 0
BITMAP
01FC00
07FF00
0FFF80
1F07C0
1E03C0
3C01E0
3800E0
7800F0
700070
700070
700070
700070
700070
700070
300060
3800E0
3800E0
1C01C0
0E0380
0F0780
FF8FF8
FF8FF8
FF8FF8
ENDCHAR
STARTCHAR Iotadieresis
ENCODING 938
SWIDTH 277 0
DWIDTH 9 0
BBX 9 28 0 0
BITMAP
E380
E380
E380
0000
0000
1C00
1C00
1C00
1C00
1C00
1C00
1C00
1C00
1C00
1C00
1C00
1C00
1C00
1C00
1C00
1C00
1C00
1C00
1C00
1C00
1C00
1C00
1C00
ENDCHAR
STARTCHAR Upsilondieresis
ENCODING 939
SWIDTH 666 0
DWIDTH 21 0
BBX 21 28 0 0
BITMAP
038E00
038E00
038E00
000000
000000
E00078
7000F0
3800E0
3C01E0
1C03C0
0E0380
0F0780
078F00
038E00
03DE00
01DC00
00F800
00F800
007000
007000
007000
007000
007000
007000
007000
007000
007000
007000
ENDCHAR
STARTCHAR alphatonos
ENCODING 940
SWIDTH 578 0
DWIDTH 19 0
BBX 17 23 1 0
BITMAP
003C00
007800
007000
00E000
000000
000000
07C380
1FF380
3FFF80
7C3F80
700F00
F00F00
E00700
E00700
E00700
E00700
E00700
F00F00
700F00
7C3F00
3FFF80
1FF780
0FC380
ENDCHAR
STARTCHAR epsilontonos
ENCODING 941
SWIDTH 445 0
DWIDTH 14 0
BBX 12 23 1 0
BITMAP
03C0
0780
0700
0E00
0000
0000
0F00
3FC0
3FE0
78C0
7000
7000
7800
3F00
1F00
7F00
F000
E000
E060
F0F0
7FE0
7FC0
1F00
ENDCHAR
STARTCHAR etatonos
ENCODING 942
SWIDTH 556 0
DWIDTH 18 0
BBX 14 29 2 -6
BITMAP
00F0
01E0
01C0
0380
0000
0000
E7E0
EFF8
FFF8
F83C
F03C
E01C
E01C
E01C
E01C
E01C
E01C
E01C
E01C
E01C
E01C
E01C
E01C
001C
001C
001C
001C
001C
001C
ENDCHAR
STARTCHAR iotatonos
ENCODING 943
SWIDTH 222 0
DWIDTH 7 0
BBX 6 23 1 0
BITMAP
3C
78
70
E0
00
00
70
70
70
70
70
70
70
70
70
70
70
70
70
70
70
70
70
ENDCHAR
STARTCHAR upsilondieresistonos
ENCODING 944
SWIDTH 546 0
DWIDTH 18 0
BBX 14 23 2 0
BITMAP
0380
E370
E770
E670
0000
0000
E01C
E01C
E01C
E01C
E01C
E01C
E01C
E01C
E01C
E01C
E01C
E01C
F03C
7878
7FF8
3FF0
0FC0
ENDCHAR
STARTCHAR alpha
ENCODING 945
SWIDTH 578 0
DWIDTH 19 0
BBX 17 17 1 0
BITMAP
07C380
1FF380
3FFF80
7C3F80
700F00
F00F00
E00700
E00700
E00700
E00700
E00700
F00F00
700F00
7C3F00
3FFF80
1FF780
0FC380
ENDCHAR
STARTCHAR beta
ENCODING 946
SWIDTH 575 0
DWIDTH 18 0
BBX 15 29 2 -6
BITMAP
0FC0
3FF0
7FF8
787C
F01C
E01C
E01C
E03C
E078
E7F0
E780
E7F0
E07C
E01C
E00E
E00E
E00E
F00E
F01E
FC3C
EFFC
EFF8
E3E0
E000
E000
E000
E000
E000
E000
ENDCHAR
STARTCHAR gamma
ENCODING 947
SWIDTH 500 0
DWIDTH 16 0
BBX 15 23 1 -6
BITMAP
E00E
E00E
E00E
701C
701C
3838
3838
3838
1C70
1C70
0EF0
0EE0
0EE0
07C0
07C0
07C0
0380
0380
0380
0380
0380
0380
0380
ENDCHAR
STARTCHAR delta
ENCODING 948
SWIDTH 556 0
DWIDTH 18 0
BBX 16 23 1 0
BITMAP
3FFE
3FFE
3FFE
1E00
0700
03C0
07F0
1FF8
3FFC
7C3E
700E
F00F
E007
E007
E007
E007
E007
F00F
700E
7C3E
3FFC
1FF8
07E0
ENDCHAR
STARTCHAR epsilon
ENCODING 949
SWIDTH 445 0
DWIDTH 14 0
BBX 12 17 1 0
BITMAP
0F00
3FC0
3FE0
78C0
7000
7000
7800
3F00
1F00
7F00
F000
E000
E060
F0F0
7FE0
7FC0
1F00
ENDCHAR
STARTCHAR zeta
ENCODING 950
SWIDTH 440 0
DWIDTH 14 0
BBX 13 29 1 -6
BITMAP
1FF8
1FF8
1FF8
0070
01C0
0380
0700
0E00
1C00
1C00
3800
7000
7000
F000
E000
E000
E000
E000
E000
F800
7FC0
3FF0
1FF8
0078
0038
0078
00F0
01E0
01C0
ENDCHAR
STARTCHAR eta
ENCODING 951
SWIDTH 556 0
DWIDTH 18 0
BBX 14 23 2 -6
BITMAP
E7E0
EFF8
FFF8
F83C
F03C
E01C
E01C
E01C
E01C
E01C
E01C
E01C
E01C
E01C
E01C
E01C
E01C
001C
001C
001C
001C
001C
001C
ENDCHAR
STARTCHAR theta
ENCODING 952
SWIDTH 556 0
DWIDTH 17 0
BBX 15 23 1 0
BITMAP
07C0
1FF0
3FF8
7878
701C
701C
E00E
E00E
E00E
E00E
FFFE
FFFE
FFFE
E00E
E00E
E00E
E00E
701C
701C
787C
3FF8
1FF0
07C0
ENDCHAR
STARTCHAR iota
ENCODING 953
SWIDTH 222 0
DWIDTH 7 0
BBX 3 17 2 0
BITMAP
E0
E0
E0
E0
E0
E0
E0
E0
E0
E0
E0
E0
E0
E0
E0
E0
E0
ENDCHAR
STARTCHAR kappa
ENCODING 954
SWIDTH 500 0
DWIDTH 16 0
BBX 13 17 2 0
BITMAP
E070
E0E0
E1C0
E380
E300
E600
EC00
FC00
FE00
E700
E380
E380
E1C0
E0E0
E070
E070
E038
ENDCHAR
STARTCHAR lambda
ENCODING 955
SWIDTH 500 0
DWIDTH 16 0
BBX 15 23 0 0
BITMAP
0E00
0E00
0E00
0700
0700
0380
0380
0380
07C0
07C0
0FE0
0EE0
0EE0
1C70
1C70
3C78
3838
3838
701C
701C
F01E
E00E
E00E
ENDCHAR
STARTCHAR mu
ENCODING 956
SWIDTH 576 0
DWIDTH 18 0
BBX 14 23 2 -6
BITMAP
E01C
E01C
E01C
E01C
E01C
E01C
E01C
E01C
E01C
E01C
E01C
E01C
F03C
F87C
FFFC
EFDC
E79C
E000
E000
E000
E000
E000
E000
ENDCHAR
STARTCHAR nu
ENCODING 957
SWIDTH 500 0
DWIDTH 15 0
BBX 15 17 0 0
BITMAP
E00E
701C
701C
701C
3838
3838
3838
1C70
1C70
1C70
0EE0
0EE0
06C0
06C0
07C0
0380
0380
ENDCHAR
STARTCHAR xi
ENCODING 958
SWIDTH 447 0
DWIDTH 14 0
BBX 13 29 1 -6
BITMAP
07E0
1FE0
3FE0
7800
7000
7000
7800
3FE0
1FE0
0FE0
1F00
3C00
7800
7000
E000
E000
E000
E000
F000
7800
7FC0
3FF0
07F8
0078
0038
0078
01F0
03E0
0380
ENDCHAR
STARTCHAR omicron
ENCODING 959
SWIDTH 556 0
DWIDTH 17 0
BBX 15 17 1 0
BITMAP
07C0
1FF0
3FF8
783C
701C
F01E
E00E
E00E
E00E
E00E
E00E
F01E
701C
783C
3FF8
1FF0
07C0
ENDCHAR
STARTCHAR pi
ENCODING 960
SWIDTH 689 0
DWIDTH 22 0
BBX 20 17 1 0
BITMAP
FFFFF0
FFFFF0
FFFFF0
0E0700
0E0700
0E0700
0E0700
0E0700
0E0700
0E0700
0E0700
0E0700
0E0700
0E0700
0E0700
0E0700
0E0700
ENDCHAR
STARTCHAR rho
ENCODING 961
SWIDTH 568 0
DWIDTH 17 0
BBX 14 23 2 -6
BITMAP
0FC0
3FE0
3FF0
7878
7038
E03C
E01C
E01C
E01C
E01C
E01C
E03C
F038
F878
FFF0
EFE0
E7C0
E000
E000
E000
E000
E000
E000
ENDCHAR
STARTCHAR sigma1
ENCODING 962
SWIDTH 481 0
DWIDTH 14 0
BBX 13 23 1 -6
BITMAP
03F0
0FF8
1FF8
3E00
7800
7000
F000
E000
E000
E000
E000
F000
7000
7C00
3F80
1FE0
07F0
00F0
0070
00F0
07E0
0FE0
0F80
ENDCHAR
STARTCHAR sigma
ENCODING 963
SWIDTH 617 0
DWIDTH 20 0
BBX 18 17 1 0
BITMAP
07FFC0
1FFFC0
3FFFC0
783800
701C00
F01E00
E00E00
E00E00
E00E00
E00E00
E00E00
F01E00
701C00
783C00
3FF800
1FF000
07C000
ENDCHAR
STARTCHAR tau
ENCODING 964
SWIDTH 395 0
DWIDTH 13 0
BBX 9 17 2 0
BITMAP
FF80
FF80
FF80
1C00
1C00
1C00
1C00
1C00
1C00
1C00
1C00
1C00
1C00
1C00
1C00
1C00
1C00
ENDCHAR
STARTCHAR upsilon
ENCODING 965
SWIDTH 546 0
DWIDTH 18 0
BBX 14 17 2 0
BITMAP
E01C
E01C
E01C
E01C
E01C
E01C
E01C
E01C
E01C
E01C
E01C
E01C
F03C
7878
7FF8
3FF0
0FC0
ENDCHAR
STARTCHAR phi
ENCODING 966
SWIDTH 648 0
DWIDTH 21 0
BBX 19 23 1 -6
BITMAP
0E7E00
1EFF00
3EFF80
78E3C0
70E1C0
E0E0E0
E0E0E0
E0E0E0
E0E0E0
E0E0E0
E0E1E0
70E1C0
78E3C0
3CE780
1FFF00
0FFE00
03F800
00E000
00E000
00E000
00E000
00E000
00E000
ENDCHAR
STARTCHAR chi
ENCODING 967
SWIDTH 524 0
DWIDTH 17 0
BBX 15 23 1 -6
BITMAP
E00E
E00E
701C
783C
3838
1C70
1C70
0EE0
0EE0
07C0
07C0
0380
07C0
07C0
0EE0
0EE0
1C70
1C70
3838
783C
701C
E00E
E00E
ENDCHAR
STARTCHAR psi
ENCODING 968
SWIDTH 712 0
DWIDTH 23 0
BBX 19 23 2 -6
BITMAP
E0E0E0
E0E0E0
E0E0E0
E0E0E0
E0E0E0
E0E0E0
E0E0E0
E0E0E0
E0E0E0
E0E0E0
E0E0E0
E0E0E0
F0E1E0
70E1C0
3CE780
1FFF00
07FC00
00E000
00E000
00E000
00E000
00E000
00E000
ENDCHAR
STARTCHAR omega
ENCODING 969
SWIDTH 780 0
DWIDTH 24 0
BBX 22 17 1 0
BITMAP
1C00E0
380070
380070
700038
703838
E0381C
E0381C
E0381C
E0381C
E0381C
E0381C
F0381C
707C38
78EE78
3FEFF8
3FC7F0
0F83E0
ENDCHAR
STARTCHAR iotadieresis
ENCODING 970
SWIDTH 222 0
DWIDTH 7 0
BBX 9 22 -1 0
BITMAP
E380
E380
E380
0000
0000
1C00
1C00
1C00
1C00
1C00
1C00
1C00
1C00
1C00
1C00
1C00
1C00
1C00
1C00
1C00
1C00
1C00
ENDCHAR
STARTCHAR upsilondieresis
ENCODING 971
SWIDTH 546 0
DWIDTH 18 0
BBX 14 22 2 0
BITMAP
1C70
1C70
1C70
0000
0000
E01C
E01C
E01C
E01C
E01C
E01C
E01C
E01C
E01C
E01C
E01C
E01C
F03C
7878
7FF8
3FF0
0FC0
ENDCHAR
STARTCHAR omicrontonos
ENCODING 972
SWIDTH 556 0
DWIDTH 17 0
BBX 15 23 1 0
BITMAP
00F0
01E0
01C0
0380
0000
0000
07C0
1FF0
3FF8
783C
701C
F01E
E00E
E00E
E00E
E00E
E00E
F01E
701C
783C
3FF8
1FF0
07C0
ENDCHAR
STARTCHAR upsilontonos
ENCODING 973
SWIDTH 546 0
DWIDTH 18 0
BBX 14 23 2 0
BITMAP
01E0
01C0
0380
0300
0000
0000
E01C
E01C
E01C
E01C
E01C
E01C
E01C
E01C
E01C
E01C
E01C
E01C
F03C
7878
7FF8
3FF0
0FC0
ENDCHAR
STARTCHAR omegatonos
ENCODING 974
SWIDTH 780 0
DWIDTH 24 0
BBX 22 23 1 0
BITMAP
001E00
001C00
003800
003000
000000
000000
1C00E0
380070
380070
700038
703838
E0381C
E0381C
E0381C
E0381C
E0381C
E0381C
F0381C
707C38
78EE78
3FEFF8
3FC7F0
0F83E0
ENDCHAR
STARTCHAR uni03D0
ENCODING 976
SWIDTH 575 0
DWIDTH 18 0
BBX 15 23 2 0
BITMAP
0FC0
3FF0
7FF8
787C
F01C
E01C
E01C
E03C
E078
E7F0
E7C0
E7F8
E07C
E01C
E00E
E00E
E00E
F00E
F01E
783C
7FFC
3FF8
0FE0
ENDCHAR
STARTCHAR uni03D1
ENCODING 977
SWIDTH 546 0
DWIDTH 18 0
BBX 16 23 2 0
BITMAP
01F0
03F8
03FC
07BC
071C
071C
E71C
E71C
E79C
E3FF
E3FF
E0FF
E01C
E01C
E01C
E01C
E01C
E01C
F03C
7878
7FF8
3FF0
0FC0
ENDCHAR
STARTCHAR uni03D2
ENCODING 978
SWIDTH 772 0
DWIDTH 25 0
BBX 25 23 0 0
BITMAP
E0001E00
70003F00
38007F80
3800E300
1C00E000
0E01C000
0F038000
07070000
03870000
038E0000
01DC0000
00F80000
00F80000
00700000
00700000
00700000
00700000
00700000
00700000
00700000
00700000
00700000
00700000
ENDCHAR
STARTCHAR uni03D3
ENCODING 979
SWIDTH 958 0
DWIDTH 31 0
BBX 32 23 -1 0
BITMAP
79C0003C
70E0007E
E07000FF
C07001C6
003801C0
001C0380
001E0700
000E0E00
00070E00
00071C00
0003B800
0001F000
0001F000
0000E000
0000E000
0000E000
0000E000
0000E000
0000E000
0000E000
0000E000
0000E000
0000E000
ENDCHAR
STARTCHAR uni03D4
ENCODING 980
SWIDTH 772 0
DWIDTH 25 0
BBX 25 28 0 0
BITMAP
01C70000
01C70000
01C70000
00000000
00000000
E0001E00
70003F00
38007F80
3800E300
1C00E000
0E01C000
0F038000
07070000
03870000
038E0000
01DC0000
00F80000
00F80000
00700000
00700000
00700000
00700000
00700000
00700000
00700000
00700000
00700000
00700000
ENDCHAR
STARTCHAR uni03D5
ENCODING 981
SWIDTH 560 0
DWIDTH 18 0
BBX 15 29 2 -6
BITMAP
0380
0380
0380
0380
0380
0380
0FE0
1FF0
3FF8
7BBC
739C
E39E
E38E
E38E
E38E
E38E
E38E
E39E
739C
7BBC
3FF8
1FF0
0FE0
0380
0380
0380
0380
0380
0380
ENDCHAR
STARTCHAR uni03D6
ENCODING 982
SWIDTH 780 0
DWIDTH 25 0
BBX 23 17 1 0
BITMAP
FFFFFE
FFFFFE
FFFFFE
70001C
70001C
E0381E
E0380E
E0380E
E0380E
E0380E
E0380E
E0381E
F07C1C
78FE3C
7FEFFC
3FC7F8
0F83E0
ENDCHAR
STARTCHAR uni03D7
ENCODING 983
SWIDTH 601 0
DWIDTH 19 0
BBX 18 24 0 -7
BITMAP
F803C0
FC0780
FE0F00
1E1E00
0E1C00
0E3C00
0E7C00
0EFC00
0FFC00
0FDC00
0F9C00
0F1C00
0E1C00
1E1E00
3C1FC0
780FC0
F007C0
0001C0
0001C0
0001C0
0003C0
001F80
001F80
001F00
ENDCHAR
STARTCHAR uni03D8
ENCODING 984
SWIDTH 777 0
DWIDTH 25 0
BBX 23 29 1 -6
BITMAP
00FE00
07FFC0
0FFFE0
1F01F0
3C0078
78003C
70001C
70001C
E0000E
E0000E
E0000E
E0000E
E0000E
E0000E
E0000E
70001C
70001C
78003C
3C0078
1F01F0
0FFFE0
07FFC0
00FE00
003800
003800
003800
003800
003800
003800
ENDCHAR
STARTCHAR uni03D9
ENCODING 985
SWIDTH 556 0
DWIDTH 18 0
BBX 16 23 1 -6
BITMAP
07E0
1FF8
3FFC
7C3E
700E
F00F
E007
E007
E007
E007
E007
F00F
700E
7C3E
3FFC
1FF8
07F0
01C0
01C0
01C0
01C0
01C0
01C0
ENDCHAR
STARTCHAR uni03DA
ENCODING 986
SWIDTH 722 0
DWIDTH 23 0
BBX 19 29 2 -6
BITMAP
01FC00
07FF00
1FFF80
3E07C0
3C03C0
7801E0
7000C0
F00000
E00000
E00000
E00000
E00000
E00000
E00000
F00000
780000
7C0000
3F0000
1FF000
0FFE00
01FF00
001F80
000780
000380
000380
060780
0FFF00
0FFE00
03FC00
ENDCHAR
STARTCHAR uni03DB
ENCODING 987
SWIDTH 500 0
DWIDTH 16 0
BBX 14 23 1 -6
BITMAP
07C0
1FF0
3FF8
7878
703C
E01C
E000
E000
E000
E000
E000
F000
7C00
3FC0
1FF0
0FF8
0078
0038
0038
2078
3FF0
3FF0
1FC0
ENDCHAR
STARTCHAR uni03DC
ENCODING 988
SWIDTH 610 0
DWIDTH 20 0
BBX 16 23 3 0
BITMAP
FFFF
FFFF
FFFF
E000
E000
E000
E000
E000
E000
E000
FFFC
FFFC
FFFC
E01C
E01C
E01C
E000
E000
E000
E000
E000
E000
E000
ENDCHAR
STARTCHAR uni03DD
ENCODING 989
SWIDTH 403 0
DWIDTH 13 0
BBX 10 23 2 -6
BITMAP
FFC0
FFC0
FFC0
E000
E000
E000
E000
FF80
FF80
FF80
E380
E380
E380
E000
E000
E000
E000
E000
E000
E000
E000
E000
E000
ENDCHAR
STARTCHAR uni03DE
ENCODING 990
SWIDTH 624 0
DWIDTH 20 0
BBX 20 23 0 0
BITMAP
F80000
FC0000
FE0000
0E0000
0E0000
0E0000
0E01C0
0E03C0
0E0F80
1C1F80
1C7F80
1CF380
1FE380
1F8380
1F0700
3C0700
380700
200700
000700
000700
0007F0
0003F0
0001F0
ENDCHAR
STARTCHAR uni03DF
ENCODING 991
SWIDTH 529 0
DWIDTH 17 0
BBX 15 23 1 0
BITMAP
0E00
0E00
1C00
1C00
1C00
3800
3800
3800
7000
7000
7FFE
FFFE
FFFC
001C
001C
0038
0038
0038
0070
0070
0070
00E0
00E0
ENDCHAR
STARTCHAR uni03E0
ENCODING 992
SWIDTH 756 0
DWIDTH 24 0
BBX 23 29 0 -6
BITMAP
03F000
0FFC00
1FFF00
3F9F80
7B87C0
F383E0
6381E0
4380F0
038070
0380F8
0383F8
0387FC
00071C
000E1C
000E1E
000E0E
000E0E
000E0E
000E0E
000E0E
000E0E
000E0E
000E1C
00001C
00003C
0000F8
007FF0
003FE0
003F00
ENDCHAR
STARTCHAR uni03E1
ENCODING 993
SWIDTH 576 0
DWIDTH 18 0
BBX 16 29 1 -6
BITMAP
3000
FC00
3E00
0F80
07C0
01E0
00E0
0070
00F8
03F8
0FBC
0E1C
081E
000E
003E
00FF
03E7
0187
0007
0007
0007
0007
0007
0007
0007
0007
000E
000E
0008
ENDCHAR
STARTCHAR uni03E2
ENCODING 994
SWIDTH 890 0
DWIDTH 29 0
BBX 23 29 3 -6
BITMAP
E0380E
E0380E
E0380E
E0380E
E0380E
E0380E
E0380E
E0380E
E0380E
E0380E
E0380E
E0380E
E0380E
E0380E
E0380E
E0380E
E0380E
E0381E
E0781E
F0FC3E
7FDFFE
7F9FEE
1F07CE
00000E
00001E
00003C
FFFFFC
FFFFF8
FFFFE0
ENDCHAR
STARTCHAR uni03E3
ENCODING 995
SWIDTH 833 0
DWIDTH 27 0
BBX 23 23 2 -6
BITMAP
E0380E
E0380E
E0380E
E0380E
E0380E
E0380E
E0380E
E0380E
E0380E
E0380E
E0380E
E0380E
E0781E
F0FC3E
7FDFFE
7F9FEE
1E078E
00000E
00001E
00003C
FFFFFC
FFFFF8
FFFFE0
ENDCHAR
STARTCHAR uni03E4
ENCODING 996
SWIDTH 674 0
DWIDTH 22 0
BBX 17 23 2 0
BITMAP
0FC380
1FE380
3FC380
780380
F00380
E00380
E00380
E00380
E00380
E00380
F00380
781F80
3FFF80
1FFF80
0FE380
000380
000380
000380
000380
000380
000380
000380
000380
ENDCHAR
STARTCHAR uni03E5
ENCODING 997
SWIDTH 556 0
DWIDTH 18 0
BBX 14 23 2 0
BITMAP
3E1C
7E1C
FE1C
F01C
E01C
E01C
E01C
E01C
E01C
E01C
E01C
E01C
E03C
F07C
7FFC
7FDC
1F9C
001C
001C
001C
001C
001C
001C
ENDCHAR
STARTCHAR uni03E6
ENCODING 998
SWIDTH 673 0
DWIDTH 22 0
BBX 17 29 3 -6
BITMAP
E00000
E00000
E00000
E00000
E00000
E00000
E00000
E00000
E3F000
FFFC00
FFFE00
FC1F00
E00F00
E00700
E00780
E00380
E00380
E00380
E00380
E00380
E00380
E00380
E00700
000700
000F00
003E00
FFFC00
FFF800
FFE000
ENDCHAR
STARTCHAR uni03E7
ENCODING 999
SWIDTH 500 0
DWIDTH 16 0
BBX 15 18 0 0
BITMAP
0004
07EE
1FFC
3FFC
3C3C
387C
38FE
3FEE
1FCE
0F0E
000E
000E
001E
001C
383C
7FF8
FFF0
E3E0
ENDCHAR
STARTCHAR uni03E8
ENCODING 1000
SWIDTH 666 0
DWIDTH 21 0
BBX 18 23 2 0
BITMAP
03F800
0FFE00
1FFF00
3E0F00
380380
780380
700380
700780
001F00
01FF00
0FFE00
3FF800
7F8180
7801C0
F001C0
E001C0
E001C0
E001C0
F00380
7C0F80
3FFF00
1FFE00
07F000
ENDCHAR
STARTCHAR uni03E9
ENCODING 1001
SWIDTH 666 0
DWIDTH 21 0
BBX 17 23 2 0
BITMAP
03F800
0FFE00
1FFF00
3C0F00
780380
700380
700380
000380
000F00
00FF00
0FFE00
3FF800
7F8000
780000
F00000
E00000
E00000
E00000
F00000
7C0300
7FFF80
1FFF80
07FE00
ENDCHAR
STARTCHAR uni03EA
ENCODING 1002
SWIDTH 609 0
DWIDTH 20 0
BBX 20 23 0 0
BITMAP
1E0780
7F0FE0
FF9FF0
E39C70
41F820
01F800
01F800
00F000
00F000
00F000
00F000
01F800
01F800
039C00
039C00
039C00
070E00
070E00
0E0700
0E0700
0FFF00
0FFF00
0FFF00
ENDCHAR
STARTCHAR uni03EB
ENCODING 1003
SWIDTH 596 0
DWIDTH 19 0
BBX 19 17 0 0
BITMAP
1E0F00
7F1FC0
FFBFE0
E3B8E0
43B840
01F000
01F000
00E000
00E000
01F000
01F000
03B800
03B800
07BC00
071C00
07FC00
07FC00
ENDCHAR
STARTCHAR uni03EC
ENCODING 1004
SWIDTH 736 0
DWIDTH 24 0
BBX 22 23 1 0
BITMAP
00FFF0
07FFF0
0FFFF0
1F0000
3C0000
79FE00
77FF80
7FFFE0
FF03F0
F80078
F00038
F0003C
E0001C
E0001C
E0001C
E0001C
70003C
700038
380078
3E03F0
1FFFE0
0FFF80
01FE00
ENDCHAR
STARTCHAR uni03ED
ENCODING 1005
SWIDTH 553 0
DWIDTH 18 0
BBX 16 17 1 0
BITMAP
01FE
0FFE
3FFE
7E00
7800
F000
E7F8
E7FE
E7FE
E00F
E007
F007
7007
7C1F
3FFE
1FFC
07F0
ENDCHAR
STARTCHAR uni03EE
ENCODING 1006
SWIDTH 463 0
DWIDTH 15 0
BBX 15 23 0 0
BITMAP
0380
0380
0380
0380
0380
3FF8
7FFC
FFFE
E38E
E38E
E38E
C386
0380
0380
0380
0380
0380
0380
0380
0380
0380
0380
0380
ENDCHAR
STARTCHAR uni03EF
ENCODING 1007
SWIDTH 409 0
DWIDTH 13 0
BBX 11 23 1 0
BITMAP
0800
0F00
0F80
0E00
0E00
0E00
FFE0
FFE0
FFE0
CE00
8E00
0E00
0E00
0E00
0E00
0E00
0E00
0E00
0E00
0E00
3E00
1E00
0200
ENDCHAR
STARTCHAR uni03F0
ENCODING 1008
SWIDTH 601 0
DWIDTH 19 0
BBX 18 17 0 0
BITMAP
F803C0
FC0780
FE0F00
1E1E00
0E1C00
0E3C00
0E7C00
0EFC00
0FFC00
0FDC00
0F9C00
0F1C00
0E1C00
1E1E00
3C1FC0
780FC0
F007C0
ENDCHAR
STARTCHAR uni03F1
ENCODING 1009
SWIDTH 572 0
DWIDTH 18 0
BBX 16 23 1 -6
BITMAP
07E0
1FF8
3FFC
7C3E
700E
700F
E007
E007
E007
E007
E007
F00F
F00E
FC3E
DFFC
CFF8
67E0
6000
7800
3FFC
1FFE
03FF
0003
ENDCHAR
STARTCHAR uni03F2
ENCODING 1010
SWIDTH 500 0
DWIDTH 16 0
BBX 14 17 1 0
BITMAP
0780
1FE0
3FF0
7878
7038
E01C
E000
E000
E000
E000
E000
E01C
703C
7878
3FF8
1FF0
0FC0
ENDCHAR
STARTCHAR uni03F3
ENCODING 1011
SWIDTH 222 0
DWIDTH 7 0
BBX 6 29 -1 -6
BITMAP
1C
1C
1C
00
00
00
1C
1C
1C
1C
1C
1C
1C
1C
1C
1C
1C
1C
1C
1C
1C
1C
1C
1C
1C
1C
FC
F8
F0
ENDCHAR
STARTCHAR uni03F4
ENCODING 1012
SWIDTH 777 0
DWIDTH 25 0
BBX 23 23 1 0
BITMAP
00FE00
07FFC0
0FFFE0
1F01F0
3C0078
78003C
70001C
70001C
E0000E
E0000E
FFFFFE
FFFFFE
FFFFFE
E0000E
E0000E
70001C
70001C
78003C
3C0078
1F01F0
0FFFE0
07FFC0
00FE00
ENDCHAR
STARTCHAR uni03F5
ENCODING 1013
SWIDTH 441 0
DWIDTH 14 0
BBX 12 17 1 0
BITMAP
07F0
1FF0
3FF0
7800
7000
E000
FF80
FF80
FF80
E000
E000
F000
7000
7800
3FF0
1FF0
0FF0
ENDCHAR
STARTCHAR uni03F6
ENCODING 1014
SWIDTH 441 0
DWIDTH 14 0
BBX 12 17 1 0
BITMAP
FE00
FF80
FFC0
01E0
00E0
0070
1FF0
1FF0
1FF0
0070
0070
00F0
00E0
01E0
FFC0
FF80
FF00
ENDCHAR
STARTCHAR uni03F7
ENCODING 1015
SWIDTH 666 0
DWIDTH 21 0
BBX 17 23 3 0
BITMAP
E00000
E00000
E00000
E00000
FFF800
FFFE00
FFFF00
E00F00
E00780
E00380
E00380
E00380
E00380
E00380
E00700
E00F00
FFFE00
FFFC00
FFF800
E00000
E00000
E00000
E00000
ENDCHAR
STARTCHAR uni03F8
ENCODING 1016
SWIDTH 556 0
DWIDTH 18 0
BBX 15 29 2 -6
BITMAP
E000
E000
E000
E000
E000
E000
E7C0
EFF0
FFF8
F87C
F01C
E01E
E00E
E00E
E00E
E00E
E00E
E01E
F01C
F87C
FFF8
EFF0
E7C0
E000
E000
E000
E000
E000
E000
ENDCHAR
STARTCHAR uni03F9
ENCODING 1017
SWIDTH 722 0
DWIDTH 23 0
BBX 21 23 1 0
BITMAP
01FC00
07FF00
0FFFC0
1F03C0
3C01E0
7800F0
700070
F00000
E00000
E00000
E00000
E00000
E00000
E00000
E00000
700038
700078
780070
3C00F0
1F03E0
0FFFC0
07FF80
01FE00
ENDCHAR
STARTCHAR uni03FA
ENCODING 1018
SWIDTH 833 0
DWIDTH 27 0
BBX 23 23 2 0
BITMAP
F0001E
F8003E
FC007E
FE00FE
EE01EE
E703CE
E3878E
E1CF0E
E1FE0E
E0FC0E
E0780E
E0300E
E0000E
E0000E
E0000E
E0000E
E0000E
E0000E
E0000E
E0000E
E0000E
E0000E
E0000E
ENDCHAR
STARTCHAR uni03FB
ENCODING 1019
SWIDTH 687 0
DWIDTH 22 0
BBX 18 23 2 -6
BITMAP
F807C0
FC07C0
FC0FC0
FC0FC0
EC0FC0
EE1DC0
EE1DC0
EE1DC0
E719C0
E739C0
E739C0
E731C0
E3F1C0
E3F1C0
E3F1C0
E1E1C0
E1E1C0
E00000
E00000
E00000
E00000
E00000
E00000
ENDCHAR
STARTCHAR uni03FC
ENCODING 1020
SWIDTH 568 0
DWIDTH 18 0
BBX 17 23 0 -6
BITMAP
03F000
07FC00
0FFE00
1E0F00
1C0700
3C0780
380380
380380
380380
380380
380380
380780
3C0700
3E0F00
3FFE00
3BFC00
39F000
380000
380000
FFC000
FFC000
380000
380000
ENDCHAR
STARTCHAR uni03FD
ENCODING 1021
SWIDTH 722 0
DWIDTH 23 0
BBX 20 23 1 0
BITMAP
03F800
0FFE00
1FFF80
3E0FC0
7803C0
7001E0
F000E0
E000E0
000070
000070
000070
000070
000070
000070
000070
0000F0
E000E0
F001E0
7803C0
7C0F80
3FFF00
0FFE00
03F800
ENDCHAR
STARTCHAR uni03FE
ENCODING 1022
SWIDTH 722 0
DWIDTH 23 0
BBX 20 23 2 0
BITMAP
01FC00
07FF00
0FFFC0
3F03E0
3C01E0
7800F0
700070
F00000
E00000
E00000
E07000
E07000
E07000
E00000
E00000
700070
7000F0
7800E0
3C01E0
3F07C0
1FFF80
07FF00
01FC00
ENDCHAR
STARTCHAR uni03FF
ENCODING 1023
SWIDTH 722 0
DWIDTH 23 0
BBX 20 23 1 0
BITMAP
03F800
0FFE00
1FFF80
3E0FC0
7803C0
7001E0
F000E0
E000E0
000070
000070
00E070
00E070
00E070
000070
000070
0000F0
E000E0
F001E0
7803C0
7C0F80
3FFF00
0FFE00
03F800
ENDCHAR
STARTCHAR uni0400
ENCODING 1024
SWIDTH 666 0
DWIDTH 21 0
BBX 16 29 3 0
BITMAP
0700
0380
0180
00C0
0000
0000
FFFE
FFFE
FFFE
E000
E000
E000
E000
E000
E000
FFFC
FFFC
FFFC
E000
E000
E000
E000
E000
E000
E000
E000
FFFF
FFFF
FFFF
ENDCHAR
STARTCHAR uni0401
ENCODING 1025
SWIDTH 667 0
DWIDTH 21 0
BBX 16 28 3 0
BITMAP
1C70
1C70
1C70
0000
0000
FFFE
FFFE
FFFE
E000
E000
E000
E000
E000
E000
FFFC
FFFC
FFFC
E000
E000
E000
E000
E000
E000
E000
E000
FFFF
FFFF
FFFF
ENDCHAR
STARTCHAR uni0402
ENCODING 1026
SWIDTH 864 0
DWIDTH 28 0
BBX 26 23 1 0
BITMAP
FFFFE000
FFFFE000
FFFFE000
00E00000
00E00000
00E00000
00E00000
00E00000
00E1F800
00EFFE00
00FFFF00
00FC0F80
00E00380
00E003C0
00E001C0
00E001C0
00E001C0
00E001C0
00E00380
00E08780
00E1FF00
00E1FE00
00E0FC00
ENDCHAR
STARTCHAR uni0403
ENCODING 1027
SWIDTH 541 0
DWIDTH 17 0
BBX 14 29 3 0
BITMAP
00F0
01E0
01C0
0380
0000
0000
FFFC
FFFC
FFFC
E000
E000
E000
E000
E000
E000
E000
E000
E000
E000
E000
E000
E000
E000
E000
E000
E000
E000
E000
E000
ENDCHAR
STARTCHAR uni0404
ENCODING 1028
SWIDTH 718 0
DWIDTH 23 0
BBX 21 23 1 0
BITMAP
00FE00
07FF80
0FFFE0
1F03F0
3C00F0
780078
700030
700000
E00000
FFF000
FFF000
FFF000
E00000
E00000
E00000
F00030
700078
780070
3C00F0
3F03E0
1FFFC0
07FF80
01FE00
ENDCHAR
STARTCHAR uni0405
ENCODING 1029
SWIDTH 666 0
DWIDTH 21 0
BBX 18 23 1 0
BITMAP
07F000
1FFC00
3FFE00
3C0F00
780780
700380
700380
700000
380000
3F8000
1FF800
07FE00
007F00
000F80
0003C0
E001C0
E001C0
F001C0
7003C0
7C0F80
3FFF00
1FFE00
03F800
ENDCHAR
STARTCHAR uni0406
ENCODING 1030
SWIDTH 277 0
DWIDTH 9 0
BBX 3 23 3 0
BITMAP
E0
E0
E0
E0
E0
E0
E0
E0
E0
E0
E0
E0
E0
E0
E0
E0
E0
E0
E0
E0
E0
E0
E0
ENDCHAR
STARTCHAR uni0407
ENCODING 1031
SWIDTH 277 0
DWIDTH 9 0
BBX 9 28 0 0
BITMAP
E380
E380
E380
0000
0000
1C00
1C00
1C00
1C00
1C00
1C00
1C00
1C00
1C00
1C00
1C00
1C00
1C00
1C00
1C00
1C00
1C00
1C00
1C00
1C00
1C00
1C00
1C00
ENDCHAR
STARTCHAR uni0408
ENCODING 1032
SWIDTH 500 0
DWIDTH 16 0
BBX 12 23 1 0
BITMAP
0070
0070
0070
0070
0070
0070
0070
0070
0070
0070
0070
0070
0070
0070
0070
0070
E070
E070
E070
F0E0
7FE0
3FC0
1F80
ENDCHAR
STARTCHAR uni0409
ENCODING 1033
SWIDTH 1057 0
DWIDTH 34 0
BBX 33 23 0 0
BITMAP
0FFFE00000
0FFFE00000
0FFFE00000
0E00E00000
0E00E00000
0E00E00000
0E00E00000
0E00E00000
0E00E00000
0E00FFF800
0E00FFFE00
0E00FFFF00
0E00E00F00
0E00E00780
0E00E00380
0E00E00380
0E00E00380
0E00E00380
0E00E00780
9E00E00F00
FC00FFFF00
FC00FFFE00
7800FFF800
ENDCHAR
STARTCHAR uni040A
ENCODING 1034
SWIDTH 1010 0
DWIDTH 32 0
BBX 28 23 3 0
BITMAP
E01C0000
E01C0000
E01C0000
E01C0000
E01C0000
E01C0000
E01C0000
E01C0000
E01C0000
FFFFFF00
FFFFFFC0
FFFFFFE0
E01C01E0
E01C00F0
E01C0070
E01C0070
E01C0070
E01C0070
E01C00F0
E01C01E0
E01FFFE0
E01FFFC0
E01FFF00
ENDCHAR
STARTCHAR uni040B
ENCODING 1035
SWIDTH 854 0
DWIDTH 27 0
BBX 24 23 1 0
BITMAP
FFFFE0
FFFFE0
FFFFE0
00E000
00E000
00E000
00E000
00E000
00E3F0
00EFFC
00FFFE
00FC1E
00E00F
00E007
00E007
00E007
00E007
00E007
00E007
00E007
00E007
00E007
00E007
ENDCHAR
STARTCHAR uni040C
ENCODING 1036
SWIDTH 582 0
DWIDTH 19 0
BBX 16 29 3 0
BITMAP
01E0
01C0
0380
0300
0000
0000
E00F
E01F
E03F
E078
E070
E0E0
E0E0
E1E0
E1C0
E3C0
FF80
FE00
E780
E1C0
E0E0
E0E0
E070
E038
E038
E01C
E01E
E00E
E007
ENDCHAR
STARTCHAR uni040D
ENCODING 1037
SWIDTH 718 0
DWIDTH 23 0
BBX 17 29 3 0
BITMAP
0F0000
070000
038000
018000
000000
000000
E00380
E00780
E00F80
E00F80
E01F80
E01F80
E03B80
E07380
E07380
E0E380
E0E380
E1C380
E38380
E38380
E70380
E70380
EE0380
FC0380
FC0380
F80380
F80380
F00380
E00380
ENDCHAR
STARTCHAR uni040E
ENCODING 1038
SWIDTH 635 0
DWIDTH 20 0
BBX 19 29 1 0
BITMAP
030C00
030C00
03FC00
00F000
000000
000000
E000E0
E000E0
7001C0
7001C0
380380
380380
1C0700
1E0700
0E0E00
070E00
071C00
039C00
03B800
01F800
01F000
00F000
00E000
00E000
01C000
23C000
3F8000
3F0000
1E0000
ENDCHAR
STARTCHAR uni040F
ENCODING 1039
SWIDTH 718 0
DWIDTH 23 0
BBX 17 29 3 -6
BITMAP
E00380
E00380
E00380
E00380
E00380
E00380
E00380
E00380
E00380
E00380
E00380
E00380
E00380
E00380
E00380
E00380
E00380
E00380
E00380
E00380
FFFF80
FFFF80
FFFF80
01C000
01C000
01C000
01C000
01C000
01C000
ENDCHAR
STARTCHAR uni0410
ENCODING 1040
SWIDTH 666 0
DWIDTH 21 0
BBX 21 23 0 0
BITMAP
00F800
00F800
00F800
01DC00
01DC00
01DC00
038E00
038E00
070700
070700
070700
0E0380
0E0380
0FFF80
1FFFC0
1FFFC0
3800E0
3800E0
3800E0
700070
700070
700070
E00038
ENDCHAR
STARTCHAR uni0411
ENCODING 1041
SWIDTH 656 0
DWIDTH 20 0
BBX 16 23 3 0
BITMAP
FFFC
FFFC
FFFC
E000
E000
E000
E000
E000
E000
FFF0
FFFC
FFFE
E01E
E00F
E007
E007
E007
E007
E00F
E01E
FFFE
FFFC
FFF0
ENDCHAR
STARTCHAR uni0412
ENCODING 1042
SWIDTH 666 0
DWIDTH 21 0
BBX 17 23 3 0
BITMAP
FFF000
FFFC00
FFFE00
E01F00
E00700
E00700
E00700
E00700
E01E00
FFFC00
FFFC00
FFFE00
E00F00
E00780
E00380
E00380
E00380
E00380
E00780
E00F00
FFFF00
FFFE00
FFF800
ENDCHAR
STARTCHAR uni0413
ENCODING 1043
SWIDTH 541 0
DWIDTH 17 0
BBX 14 23 3 0
BITMAP
FFFC
FFFC
FFFC
E000
E000
E000
E000
E000
E000
E000
E000
E000
E000
E000
E000
E000
E000
E000
E000
E000
E000
E000
E000
ENDCHAR
STARTCHAR uni0414
ENCODING 1044
SWIDTH 677 0
DWIDTH 22 0
BBX 21 28 0 -5
BITMAP
07FFE0
07FFE0
07FFE0
0700E0
0700E0
0700E0
0700E0
0700E0
0700E0
0700E0
0700E0
0600E0
0E00E0
0E00E0
0E00E0
0E00E0
0C00E0
1C00E0
1C00E0
3800E0
FFFFF8
FFFFF8
FFFFF8
E00038
E00038
E00038
E00038
E00038
ENDCHAR
STARTCHAR uni0415
ENCODING 1045
SWIDTH 666 0
DWIDTH 21 0
BBX 16 23 3 0
BITMAP
FFFE
FFFE
FFFE
E000
E000
E000
E000
E000
E000
FFFC
FFFC
FFFC
E000
E000
E000
E000
E000
E000
E000
E000
FFFF
FFFF
FFFF
ENDCHAR
STARTCHAR uni0416
ENCODING 1046
SWIDTH 923 0
DWIDTH 30 0
BBX 29 23 0 0
BITMAP
F0070078
F80700F8
FC0701F8
1E0703C0
0E070380
07070700
07070700
07870E00
03870E00
01C71C00
00FFF800
00FFF800
01E73C00
03870E00
07070700
0F070780
0E070380
1C0701C0
1C0701C0
380700E0
780700F0
70070070
E0070038
ENDCHAR
STARTCHAR uni0417
ENCODING 1047
SWIDTH 604 0
DWIDTH 19 0
BBX 17 23 1 0
BITMAP
07F000
1FFC00
3FFE00
7C1E00
700F00
F00700
E00700
600F00
001E00
01FC00
01F800
01FE00
001F00
000700
000380
600380
F00380
F00380
780780
3C1F00
3FFE00
1FFC00
07F000
ENDCHAR
STARTCHAR uni0418
ENCODING 1048
SWIDTH 718 0
DWIDTH 23 0
BBX 17 23 3 0
BITMAP
E00380
E00780
E00F80
E00F80
E01F80
E01F80
E03B80
E07380
E07380
E0E380
E0E380
E1C380
E38380
E38380
E70380
E70380
EE0380
FC0380
FC0380
F80380
F80380
F00380
E00380
ENDCHAR
STARTCHAR uni0419
ENCODING 1049
SWIDTH 718 0
DWIDTH 23 0
BBX 17 29 3 0
BITMAP
0C1800
0E3800
07F000
03E000
000000
000000
E00380
E00780
E00F80
E00F80
E01F80
E01F80
E03B80
E07380
E07380
E0E380
E0E380
E1C380
E38380
E38380
E70380
E70380
EE0380
FC0380
FC0380
F80380
F80380
F00380
E00380
ENDCHAR
STARTCHAR uni041A
ENCODING 1050
SWIDTH 582 0
DWIDTH 19 0
BBX 16 23 3 0
BITMAP
E00F
E01F
E03F
E078
E070
E0E0
E0E0
E1E0
E1C0
E3C0
FF80
FE00
E780
E1C0
E0E0
E0E0
E070
E038
E038
E01C
E01E
E00E
E007
ENDCHAR
STARTCHAR uni041B
ENCODING 1051
SWIDTH 656 0
DWIDTH 21 0
BBX 18 23 0 0
BITMAP
0FFFC0
0FFFC0
0FFFC0
0E01C0
0E01C0
0E01C0
0E01C0
0E01C0
0E01C0
0E01C0
0E01C0
0E01C0
0E01C0
0E01C0
0E01C0
0E01C0
0E01C0
0E01C0
0E01C0
9E01C0
FC01C0
FC01C0
7801C0
ENDCHAR
STARTCHAR uni041C
ENCODING 1052
SWIDTH 833 0
DWIDTH 27 0
BBX 21 23 3 0
BITMAP
F800F8
F800F8
FC01F8
FC01F8
FC01F8
EE03B8
EE03B8
EE03B8
E60338
E70738
E70738
E70738
E38E38
E38E38
E38E38
E18C38
E1DC38
E1DC38
E1DC38
E0D838
E0F838
E0F838
E07038
ENDCHAR
STARTCHAR uni041D
ENCODING 1053
SWIDTH 722 0
DWIDTH 23 0
BBX 17 23 3 0
BITMAP
E00380
E00380
E00380
E00380
E00380
E00380
E00380
E00380
E00380
FFFF80
FFFF80
FFFF80
E00380
E00380
E00380
E00380
E00380
E00380
E00380
E00380
E00380
E00380
E00380
ENDCHAR
STARTCHAR uni041E
ENCODING 1054
SWIDTH 777 0
DWIDTH 25 0
BBX 23 23 1 0
BITMAP
00FE00
07FFC0
0FFFE0
1F01F0
3C0078
78003C
70001C
70001C
E0000E
E0000E
E0000E
E0000E
E0000E
E0000E
E0000E
70001C
70001C
78003C
3C0078
1F01F0
0FFFE0
07FFC0
00FE00
ENDCHAR
STARTCHAR uni041F
ENCODING 1055
SWIDTH 718 0
DWIDTH 23 0
BBX 17 23 3 0
BITMAP
FFFF80
FFFF80
FFFF80
E00380
E00380
E00380
E00380
E00380
E00380
E00380
E00380
E00380
E00380
E00380
E00380
E00380
E00380
E00380
E00380
E00380
E00380
E00380
E00380
ENDCHAR
STARTCHAR uni0420
ENCODING 1056
SWIDTH 666 0
DWIDTH 21 0
BBX 17 23 3 0
BITMAP
FFF800
FFFE00
FFFF00
E00F00
E00780
E00380
E00380
E00380
E00380
E00780
E00F00
FFFF00
FFFE00
FFF800
E00000
E00000
E00000
E00000
E00000
E00000
E00000
E00000
E00000
ENDCHAR
STARTCHAR uni0421
ENCODING 1057
SWIDTH 722 0
DWIDTH 23 0
BBX 21 23 1 0
BITMAP
01FC00
07FF00
0FFFC0
1F03C0
3C01E0
7800F0
700070
F00000
E00000
E00000
E00000
E00000
E00000
E00000
E00000
700038
700078
780070
3C00F0
1F03E0
0FFFC0
07FF80
01FE00
ENDCHAR
STARTCHAR uni0422
ENCODING 1058
SWIDTH 610 0
DWIDTH 19 0
BBX 19 23 0 0
BITMAP
FFFFE0
FFFFE0
FFFFE0
00E000
00E000
00E000
00E000
00E000
00E000
00E000
00E000
00E000
00E000
00E000
00E000
00E000
00E000
00E000
00E000
00E000
00E000
00E000
00E000
ENDCHAR
STARTCHAR uni0423
ENCODING 1059
SWIDTH 635 0
DWIDTH 20 0
BBX 19 23 1 0
BITMAP
E000E0
E000E0
7001C0
7001C0
380380
380380
1C0700
1E0700
0E0E00
070E00
071C00
039C00
03B800
01F800
01F000
00F000
00E000
00E000
01C000
23C000
3F8000
3F0000
1E0000
ENDCHAR
STARTCHAR uni0424
ENCODING 1060
SWIDTH 760 0
DWIDTH 24 0
BBX 21 23 2 0
BITMAP
007000
007000
007000
03FE00
0FFF80
3FFFC0
3C71E0
7870F0
F07070
E07038
E07038
E07038
E07038
E07038
F07070
7870F0
3C71E0
3FFFC0
0FFF80
03FE00
007000
007000
007000
ENDCHAR
STARTCHAR uni0425
ENCODING 1061
SWIDTH 666 0
DWIDTH 21 0
BBX 21 23 0 0
BITMAP
7800F0
3C01E0
1C01C0
0E0380
0F0780
078F00
038E00
01DC00
01DC00
00F800
007000
00F800
00F800
01DC00
03DE00
038E00
070700
0F0780
1E03C0
1C01C0
3800E0
7800F0
F00078
ENDCHAR
STARTCHAR uni0426
ENCODING 1062
SWIDTH 739 0
DWIDTH 24 0
BBX 20 29 3 -6
BITMAP
E001C0
E001C0
E001C0
E001C0
E001C0
E001C0
E001C0
E001C0
E001C0
E001C0
E001C0
E001C0
E001C0
E001C0
E001C0
E001C0
E001C0
E001C0
E001C0
E001C0
FFFFF0
FFFFF0
FFFFF0
000070
000070
000070
000070
000070
000070
ENDCHAR
STARTCHAR uni0427
ENCODING 1063
SWIDTH 666 0
DWIDTH 21 0
BBX 15 23 3 0
BITMAP
E00E
E00E
E00E
E00E
E00E
E00E
E00E
E00E
E00E
E00E
E00E
F00E
783E
7FFE
3FFE
0F8E
000E
000E
000E
000E
000E
000E
000E
ENDCHAR
STARTCHAR uni0428
ENCODING 1064
SWIDTH 916 0
DWIDTH 29 0
BBX 25 23 2 0
BITMAP
E01C0380
E01C0380
E01C0380
E01C0380
E01C0380
E01C0380
E01C0380
E01C0380
E01C0380
E01C0380
E01C0380
E01C0380
E01C0380
E01C0380
E01C0380
E01C0380
E01C0380
E01C0380
E01C0380
E01C0380
FFFFFF80
FFFFFF80
FFFFFF80
ENDCHAR
ENDFONT
